<svg width="137" height="185" viewBox="0 0 137 185" fill="none" xmlns="http://www.w3.org/2000/svg">
<path d="M116.624 101.092C81.5276 193.394 51.8684 185.918 39.3673 182.767C21.4297 178.245 -14.1223 169.284 6.28406 73.2788C9.38757 -35.47 48.3095 7.86998 80.4301 15.9666C112.551 24.0633 164.946 0.947036 116.624 101.092Z" fill="url(#paint0_linear_661_2)"/>
<path d="M33.9779 89.861C34.7144 86.8691 35.2068 85.6049 38.4428 84.5581C43.51 82.9189 49.7757 81.5459 53.9872 85.7214C56.7035 88.4145 58.2863 91.5658 57.4044 95.46C56.6382 98.8431 55.7518 101.687 52.6729 103.621C48.4084 106.298 41.9058 107.787 37.9999 103.97C34.5814 100.628 32.0552 96.4423 33.2673 91.5185" stroke="#E8C4E0" stroke-linecap="round"/>
<path d="M34.972 84.602C36.1227 79.9276 35.6047 74.9852 36.2614 70.2166C38.2492 55.7847 52.8389 46.8127 65.8354 43.5398C72.2131 41.9337 82.1644 38.2553 86.4984 45.5511C88.1501 48.3316 88.144 51.7679 87.5976 54.8755C86.8956 58.8686 85.9067 63.1383 84.6175 66.9811C81.3156 76.823 73.5543 83.2141 64.8435 87.9821C63.1803 88.8925 61.8668 89.0325 60.1222 89.343C57.7779 89.7602 60.2855 88.3706 61.379 88.1973C64.3769 87.722 67.3058 86.929 70.32 86.4886C72.8493 86.119 74.6295 86.3334 77.0796 86.951C84.6319 88.8547 88.6406 98.1208 90.1185 105.118C91.4325 111.339 90.9053 118.348 88.9359 124.394C86.9557 130.474 81.6645 135.145 76.4018 138.309C73.7004 139.933 70.344 141.131 67.2001 140.462C65.3852 140.076 63.3793 139.733 61.9461 138.458C60.0957 136.81 58.4948 134.595 57.0766 132.57C53.5266 127.504 50.3087 121.577 48.8598 115.5C48.4987 113.985 48.4302 112.325 48.4684 110.809C48.4885 110.01 48.3782 108.716 48.1378 107.988C48.0919 107.849 48.2447 106.287 47.9944 106.727C47.4437 107.695 47.3564 109.251 47.0955 110.31C46.5647 112.467 46.0338 114.623 45.503 116.779C44.2165 122.005 41.1081 126.894 37.9527 131.202C36.6861 132.931 35.5716 134.938 33.3287 135.445C30.9405 135.984 29.1293 135.781 26.771 135.186C24.6243 134.645 22.4775 134.104 20.3308 133.563C17.7691 132.917 14.7571 132.564 12.4977 131.112C9.7227 129.328 9.18307 126.41 8.48888 123.367C7.8782 120.69 7.06408 118.479 7.28028 115.716C7.64888 111.004 10.3832 108.348 13.8532 105.536C16.8646 103.096 19.6392 100.556 22.8332 98.3443C24.1542 97.4298 25.9819 95.7698 27.5929 95.5986C28.1879 95.5354 29.9609 95.5833 29.3805 95.437C28.5186 95.2197 27.8257 95.0828 27.1253 94.4944C24.3958 92.2015 21.468 90.165 18.743 87.8578C15.6355 85.2267 12.1614 83.3988 9.41079 80.3015C4.08822 74.3082 8.12496 63.4267 15.6959 61.5293C18.6684 60.7844 22.0841 61.456 24.9948 62.1897C27.0413 62.7056 27.8647 64.6805 29.2773 65.9562C30.4226 66.9905 32.0793 68.3981 32.8952 69.6912C33.7332 71.0192 34.6365 72.3372 35.1293 73.8597C35.3524 74.549 36.0558 75.2843 35.8904 75.9562" stroke="#E8C4E0" stroke-linecap="round"/>
<path d="M132.059 35.3874C130.229 34.9259 127.135 33.3873 125.573 35.0804C124.964 35.7397 124.589 36.4024 124.255 37.2149C123.731 38.4905 122.85 40.6124 123.029 42.0285C123.368 44.7234 126.768 45.9279 128.431 47.4591C129.05 48.029 130.862 48.3671 131.629 48.5602C132.426 48.7612 133.36 49.1816 134.144 49.0046" stroke="#E8C4E0" stroke-linecap="round"/>
<path d="M122.537 45.1295C118.126 44.0176 114.577 49.3118 113.169 52.7185C111.835 55.9464 111.045 59.4203 110.314 62.8348C109.36 67.2893 109.108 72.5426 109.906 77.0148C110.356 79.5345 110.712 82.1262 111.317 84.612C111.774 86.4873 113.203 88.197 114.491 89.5756C115.187 90.3207 116.279 90.7572 117.235 91.0368C118.237 91.3296 119.09 92.0736 120.105 92.3293" stroke="#E8C4E0" stroke-linecap="round"/>
<path d="M115.612 48.8877C112.065 47.9935 108.284 48.124 104.683 47.4186C101.024 46.7021 97.1299 45.8368 93.8347 44.0518C90.8237 42.4208 88.2855 40.2145 85.9481 37.7105C82.9633 34.5127 81.7426 29.1749 84.5359 25.5067C85.2037 24.6298 85.9961 23.9592 86.7771 23.2151C87.6833 22.3516 89.2749 22.1429 90.3352 21.4978C91.1933 20.9758 92.1895 20.4351 93.1508 20.1732C93.5978 20.0514 93.9338 20.1884 94.418 19.9761C95.0843 19.6841 95.5255 19.4023 96.261 19.3444" stroke="#E8C4E0" stroke-linecap="round"/>
<path d="M43.3949 138.548C43.8708 136.615 44.2315 134.605 44.8422 132.711C45.2743 131.371 47.3719 130.14 48.5744 129.747C51.6048 128.756 54.8069 129.961 57.7684 130.707" stroke="#E8C4E0" stroke-linecap="round"/>
<path d="M56.1008 182.762C54.329 182.315 52.7102 181.792 51.0923 180.894C48.1826 179.277 45.5359 177.116 43.0112 174.952C39.0751 171.577 34.9232 168.065 31.8905 163.796C29.5781 160.54 27.0842 155.784 28.1023 151.648C28.2795 150.928 28.385 150.14 28.8485 149.539C29.793 148.313 31.5995 147.474 32.8916 146.695C36.8787 144.292 40.7302 143.3 45.3511 144.198C51.0535 145.306 55.7781 148.97 58.6052 154.148C60.6919 157.969 61.1099 162.798 61.2553 167.105C61.3152 168.879 61.3942 171.067 60.971 172.786C60.4214 175.018 61.8947 168.279 62.4443 166.047C62.7988 164.607 63.0402 163.059 63.5625 161.672C64.4773 159.243 65.9658 156.632 67.505 154.543C69.9104 151.278 72.2083 148.081 76.109 146.668C78.2966 145.875 80.9365 145.338 82.9083 147.045C84.4438 148.375 84.763 150.985 83.4835 152.63C80.517 156.442 78.4646 160.957 75.405 164.699C73.5624 166.953 72.0883 169.484 70.3188 171.78C69.8035 172.449 68.9668 172.766 68.3654 173.345C67.7711 173.916 68.3114 173.555 68.6373 173.33C70.0292 172.366 70.6374 170.339 71.8221 169.069C72.5594 168.278 73.418 167.678 74.2826 167.037C75.4934 166.14 76.6019 165.024 77.8911 164.24C79.1566 163.47 81.3664 162.819 82.8341 163.189" stroke="#E8C4E0" stroke-linecap="round"/>
<defs>
<linearGradient id="paint0_linear_661_2" x1="80.4925" y1="10.3795" x2="37.1779" y2="182.215" gradientUnits="userSpaceOnUse">
<stop stop-color="#AD8383"/>
<stop offset="1" stop-color="#E8D502"/>
</linearGradient>
</defs>
</svg>
