<svg width="189" height="310" viewBox="0 0 189 310" fill="none" xmlns="http://www.w3.org/2000/svg">
<path d="M140.353 0.251953L181.064 13.9311L145.11 123.501L104.398 109.822L140.353 0.251953Z" fill="url(#paint0_linear_661_2)"/>
<path d="M172.922 225.286C153.495 284.49 154.098 336.628 64.0011 292.915C-28.8421 278.045 3.52684 225.932 20.5396 174.086C37.5524 122.24 45.5769 68.4287 128.519 96.2972C211.461 124.166 189.935 173.44 172.922 225.286Z" fill="url(#paint1_linear_661_2)"/>
<path d="M122.197 214.67C121.432 214.479 120.835 213.988 120.404 213.199C119.973 212.41 119.94 211.233 120.305 209.669C120.444 209.071 120.63 208.484 120.861 207.909C121.103 207.288 121.355 206.694 121.617 206.127C121.817 205.544 122.032 205.038 122.262 204.609C122.336 204.432 122.372 204.344 122.372 204.344C122.414 204.306 122.506 204.256 122.65 204.194L123.21 203.458L123.275 203.182C123.244 203.175 123.229 203.171 123.229 203.171C123.239 203.125 123.245 203.102 123.245 203.102C123.277 202.964 123.391 202.822 123.587 202.676C123.783 202.53 123.881 202.458 123.881 202.458C123.965 202.235 124.037 202.132 124.099 202.147C124.16 202.162 124.252 202.112 124.376 201.997L124.881 202.124L124.913 201.986C124.967 201.756 124.912 201.644 124.748 201.652C124.626 201.622 124.57 201.583 124.581 201.537C124.591 201.491 124.659 201.411 124.783 201.296C124.948 201.142 125.051 201.046 125.093 201.008C125.227 200.847 125.341 200.705 125.435 200.582C125.539 200.414 125.663 200.299 125.806 200.237C126.593 199.363 127.08 198.803 127.266 198.558C127.484 198.32 127.685 198.151 127.87 198.051C127.931 198.067 127.966 198.124 127.975 198.224C128.026 198.285 128.01 198.354 127.927 198.431C127.956 198.584 127.996 198.619 128.049 198.534C128.131 198.458 128.172 198.419 128.172 198.419L128.388 198.327C128.348 198.22 128.345 198.097 128.377 197.959C128.431 197.729 128.504 197.553 128.597 197.43C128.702 197.261 128.851 197.104 129.047 196.958C129.274 196.82 129.392 196.728 129.403 196.682C129.608 196.636 129.767 196.579 129.88 196.51C130.024 196.448 130.157 196.433 130.279 196.463C130.493 196.517 130.681 196.686 130.841 196.969C131.315 197.574 131.697 198.157 131.987 198.716C132.277 199.276 132.326 199.969 132.133 200.797C131.929 201.671 131.507 202.369 130.868 202.891C130.269 203.374 129.586 203.739 128.816 203.984C128.047 204.23 127.294 204.407 126.556 204.514C125.861 204.584 125.313 204.642 124.914 204.688C124.689 204.68 124.55 204.791 124.496 205.021C124.484 205.213 124.42 205.416 124.305 205.631L123.807 206.31L123.307 207.207L122.932 207.77C122.654 207.993 122.529 208.181 122.558 208.334C122.587 208.487 122.7 208.491 122.895 208.345C122.915 208.399 122.914 208.472 122.893 208.564C122.85 208.748 122.766 208.97 122.64 209.231C122.525 209.446 122.437 209.618 122.374 209.748C122.3 209.925 122.279 210.017 122.309 210.024C122.381 209.994 122.39 210.093 122.337 210.323L122.157 211.301C122.137 212.221 122.432 212.83 123.042 213.129C123.103 213.144 123.159 213.182 123.209 213.244C123.301 213.267 123.377 213.286 123.438 213.301C123.989 213.439 124.296 213.442 124.358 213.312C124.452 213.189 124.55 213.116 124.652 213.093C124.949 213.07 125.2 213.036 125.405 212.989C125.64 212.951 125.886 212.867 126.143 212.736C126.564 212.598 126.985 212.387 127.408 212.103C127.83 211.819 128.267 211.539 128.72 211.263L129.292 210.895C129.344 210.81 129.36 210.741 129.34 210.688C129.32 210.634 129.331 210.588 129.372 210.55C129.444 210.519 129.49 210.53 129.51 210.584C129.571 210.599 129.622 210.588 129.663 210.55C129.735 210.519 129.813 210.465 129.895 210.388C129.989 210.266 130.077 210.166 130.159 210.089C130.242 210.013 130.294 209.928 130.315 209.836C130.367 209.752 130.435 209.671 130.517 209.595C130.848 209.288 131.184 208.958 131.525 208.605C131.897 208.26 132.212 207.95 132.471 207.673C132.792 207.267 133.014 207.079 133.136 207.11C133.197 207.125 133.217 207.179 133.196 207.271C133.142 207.501 132.954 207.819 132.633 208.225C131.845 209.245 130.986 210.223 130.055 211.159C129.136 212.048 128.176 212.831 127.177 213.506C126.457 213.959 125.645 214.316 124.743 214.577C123.841 214.838 122.992 214.869 122.197 214.67ZM125.476 203.733C125.946 203.802 126.585 203.767 127.394 203.629C128.214 203.444 128.938 203.114 129.567 202.639C130.237 202.125 130.663 201.477 130.846 200.695C131.018 199.959 130.924 199.181 130.565 198.361C130.03 198.713 129.4 199.262 128.676 200.006C127.994 200.711 127.357 201.429 126.766 202.157C126.186 202.84 125.756 203.365 125.476 203.733Z" fill="#E8C4E0"/>
<path d="M102.498 209.815C102.315 209.769 102.26 209.585 102.336 209.263C102.389 209.033 102.499 208.769 102.666 208.47C103.093 207.749 103.641 206.717 104.311 205.376C104.98 204.034 105.677 202.918 106.402 202.028L109.592 196.473C109.592 196.473 109.566 196.442 109.516 196.381C109.476 196.274 109.467 196.174 109.489 196.082C109.348 195.852 109.208 195.549 109.069 195.174C108.972 194.76 109.042 194.388 109.281 194.058C109.364 193.982 109.42 193.947 109.451 193.955C109.481 193.962 109.497 193.966 109.497 193.966L109.529 193.828C109.572 193.644 109.645 193.541 109.747 193.518C109.88 193.502 109.973 193.452 110.025 193.368C110.236 192.739 110.7 192.344 111.418 192.183C112.166 192.029 112.8 192.017 113.319 192.148C113.839 192.278 114.072 192.458 114.019 192.688C113.987 192.826 113.857 192.964 113.631 193.102C113.548 193.178 113.347 193.347 113.027 193.608C112.738 193.876 112.448 194.218 112.157 194.632L111.643 195.379L111.177 195.92C110.377 197.132 109.716 198.159 109.196 199.003C108.675 199.846 108.035 200.928 107.274 202.246C107.118 202.499 107.018 202.718 106.975 202.902C106.921 203.132 106.956 203.262 107.078 203.293C107.139 203.308 107.206 203.3 107.278 203.27C107.391 203.201 107.499 203.155 107.601 203.132C107.9 202.963 108.147 202.806 108.342 202.66C108.58 202.476 108.832 202.295 109.1 202.119C109.224 202.004 109.3 202.023 109.329 202.176C109.369 202.284 109.337 202.422 109.233 202.59C109.024 202.928 108.879 203.135 108.796 203.212C108.755 203.25 108.698 203.284 108.627 203.315C108.555 203.346 108.369 203.518 108.069 203.833L107.757 204.339C107.674 204.416 107.555 204.58 107.398 204.834C107.284 205.048 107.221 205.179 107.21 205.225C107.189 205.317 107.147 205.355 107.086 205.34C107.036 205.278 106.928 205.324 106.763 205.478C106.721 205.516 106.685 205.604 106.652 205.742C106.651 205.888 106.609 205.999 106.526 206.076C106.463 206.206 106.391 206.31 106.308 206.386C106.236 206.417 106.195 206.455 106.184 206.501C106.11 206.678 106.022 206.778 105.92 206.801C105.859 206.785 105.787 206.816 105.704 206.893C105.674 206.885 105.648 206.927 105.626 207.019C105.54 207.387 105.472 207.541 105.422 207.479C105.371 207.418 105.3 207.449 105.206 207.571C105.102 207.74 105.004 207.813 104.912 207.79C104.707 207.836 104.615 207.886 104.635 207.94C104.655 207.993 104.69 208.051 104.74 208.112C104.801 208.127 104.739 208.185 104.554 208.285C104.452 208.308 104.343 208.427 104.228 208.641C104.124 208.81 104.031 208.933 103.948 209.009C103.866 209.086 103.773 209.136 103.671 209.159C103.568 209.182 103.47 209.255 103.377 209.378C103.005 209.723 102.712 209.869 102.498 209.815ZM116.297 212.683C116.174 212.652 116.067 212.625 115.976 212.602C115.894 212.533 115.813 212.464 115.732 212.395C115.448 212.227 115.205 212.02 115.003 211.775C114.832 211.537 114.729 211.146 114.694 210.602C114.717 210.364 114.711 210.046 114.674 209.648C114.668 209.257 114.688 208.896 114.732 208.567C114.755 208.329 114.804 208.049 114.88 207.727C114.903 207.49 114.957 207.187 115.043 206.819C115.089 206.344 115.155 205.922 115.241 205.554C115.357 205.194 115.475 204.76 115.593 204.254C115.711 203.748 115.812 203.384 115.896 203.162C116.054 202.763 116.133 202.564 116.133 202.564C116.143 202.518 116.197 202.288 116.294 201.874C116.453 201.329 116.602 200.758 116.742 200.16C116.881 199.562 117.009 199.083 117.126 198.723C117.539 197.366 117.517 196.63 117.058 196.515C116.875 196.469 116.603 196.523 116.244 196.676C116.181 196.807 116.098 196.883 115.996 196.907C115.935 196.891 115.832 196.914 115.689 196.976L115.411 197.125C115.4 197.171 115.364 197.187 115.303 197.171C115.253 197.11 115.217 197.125 115.195 197.217C115.183 197.409 115.141 197.52 115.069 197.551C115.028 197.589 114.987 197.555 114.947 197.448L114.314 197.873C114.303 197.919 114.236 198 114.112 198.115L114.05 198.172C113.885 198.326 113.756 198.391 113.665 198.368L113.479 198.541C113.468 198.587 113.416 198.671 113.322 198.794C113.27 198.878 113.189 198.882 113.077 198.805L112.767 199.093C112.58 199.338 112.436 199.473 112.333 199.496C112.262 199.526 112.174 199.553 112.072 199.576L111.544 200.174L111.344 200.198C111.301 200.382 111.099 200.623 110.738 200.922C110.408 201.229 110.181 201.44 110.057 201.555C109.933 201.67 109.825 201.716 109.733 201.693C109.672 201.678 109.652 201.624 109.674 201.532C109.684 201.486 109.804 201.321 110.032 201.038C110.197 200.884 110.461 200.585 110.824 200.14C111.217 199.703 111.423 199.511 111.443 199.565C111.65 199.373 111.811 199.17 111.925 198.955C112.051 198.695 112.212 198.491 112.407 198.346C112.397 198.392 112.386 198.438 112.375 198.484C112.406 198.491 112.421 198.495 112.421 198.495C112.482 198.511 112.586 198.415 112.731 198.208C112.887 197.955 112.975 197.855 112.995 197.908L114.016 197.069C114.027 197.023 114.125 196.95 114.31 196.85C114.454 196.789 114.541 196.762 114.572 196.769C114.602 196.777 114.711 196.658 114.897 196.413L115.299 196.148C115.351 196.064 115.376 196.094 115.375 196.24C115.414 196.347 115.455 196.382 115.496 196.343L115.747 195.895C115.84 195.772 115.958 195.68 116.102 195.619C116.287 195.519 116.472 195.419 116.658 195.319C117.153 194.859 117.493 194.652 117.676 194.698L117.86 194.744C118.311 194.613 118.705 194.59 119.041 194.674C119.531 194.797 119.848 195.168 119.995 195.789C120.024 195.942 120.026 196.211 120.001 196.594C120.052 196.655 120.051 196.728 119.999 196.812C119.988 196.858 119.987 196.931 119.996 197.031C120.006 197.131 120.04 197.261 120.099 197.422C120.17 197.537 120.189 197.663 120.157 197.801L120.124 197.939C120.081 198.123 119.967 198.265 119.782 198.365C119.892 198.587 119.927 198.717 119.885 198.756C119.885 198.756 119.854 198.821 119.791 198.951L119.474 199.894C119.368 200.209 119.264 200.45 119.159 200.619C119.066 200.742 118.946 200.979 118.799 201.332C118.857 201.639 118.814 201.823 118.67 201.884L118.578 201.861L118.468 202.126C118.447 202.218 118.456 202.317 118.495 202.425L118.261 202.804C118.303 202.766 118.318 202.77 118.307 202.816C118.338 202.823 118.353 202.827 118.353 202.827C118.301 202.911 118.212 203.084 118.087 203.345C117.972 203.559 117.883 203.732 117.82 203.862C117.736 204.085 117.648 204.184 117.556 204.161C117.465 204.138 117.407 204.246 117.384 204.483C117.404 204.537 117.382 204.702 117.317 204.978C117.294 205.216 117.252 205.327 117.191 205.311L116.906 206.116L116.858 206.323C116.804 206.553 116.72 206.776 116.605 206.991C116.521 207.213 116.436 207.435 116.352 207.658C116.268 207.88 116.178 208.125 116.083 208.394C116.03 208.624 115.976 208.854 115.922 209.084C115.88 209.268 115.831 209.475 115.778 209.705C115.765 209.896 115.753 210.088 115.741 210.28C115.73 210.326 115.744 210.475 115.782 210.728C115.82 210.981 115.833 211.13 115.823 211.176L115.912 211.418C115.962 211.479 116.054 211.502 116.187 211.487C116.351 211.479 116.452 211.529 116.492 211.636C116.757 211.751 117.157 211.632 117.692 211.279C118.269 210.888 118.81 210.439 119.317 209.933C119.441 209.818 119.549 209.772 119.64 209.795C119.702 209.81 119.731 209.89 119.73 210.036C119.728 210.182 119.655 210.358 119.509 210.565C118.773 211.501 118.143 212.122 117.618 212.429C117.104 212.69 116.664 212.774 116.297 212.683Z" fill="#E8C4E0"/>
<path d="M106.976 187.93C106.884 187.907 106.803 187.838 106.733 187.723C106.693 187.616 106.628 187.478 106.538 187.309C106.488 187.248 106.422 187.183 106.341 187.114C106.301 187.007 106.303 186.861 106.346 186.677C106.326 186.623 106.27 186.585 106.178 186.562C106.025 186.524 105.986 186.344 106.062 186.022C106.147 185.654 106.329 185.431 106.606 185.354L106.899 185.136L106.883 185.205L107.147 184.906L107.239 184.929C107.422 184.975 107.577 184.867 107.703 184.606C107.859 184.353 108.085 184.215 108.382 184.192C108.587 184.146 108.734 184.207 108.824 184.376C108.915 184.545 109.051 184.652 109.235 184.698C109.418 184.744 109.639 184.701 109.896 184.571L110.632 184.536C110.724 184.559 110.759 184.616 110.737 184.708C110.716 184.8 110.597 184.892 110.382 184.985C110.196 185.084 110.063 185.173 109.98 185.249L109.918 185.307L109.84 185.433L109.576 185.732C109.317 186.008 109.012 186.346 108.66 186.745C108.35 187.105 108.04 187.393 107.731 187.608C107.38 187.861 107.129 187.968 106.976 187.93ZM94.9327 207.921C94.7492 207.875 94.6951 207.691 94.7702 207.369C94.8238 207.139 94.9341 206.874 95.101 206.575C95.528 205.855 96.0608 204.819 96.6993 203.47C97.3684 202.128 98.0656 201.012 98.791 200.123C99.3634 199.195 99.9 198.282 100.401 197.385C100.942 196.45 101.469 195.51 101.98 194.567C101.98 194.567 101.955 194.537 101.905 194.475C101.896 194.376 101.902 194.28 101.923 194.188C101.783 193.958 101.643 193.655 101.504 193.28C101.406 192.866 101.477 192.494 101.716 192.164C101.798 192.087 101.855 192.053 101.885 192.061C101.916 192.068 101.931 192.072 101.931 192.072C101.942 192.026 101.932 191.999 101.902 191.992C101.912 191.946 101.918 191.923 101.918 191.923C101.961 191.739 102.049 191.639 102.182 191.623C102.315 191.608 102.392 191.554 102.413 191.462C102.625 190.834 103.104 190.442 103.852 190.289C104.6 190.135 105.234 190.123 105.754 190.253C106.274 190.383 106.507 190.563 106.453 190.793C106.432 190.885 106.303 191.023 106.065 191.208C105.952 191.277 105.751 191.445 105.462 191.714C105.173 191.982 104.883 192.323 104.592 192.738L104.032 193.474C103.98 193.558 103.907 193.662 103.814 193.784C103.762 193.869 103.694 193.949 103.612 194.026C102.811 195.238 102.151 196.265 101.63 197.109C101.11 197.952 100.469 199.033 99.7084 200.352C99.5829 200.613 99.5093 200.789 99.4879 200.881C99.4128 201.203 99.4975 201.395 99.7422 201.456C99.9257 201.502 100.125 201.479 100.341 201.387L100.864 201.225C101.834 200.397 102.797 199.737 103.753 199.246C103.784 199.254 103.799 199.258 103.799 199.258C103.84 199.219 103.876 199.204 103.907 199.212C103.999 199.235 104.038 199.342 104.026 199.534C104.024 199.679 103.967 199.787 103.854 199.856C102.795 200.37 101.75 201.106 100.717 202.065C100.665 202.149 100.613 202.234 100.561 202.318C100.509 202.402 100.441 202.483 100.359 202.56C100.276 202.636 100.147 202.774 99.9707 202.974C99.8253 203.181 99.7472 203.307 99.7365 203.353C99.6737 203.484 99.6171 203.518 99.5667 203.457C99.5468 203.403 99.439 203.449 99.2432 203.595C99.2019 203.633 99.1498 203.718 99.087 203.848C99.0549 203.986 99.0127 204.097 98.9607 204.182C98.8979 204.312 98.8099 204.412 98.6967 204.481C98.6248 204.511 98.5835 204.55 98.5728 204.596C98.4993 204.772 98.4113 204.872 98.3088 204.895C98.2476 204.88 98.1758 204.91 98.0931 204.987C98.0518 205.025 98.0357 205.094 98.0448 205.194C98.054 205.294 98.0172 205.382 97.9346 205.459C97.8718 205.589 97.8251 205.65 97.7945 205.643C97.7747 205.589 97.7235 205.6 97.6408 205.677C97.4756 205.831 97.3624 205.9 97.3012 205.884C97.0963 205.93 97.0037 205.98 97.0236 206.034C97.074 206.095 97.1091 206.153 97.129 206.206C97.1901 206.222 97.1282 206.279 96.9431 206.379C96.8712 206.41 96.7778 206.532 96.663 206.747C96.5589 206.916 96.4656 207.038 96.3829 207.115C96.2697 207.184 96.1619 207.23 96.0594 207.253C95.9875 207.284 95.8896 207.357 95.7657 207.472C95.3939 207.817 95.1162 207.967 94.9327 207.921Z" fill="#E8C4E0"/>
<path d="M61.7809 201.966C61.3238 201.706 60.856 201.491 60.3774 201.323C59.9294 201.162 59.493 200.883 59.068 200.484C58.906 200.346 58.7357 200.036 58.557 199.553C58.409 199.078 58.3159 198.714 58.2778 198.461C58.1909 198.001 58.1499 197.552 58.1547 197.116C58.1901 196.686 58.2768 196.245 58.4147 195.793C58.4774 195.663 58.5357 195.483 58.5893 195.253C58.7503 194.563 59.0542 193.884 59.5012 193.217C59.9481 192.55 60.3537 191.921 60.718 191.33L60.9039 191.158C61.4244 190.314 62.0787 189.383 62.8668 188.363C63.655 187.343 64.3444 186.468 64.9351 185.74C65.3499 185.211 65.7745 184.708 66.2091 184.233C66.6743 183.765 67.099 183.263 67.4831 182.726L68.6356 181.116L69.1015 180.575L69.2416 180.391C69.2523 180.345 69.2577 180.322 69.2577 180.322C69.299 180.283 69.3196 180.264 69.3196 180.264C70.0359 179.275 70.7423 178.259 71.4387 177.216C72.1657 176.181 72.7306 175.008 73.1336 173.697C73.1964 173.566 73.2591 173.436 73.3219 173.306C73.3847 173.175 73.4475 173.045 73.5102 172.915L73.5746 172.639C73.639 172.363 73.6935 172.06 73.738 171.73C73.7826 171.4 73.8362 171.17 73.899 171.04L73.9706 170.109C73.8102 169.825 73.7461 169.614 73.7783 169.476C73.8518 169.3 73.7373 169.028 73.4347 168.66L73.3156 168.338C73.2528 168.469 73.1603 168.518 73.0379 168.488C72.7933 168.427 72.6779 168.227 72.6919 167.89L72.3547 167.879C72.3563 167.733 72.1997 167.572 71.8847 167.396C71.6004 167.228 71.4223 167.159 71.3504 167.189L71.261 166.948C71.1693 166.925 71.047 166.894 70.8941 166.856C70.7825 166.779 70.6754 166.753 70.573 166.776C70.4598 166.845 70.3779 166.849 70.3275 166.787C70.2771 166.726 70.1907 166.68 70.0684 166.65C69.9766 166.627 69.8795 166.627 69.777 166.65C69.6746 166.673 69.5568 166.692 69.4237 166.707L69.1002 166.846C68.8035 166.869 68.451 166.854 68.0428 166.8C67.6758 166.708 67.3431 166.747 67.0448 166.916L67.0312 166.766L65.8176 166.974L65.4804 166.962C65.2019 167.185 65.052 167.342 65.0305 167.434C64.9876 167.618 65.0678 167.76 65.2711 167.859C65.4852 167.913 65.479 168.009 65.2526 168.147C64.965 168.27 64.6729 168.343 64.3762 168.366C64.0795 168.389 63.782 168.485 63.4837 168.654C63.3292 168.761 63.1747 168.868 63.0201 168.976C62.9069 169.045 62.764 169.034 62.5912 168.942L62.4214 169.045L61.6641 169.586C61.3996 169.471 61.0463 169.529 60.6042 169.759C60.1621 169.989 59.7919 170.189 59.4936 170.358L59.4799 170.208C59.408 170.239 59.3101 170.312 59.1862 170.427C59.0928 170.549 59.0048 170.649 58.9222 170.726L57.0406 171.716L56.9191 171.612L56.6069 172.118L56.5312 172.026C56.1395 172.318 55.7892 172.571 55.4802 172.786C55.2017 173.008 54.8911 173.369 54.5482 173.867L54.4009 174.707C54.5018 174.829 54.5927 174.925 54.6737 174.994C54.7853 175.071 54.8969 175.147 55.0085 175.224L55.1324 175.109C55.8144 175.377 56.4879 175.472 57.1532 175.395L57.183 175.476L57.5685 175.28L57.5822 175.429L58.9036 175.176L58.9334 175.256C59.1292 175.111 59.273 175.049 59.3647 175.072C59.4871 175.103 59.3317 175.283 58.8988 175.613C58.4658 175.943 58.0613 176.012 57.6852 175.82L57.4671 176.131L57.1001 176.039C57.1629 175.909 57.117 175.897 56.9625 176.005C56.8385 176.12 56.7766 176.177 56.7766 176.177C56.3361 176.262 55.9675 176.316 55.6708 176.339C55.3741 176.362 55.0729 176.335 54.7671 176.259C54.6447 176.228 54.4972 176.167 54.3244 176.075C54.1823 175.991 54.0194 175.926 53.8359 175.88L53.7901 175.868C53.7289 175.853 53.6471 175.857 53.5446 175.88C53.4727 175.911 53.3963 175.892 53.3153 175.823C52.892 175.279 52.7608 174.662 52.9218 173.972C53.1042 173.19 53.4908 172.434 54.0815 171.706C54.6722 170.977 55.2613 170.394 55.8488 169.957C56.4363 169.52 56.8164 169.347 56.9892 169.439L57.0994 169.174L57.5767 169.002L57.8406 168.703L57.8543 168.852L58.9834 167.966L59.0132 168.047L60.1077 167.517L60.1214 167.667C60.204 167.59 60.2866 167.513 60.3693 167.436C60.4825 167.367 60.4969 167.444 60.4127 167.666L60.8465 167.264L60.8763 167.344C61.3307 166.922 61.6344 166.731 61.7873 166.769C61.9708 166.815 62.2881 166.772 62.7393 166.642C63.0881 166.534 63.4422 166.404 63.8016 166.25C64.2024 166.058 64.5611 165.978 64.8776 166.008C65.0826 165.962 65.2516 165.931 65.3846 165.916C65.5177 165.901 65.6714 165.866 65.8458 165.812L65.8594 165.962C65.9726 165.893 66.1677 165.82 66.4445 165.743C66.7519 165.674 67.0387 165.624 67.3048 165.593C67.6122 165.524 67.7858 165.543 67.8255 165.65C67.8545 165.804 67.8995 165.888 67.9607 165.903C68.083 165.934 68.2061 165.892 68.3301 165.777C68.4846 165.669 68.6131 165.604 68.7156 165.581C68.8792 165.573 69.0222 165.585 69.1445 165.615C69.3082 165.607 69.4458 165.642 69.5574 165.718C69.5879 165.726 69.6545 165.718 69.7569 165.695C69.8288 165.665 69.9412 165.668 70.0941 165.707C70.3082 165.76 70.5421 165.867 70.7959 166.028C71.0497 166.189 71.2377 166.285 71.36 166.315L71.4518 166.338C71.5435 166.361 71.6559 166.365 71.789 166.35C71.9633 166.296 72.0605 166.296 72.0803 166.35C72.2316 166.533 72.4035 166.698 72.5962 166.844C72.7995 166.943 72.9768 167.085 73.1281 167.269C73.2381 167.491 73.3902 167.602 73.5844 167.602C73.8092 167.61 73.9315 167.64 73.9514 167.694C74.3425 168.376 74.6893 168.901 74.9919 169.269C75.3251 169.644 75.4959 170.368 75.5045 171.442C75.527 172.178 75.4578 172.891 75.2968 173.581C75.2217 173.903 75.116 174.217 74.9797 174.524C74.874 174.838 74.7477 175.171 74.6007 175.524C74.4231 175.869 74.2455 176.214 74.0679 176.559C73.9316 176.866 73.7899 177.196 73.6429 177.548C73.5694 177.725 73.3092 178.146 72.8623 178.814C72.4459 179.488 72.0143 180.159 71.5674 180.827C71.1312 181.448 70.8304 181.835 70.6652 181.988C70.3653 182.303 70.0393 182.659 69.6874 183.058C69.366 183.465 69.0599 183.875 68.7691 184.289C68.3544 184.818 67.945 185.324 67.541 185.808C67.1477 186.245 66.7284 186.724 66.2831 187.246C65.7965 187.805 65.3144 188.415 64.8369 189.075C64.3594 189.734 63.8819 190.394 63.4044 191.053C63.3003 191.222 63.1908 191.413 63.076 191.628C63.0025 191.804 62.8831 191.969 62.7179 192.123L62.672 192.111C62.6108 192.096 62.5129 192.169 62.3782 192.33C62.2849 192.453 62.2122 192.556 62.1601 192.641C62.1478 192.832 62.0061 193.162 61.7352 193.63C61.4948 194.105 61.2338 194.6 60.9521 195.113C60.6812 195.581 60.4937 195.899 60.3896 196.068C60.2334 196.321 60.1446 196.494 60.1232 196.586C60.1323 196.685 60.0947 196.846 60.0105 197.069C59.7546 198.027 59.823 198.774 60.2157 199.311C60.6282 199.901 61.0676 200.376 61.5339 200.736C61.6455 200.812 61.7471 200.862 61.8389 200.885C61.9505 200.962 62.0674 201.015 62.1897 201.046C62.679 201.168 63.1952 201.176 63.7381 201.068C64.2811 200.961 64.7476 200.834 65.1376 200.688C65.5475 200.596 65.7777 200.58 65.8281 200.642L66.0301 200.4C66.183 200.438 66.3161 200.423 66.4293 200.354C66.5731 200.292 66.7115 200.254 66.8446 200.239C66.9272 200.162 67.0144 200.135 67.1061 200.158C67.1673 200.173 67.1978 200.181 67.1978 200.181L67.5833 199.985L67.5536 199.905C67.575 199.813 67.6676 199.763 67.8312 199.755C68.0056 199.701 68.1081 199.678 68.1386 199.686L68.1708 199.548L68.7261 199.249C68.7674 199.21 68.798 199.218 68.8179 199.272C68.8485 199.279 68.8844 199.264 68.9257 199.226C69.1001 199.172 69.26 199.042 69.4054 198.835C69.5508 198.627 69.7053 198.52 69.8689 198.512C70.259 198.366 70.7531 198.052 71.3513 197.569C71.9909 197.047 72.6052 196.495 73.1943 195.912C73.814 195.337 74.2944 194.873 74.6357 194.52C74.7596 194.405 74.8736 194.263 74.9777 194.094C75.1124 193.933 75.2363 193.818 75.3495 193.749L79.1618 190.102C79.2857 189.987 79.4097 189.872 79.5336 189.757C79.6683 189.596 79.7724 189.427 79.8459 189.251C79.8459 189.251 79.9905 189.117 80.2796 188.848C80.5796 188.534 80.8948 188.223 81.2253 187.916C81.5665 187.563 81.7838 187.326 81.8771 187.203C81.9812 187.034 82.1374 186.781 82.3455 186.444C82.5644 186.06 82.6954 185.777 82.7383 185.593C82.7597 185.501 82.7353 185.397 82.6651 185.282C82.6055 185.121 82.5972 184.949 82.6401 184.765C82.7152 184.443 82.7544 184.136 82.7576 183.845C82.7716 183.508 82.8054 183.224 82.8591 182.994C82.9755 182.634 83.1485 182.239 83.3782 181.809C83.6078 181.38 83.8511 181.1 84.1081 180.97C84.2519 180.908 84.3544 180.885 84.4155 180.9L84.537 181.004C84.6197 180.927 84.6564 180.839 84.6473 180.739C84.6688 180.647 84.7055 180.559 84.7576 180.475L84.7898 180.337L84.8083 180.049C84.8206 179.858 84.8858 179.509 85.0039 179.003C85.1326 178.451 85.2507 177.945 85.358 177.485C85.476 176.979 85.5251 176.699 85.5053 176.645L85.5858 176.3C85.6362 176.362 85.7027 176.354 85.7853 176.277C85.8985 176.208 85.9704 176.178 86.001 176.185C86.0928 176.208 86.1172 176.312 86.0742 176.496C86.0925 176.695 86.0649 176.883 85.9913 177.059C85.9178 177.235 85.8596 177.416 85.8167 177.6C85.7738 177.784 85.7767 177.979 85.8255 178.186C85.8851 178.347 85.9087 178.523 85.8963 178.715C85.9055 178.815 85.8733 178.953 85.7998 179.129C85.7676 179.267 85.756 179.386 85.7652 179.485C85.7743 179.585 85.7987 179.689 85.8384 179.796C85.8781 179.903 85.9025 180.007 85.9116 180.106L85.8955 180.175C85.8741 180.267 85.8059 180.421 85.6911 180.635C85.5763 180.85 85.5127 181.053 85.5003 181.245C85.2916 182.556 85.2151 183.924 85.2709 185.35C85.2999 185.503 85.3342 185.634 85.3739 185.741C85.4442 185.856 85.4785 185.986 85.4769 186.132L85.4286 186.339C85.3766 186.423 85.3299 186.484 85.2886 186.523C85.2778 186.569 85.2618 186.638 85.2403 186.73C85.133 187.19 85.0876 187.592 85.1043 187.937C85.1622 188.244 85.2148 188.573 85.262 188.926L85.2298 189.064C85.1117 189.57 85.0503 190.041 85.0455 190.478C85.0712 190.923 85.1275 191.375 85.2144 191.835C85.2343 191.889 85.2075 192.004 85.1339 192.18C85.1017 192.318 85.0902 192.437 85.0993 192.537C85.1176 192.736 85.1565 192.916 85.216 193.077C85.2756 193.238 85.3045 193.391 85.3029 193.537C85.341 193.79 85.3279 194.054 85.2635 194.33C85.2297 194.614 85.2165 194.878 85.224 195.124C85.2423 195.323 85.2964 195.507 85.3866 195.676C85.4874 195.798 85.547 195.959 85.5652 196.158C85.6414 196.664 85.6961 197.262 85.7294 197.952C85.8039 198.604 85.9053 199.14 86.0335 199.562L86.0174 199.631C85.9745 199.815 85.9927 200.014 86.0721 200.229C86.1623 200.397 86.2317 200.585 86.2806 200.792C86.2897 200.892 86.2728 201.034 86.2298 201.218C86.2175 201.409 86.2419 201.513 86.3031 201.528C86.3642 201.543 86.3795 201.547 86.3489 201.539C86.3597 201.493 86.3956 201.478 86.4568 201.493L86.8165 202.241C86.8669 202.302 86.8814 202.379 86.86 202.471C86.8492 202.517 86.8538 202.566 86.8736 202.62C86.9241 202.681 86.9952 202.723 87.0869 202.746C87.1786 202.769 87.2183 202.877 87.206 203.068C87.2151 203.168 87.2639 203.375 87.3525 203.689C87.441 204.003 87.4952 204.187 87.515 204.241C87.5349 204.295 87.5601 204.325 87.5907 204.333C87.632 204.295 87.6625 204.302 87.6824 204.356C87.8643 204.547 87.9941 204.823 88.0719 205.184C88.1497 205.544 88.2956 205.751 88.5097 205.804L88.5555 205.816C88.6779 205.846 88.7956 205.827 88.9088 205.758C89.022 205.689 89.1245 205.666 89.2163 205.689C89.2667 205.75 89.2712 205.8 89.2299 205.838C89.2299 205.838 89.2605 205.846 89.3217 205.861C89.3828 205.877 89.4035 205.858 89.3836 205.804C89.3745 205.704 89.3952 205.685 89.4456 205.746C89.5068 205.762 89.5419 205.819 89.551 205.919C89.6015 205.98 89.6519 206.041 89.7023 206.103C89.8552 206.141 89.9784 206.099 90.0717 205.976C90.2064 205.815 90.3204 205.673 90.4138 205.55C90.4964 205.474 90.5629 205.466 90.6133 205.527C90.7051 205.55 90.7869 205.546 90.8588 205.516C90.9827 205.401 91.0914 205.282 91.1847 205.159C91.3087 205.044 91.4372 204.979 91.5702 204.963C91.6834 204.894 91.7867 204.798 91.8801 204.676C92.0255 204.469 92.1457 204.231 92.2406 203.963C92.3356 203.694 92.4198 203.472 92.4933 203.296C92.6462 203.334 92.7541 203.288 92.8169 203.157C93.0878 202.69 93.3389 202.168 93.5702 201.593L93.6804 201.329C93.7019 201.237 93.7027 201.164 93.6828 201.11C93.6936 201.064 93.7043 201.018 93.715 200.972L93.7633 200.765C93.817 200.535 93.8859 200.309 93.9702 200.087C94.0651 199.818 94.1494 199.596 94.2229 199.42C94.2626 199.527 94.3039 199.489 94.3468 199.305L95.2386 196.314C95.26 196.222 95.2555 196.173 95.2249 196.165C95.205 196.111 95.2005 196.062 95.2112 196.016C95.3309 195.364 95.3877 194.843 95.3818 194.452C95.3867 194.015 95.4283 193.49 95.5066 192.876C95.5082 192.731 95.5404 192.593 95.6032 192.462C95.666 192.332 95.6928 192.217 95.6837 192.117C95.7604 191.65 95.7636 191.358 95.6934 191.243C95.6537 191.136 95.6193 191.006 95.5904 190.852C95.592 190.707 95.6464 190.404 95.7537 189.944C95.7752 189.852 95.7715 189.729 95.7425 189.576C95.7135 189.423 95.6891 189.319 95.6693 189.266L95.4834 189.438C95.4469 189.04 95.441 188.649 95.4657 188.265C95.4904 187.882 95.4638 187.51 95.386 187.15C95.3662 187.096 95.3831 186.955 95.4367 186.725C95.521 186.502 95.5685 186.368 95.5792 186.322C95.5395 186.215 95.4738 186.15 95.382 186.127C95.3316 186.065 95.2865 185.981 95.2468 185.874C95.2699 185.636 95.2409 185.483 95.1599 185.414C95.1095 185.353 95.0599 185.218 95.011 185.011C94.9912 184.958 94.992 184.885 95.0135 184.793C95.0762 184.663 95.0931 184.521 95.0642 184.367C95.0443 184.314 94.9885 184.276 94.8968 184.253C94.8356 184.237 94.8005 184.18 94.7914 184.08C94.793 183.935 94.7442 183.728 94.6449 183.459C94.5762 183.199 94.4655 183.049 94.3125 183.011C94.2407 183.042 94.1787 183.099 94.1266 183.184C94.0746 183.268 94.0333 183.306 94.0027 183.299C93.8911 183.222 93.8002 183.126 93.7299 183.011C93.7009 182.858 93.6253 182.766 93.503 182.735C93.4418 182.72 93.3753 182.728 93.3034 182.759C93.2621 182.797 93.2108 182.808 93.1497 182.793C93.1191 182.786 93.1199 182.713 93.1521 182.575C93.2149 182.444 93.2157 182.372 93.1545 182.356L93.1086 182.345C93.0475 182.329 92.9656 182.333 92.8632 182.356C92.7607 182.379 92.6842 182.36 92.6338 182.299C92.7164 182.222 92.6966 182.169 92.5743 182.138C92.5238 182.077 92.5085 182.073 92.5284 182.127C92.5482 182.18 92.5276 182.199 92.4664 182.184C92.416 182.123 92.3664 181.989 92.3176 181.782C92.2993 181.582 92.2443 181.471 92.1526 181.448C92.1021 181.387 92.0869 181.383 92.1067 181.437C92.1266 181.491 92.1059 181.51 92.0447 181.494C91.9637 181.425 91.8934 181.31 91.8339 181.15C91.7743 180.989 91.714 180.9 91.6528 180.885C91.5917 180.87 91.5557 180.885 91.545 180.931C91.5756 180.939 91.5549 180.958 91.483 180.989L91.4235 180.828C91.3441 180.613 91.225 180.291 91.0662 179.862C90.9074 179.433 90.8602 179.08 90.9246 178.804C91.0195 178.536 91.1657 178.256 91.3632 177.965C91.5606 177.673 91.761 177.577 91.9643 177.677C92.0148 177.738 92.0598 177.822 92.0995 177.93C92.15 177.991 92.2004 178.052 92.2508 178.114L92.3884 178.148C92.4281 178.255 92.4571 178.409 92.4754 178.608C92.5242 178.815 92.5738 178.949 92.6242 179.01C92.6135 179.056 92.6342 179.037 92.6862 178.953C92.7688 178.876 92.8254 178.842 92.856 178.849C92.9172 178.865 92.9424 178.895 92.9316 178.941C92.9316 178.941 92.9416 178.968 92.9614 179.022C93.0532 179.045 93.161 178.999 93.2849 178.884C93.4196 178.723 93.5229 178.627 93.5948 178.596C93.656 178.611 93.6605 178.661 93.6085 178.745C93.5977 178.791 93.6023 178.841 93.6221 178.895L94.0672 178.86L94.1106 179.09C94.1917 179.159 94.2619 179.274 94.3215 179.435C94.3918 179.55 94.4575 179.615 94.5186 179.63C94.5691 179.692 94.5943 179.722 94.5943 179.722C94.6356 179.684 94.6715 179.669 94.7021 179.676C94.7633 179.692 94.8947 179.822 95.0965 180.067C95.2982 180.312 95.409 180.462 95.4288 180.515C95.4793 180.577 95.4991 180.63 95.4884 180.676C95.4776 180.722 95.4822 180.772 95.502 180.826L95.626 180.711L95.6694 180.941L95.8392 180.837L95.9784 182.113C96.0396 182.129 96.1008 182.144 96.1619 182.159C96.2644 182.136 96.3256 182.151 96.3454 182.205C96.376 182.213 96.3806 182.263 96.3591 182.355C96.3682 182.454 96.3827 182.531 96.4025 182.585C96.453 182.646 96.5844 182.776 96.7969 182.975C97.0093 183.174 97.1309 183.278 97.1614 183.286C97.2226 183.301 97.2433 183.282 97.2234 183.228C97.2341 183.182 97.2701 183.167 97.3312 183.182C97.3924 183.197 97.4275 183.255 97.4367 183.354C97.4458 183.454 97.4809 183.512 97.5421 183.527C97.6033 183.542 97.6185 183.546 97.588 183.538C97.5681 183.485 97.5888 183.465 97.6499 183.481C97.7111 183.496 97.7363 183.527 97.7256 183.573C97.7148 183.619 97.714 183.692 97.7232 183.791C97.7446 183.699 97.8219 183.645 97.9549 183.63C98.1186 183.622 98.2103 183.645 98.2302 183.699C98.2806 183.76 98.3707 183.929 98.5006 184.205C98.6717 184.442 98.716 184.599 98.6333 184.676C98.592 184.714 98.4635 184.78 98.2478 184.872C98.0429 184.918 97.9098 184.933 97.8487 184.918C97.7569 184.895 97.6706 184.849 97.5895 184.78C97.5085 184.711 97.4221 184.665 97.3304 184.642C97.2692 184.627 97.2333 184.642 97.2226 184.688C97.2424 184.742 97.2218 184.761 97.1606 184.746C97.0994 184.731 97.0436 184.692 96.9932 184.631C96.9535 184.524 96.8878 184.459 96.796 184.436C96.6431 184.397 96.4985 184.532 96.3623 184.838C96.3515 184.884 96.359 185.13 96.3848 185.574C96.4411 186.026 96.4921 186.502 96.5377 187C96.594 187.452 96.6213 187.751 96.6197 187.897C96.6058 188.234 96.5918 188.571 96.5779 188.909C96.5945 189.254 96.5752 189.614 96.5199 189.99C96.4984 190.082 96.4662 190.22 96.4233 190.404C96.3804 190.588 96.3688 190.706 96.3887 190.76C96.4085 190.814 96.4338 190.844 96.4643 190.852C96.5057 190.814 96.5309 190.844 96.54 190.944C96.5293 190.99 96.5185 191.036 96.5078 191.082C96.5276 191.136 96.5322 191.185 96.5215 191.231L96.441 191.576C96.4303 191.622 96.4088 191.714 96.3766 191.852C96.375 191.998 96.3932 192.197 96.4313 192.45L96.3669 192.726C96.2596 193.186 96.1775 193.677 96.1206 194.198C96.0745 194.674 96.0077 195.168 95.9202 195.682C95.8435 196.149 95.7362 196.609 95.5983 197.062C95.5017 197.476 95.3997 197.913 95.2924 198.373C95.2602 198.511 95.238 198.676 95.2256 198.867C95.224 199.013 95.2125 199.132 95.191 199.224C95.1588 199.362 95.1167 199.473 95.0647 199.557C95.0126 199.642 94.9759 199.73 94.9544 199.822C94.8809 199.998 94.8173 200.201 94.7637 200.431C94.7207 200.615 94.6778 200.799 94.6349 200.983C94.5506 201.206 94.3929 201.604 94.1617 202.179C93.9411 202.708 93.7735 203.08 93.6586 203.295C93.6173 203.333 93.5661 203.345 93.5049 203.33C93.4744 203.322 93.4483 203.364 93.4269 203.456C93.26 203.755 93.1031 204.081 92.9561 204.434C92.8198 204.74 92.6376 205.036 92.4096 205.319C92.1188 205.733 91.8036 206.044 91.464 206.251C91.1657 206.42 90.8666 206.662 90.5666 206.976C90.322 206.915 90.0757 206.999 89.8279 207.229C89.5692 207.506 89.3176 207.613 89.073 207.552C88.9506 207.521 88.8796 207.479 88.8597 207.425C88.8399 207.372 88.7527 207.399 88.5982 207.506L88.5547 207.276C88.3481 207.468 88.199 207.552 88.1072 207.529C88.0155 207.506 87.9291 207.46 87.8481 207.391C87.7977 207.33 87.7167 207.261 87.6051 207.185L87.486 206.863L87.2703 206.955C87.1099 206.671 86.9395 206.361 86.7593 206.024C86.5683 205.732 86.3719 205.464 86.1702 205.219L85.8354 204.989C85.7957 204.882 85.7515 204.725 85.7027 204.518C85.6538 204.311 85.5988 204.2 85.5377 204.185C85.5178 204.131 85.4873 204.123 85.4459 204.162C85.4352 204.208 85.4046 204.2 85.3542 204.139C85.3236 204.131 85.2579 204.066 85.157 203.943C85.0669 203.775 84.9966 203.66 84.9462 203.598C84.9677 203.506 84.9685 203.434 84.9486 203.38C84.9395 203.28 84.8845 203.169 84.7836 203.047C84.7241 202.886 84.6691 202.774 84.6187 202.713C84.5393 202.499 84.4652 202.261 84.3966 202C84.3386 201.694 84.2493 201.452 84.1286 201.276C84.1715 201.092 84.1831 200.973 84.1632 200.92C83.9266 200.13 83.7434 199.598 83.6136 199.322C83.5251 199.007 83.4146 198.371 83.2821 197.413C83.2638 197.214 83.2303 197.011 83.1815 196.804C83.1632 196.604 83.1243 196.424 83.0648 196.263C83.016 196.056 82.9824 195.853 82.9642 195.654C82.9277 195.255 82.9218 194.864 82.9465 194.481C82.9819 194.052 82.9814 193.638 82.9449 193.239C82.9176 192.94 82.8696 192.66 82.8009 192.4C82.743 192.093 82.7156 191.794 82.7188 191.503C82.7312 191.311 82.7382 191.143 82.7398 190.997C82.7414 190.851 82.7331 190.679 82.7148 190.48L82.5571 189.491C82.5496 189.246 82.5475 188.977 82.5507 188.686C82.5647 188.349 82.5733 188.034 82.5765 187.743L81.0112 189.25C80.6394 189.595 80.2316 189.956 79.7879 190.332C79.3549 190.662 78.9877 191.056 78.6861 191.517C78.4994 191.762 78.2974 192.004 78.0801 192.241C77.8628 192.479 77.6509 192.694 77.4443 192.886C76.6272 193.752 75.6043 194.738 74.3757 195.842C73.1776 196.954 71.9498 197.986 70.6922 198.937C69.4759 199.85 68.3897 200.552 67.4336 201.043C67.2898 201.105 67.1361 201.139 66.9725 201.147C66.8287 201.208 66.6643 201.289 66.4792 201.389C66.3965 201.465 66.33 201.473 66.2796 201.412L65.8023 201.585C65.8238 201.493 65.7267 201.493 65.511 201.585C65.3259 201.684 65.1974 201.75 65.1255 201.78L64.8181 201.85L64.7883 201.769L64.2033 201.988L64.1735 201.907C64.1123 201.892 64.0412 201.85 63.9602 201.781C63.8991 201.766 63.8272 201.796 63.7445 201.873L63.7284 201.942C63.5326 202.088 63.3277 202.134 63.1136 202.08C62.8995 202.027 62.7053 202.027 62.5309 202.081L63.1048 201.494L61.7809 201.966Z" fill="#E8C4E0"/>
<defs>
<linearGradient id="paint0_linear_661_2" x1="160.708" y1="7.09152" x2="120.787" y2="125.906" gradientUnits="userSpaceOnUse">
<stop offset="0.13" stop-color="#FF9602"/>
<stop offset="0.9999" stop-color="#1F5CEA"/>
</linearGradient>
<linearGradient id="paint1_linear_661_2" x1="130.566" y1="96.9851" x2="63.8682" y2="295.492" gradientUnits="userSpaceOnUse">
<stop stop-color="#4F7ADF"/>
<stop offset="1" stop-color="#FF9602"/>
</linearGradient>
</defs>
</svg>
