<svg width="172" height="175" viewBox="0 0 172 175" fill="none" xmlns="http://www.w3.org/2000/svg">
<path d="M124.497 46.8025C190.284 118.897 171.153 143.533 163.089 153.917C151.519 168.817 128.587 198.349 53.3248 138.457C-40.4258 89.3785 13.9912 71.2823 34.71 44.6011C55.4289 17.92 57.4712 -41.0229 124.497 46.8025Z" fill="url(#paint0_linear_661_2)"/>
<path d="M79.5825 119.53C77.2798 117.569 76.3837 116.571 76.8428 113.092C77.5617 107.645 79.0223 101.187 84.461 99.0105C87.9689 97.6068 91.3959 97.4605 94.4257 99.9407C97.0579 102.095 99.168 104.134 99.5506 107.842C100.08 112.977 98.6206 119.707 93.6243 121.748C89.2516 123.535 84.5194 124.127 80.7298 120.9" stroke="#E8C4E0" stroke-linecap="round"/>
<path d="M75.4077 116.364C71.81 113.301 67.2693 111.688 63.3795 109.048C51.6072 101.057 49.9598 83.568 52.6178 69.9921C53.9222 63.3302 54.9325 52.4376 63.1511 51.4711C66.2832 51.1027 69.2846 52.5673 71.7693 54.3989C74.9619 56.7524 78.2746 59.4923 81.0864 62.3326C88.288 69.6069 90.5792 79.5977 91.0482 89.7897C91.1378 91.7357 90.7023 93.0268 90.2329 94.7944C89.6021 97.1698 89.4522 94.2285 89.765 93.1296C90.6227 90.1168 91.1732 87.0338 92.0682 84.0205C92.8193 81.4919 93.7627 79.9137 95.3431 77.8786C100.215 71.6052 110.017 71.7802 116.762 73.3651C122.759 74.7741 128.662 78.2438 133.111 82.6574C137.585 87.0953 139.422 94.0397 139.953 100.318C140.225 103.54 139.847 107.196 137.927 109.86C136.819 111.398 135.668 113.133 133.944 113.935C131.718 114.971 129.101 115.531 126.729 116.002C120.792 117.18 114.244 117.681 108.316 116.459C106.839 116.155 105.358 115.514 104.05 114.835C103.36 114.477 102.181 114.031 101.443 113.947C101.302 113.931 100.002 113.125 100.28 113.547C100.892 114.474 102.215 115.216 103.03 115.911C104.69 117.324 106.35 118.737 108.009 120.15C112.032 123.575 114.985 128.565 117.412 133.353C118.385 135.275 119.666 137.172 119.157 139.49C118.614 141.958 117.667 143.57 116.146 145.529C114.761 147.312 113.376 149.095 111.992 150.878C110.339 153.006 108.752 155.681 106.523 157.183C103.785 159.028 101.005 158.295 98.0496 157.654C95.4501 157.09 93.1717 156.915 90.8476 155.539C86.8853 153.193 85.7244 149.501 84.7399 145.054C83.8855 141.194 82.8431 137.514 82.2663 133.58C82.0278 131.954 81.3529 129.535 81.8873 127.952C82.0847 127.367 82.8796 125.725 82.5052 126.207C81.9492 126.923 81.5353 127.515 80.7234 127.921C77.5598 129.507 74.5362 131.388 71.362 132.964C67.7422 134.761 64.6689 137.242 60.7931 138.506C53.2934 140.953 45.4951 132.548 47.0515 124.644C47.6626 121.54 49.7003 118.622 51.5778 116.205C52.8979 114.505 54.974 114.571 56.6891 113.788C58.0797 113.153 60.0137 112.197 61.4907 111.981C63.0076 111.759 64.5433 111.472 66.0835 111.656C66.7809 111.74 67.7224 111.392 68.2396 111.833" stroke="#E8C4E0" stroke-linecap="round"/>
<path d="M78.4296 25.5879C76.1414 28.5346 74.6498 32.1354 72.5039 35.2126C70.3239 38.3386 67.9136 41.6229 64.9538 43.9549C62.2493 46.0858 59.2427 47.5291 56.061 48.6577C51.9979 50.0989 46.8132 48.9774 44.7927 44.8009C44.3097 43.8025 44.06 42.7748 43.7411 41.7265C43.3711 40.5103 43.8645 38.9293 43.7509 37.6612C43.659 36.635 43.6093 35.4713 43.7886 34.4588C43.872 33.9879 44.1344 33.731 44.1545 33.1869C44.1822 32.4381 44.1232 31.9048 44.3849 31.1906" stroke="#E8C4E0" stroke-linecap="round"/>
<path d="M126.143 131.368C124.655 130.101 123.051 128.91 121.655 127.533C120.667 126.559 120.481 124.07 120.648 122.775C121.069 119.513 123.482 117.022 125.392 114.562" stroke="#E8C4E0" stroke-linecap="round"/>
<defs>
<linearGradient id="paint0_linear_661_2" x1="29.8522" y1="42.1707" x2="167.102" y2="148.75" gradientUnits="userSpaceOnUse">
<stop stop-color="#A6BFDD"/>
<stop offset="1" stop-color="#4F7ADF"/>
</linearGradient>
</defs>
</svg>
