<svg width="245" height="304" viewBox="0 0 245 304" fill="none" xmlns="http://www.w3.org/2000/svg">
<path d="M0.62207 26.4775L35.5006 0.781529L99.0008 95.9948L64.1222 121.691L0.62207 26.4775Z" fill="url(#paint0_linear_661_2)"/>
<path d="M204.171 140.857C238.482 192.304 279.258 222.883 191.652 271.738C124.767 340.069 103.669 282.089 73.6222 237.036C43.5752 191.983 6.64582 153.232 77.7039 100.882C148.762 48.5313 174.124 95.8042 204.171 140.857Z" fill="url(#paint1_linear_661_2)"/>
<path d="M165.697 176.704C165.093 177.225 164.357 177.43 163.488 177.318C162.619 177.205 161.687 176.531 160.692 175.295C160.312 174.823 159.968 174.319 159.66 173.784C159.323 173.213 159.012 172.649 158.729 172.093C158.397 171.579 158.133 171.098 157.937 170.651C157.844 170.485 157.797 170.402 157.797 170.402C157.792 170.345 157.809 170.238 157.847 170.082L157.61 169.177L157.435 168.959C157.41 168.98 157.398 168.991 157.398 168.991C157.369 168.954 157.354 168.936 157.354 168.936C157.267 168.827 157.225 168.648 157.228 168.398C157.232 168.148 157.234 168.023 157.234 168.023C157.112 167.821 157.075 167.699 157.123 167.657C157.172 167.615 157.188 167.508 157.173 167.337L157.572 166.992L157.484 166.883C157.338 166.702 157.219 166.681 157.127 166.822C157.03 166.905 156.967 166.929 156.938 166.893C156.909 166.856 156.887 166.752 156.871 166.581C156.851 166.352 156.838 166.209 156.833 166.152C156.789 165.944 156.747 165.764 156.707 165.613C156.638 165.426 156.623 165.255 156.661 165.098C156.453 163.923 156.309 163.185 156.23 162.883C156.175 162.561 156.164 162.293 156.197 162.08C156.246 162.038 156.311 162.043 156.394 162.095C156.471 162.089 156.515 162.144 156.525 162.258C156.662 162.326 156.712 162.313 156.678 162.219C156.668 162.105 156.663 162.047 156.663 162.047L156.72 161.813C156.613 161.782 156.516 161.712 156.428 161.603C156.282 161.421 156.189 161.255 156.149 161.104C156.081 160.917 156.048 160.699 156.052 160.449C156.08 160.179 156.079 160.025 156.05 159.989C156.136 159.791 156.187 159.624 156.201 159.489C156.239 159.333 156.306 159.213 156.403 159.13C156.572 158.984 156.814 158.928 157.13 158.964C157.881 158.931 158.561 158.961 159.167 159.053C159.774 159.145 160.341 159.518 160.868 160.172C161.424 160.863 161.713 161.629 161.736 162.472C161.754 163.258 161.629 164.043 161.361 164.83C161.092 165.616 160.78 166.347 160.424 167.025C160.063 167.645 159.781 168.134 159.579 168.494C159.439 168.676 159.442 168.858 159.589 169.04C159.73 169.164 159.849 169.338 159.947 169.562L160.176 170.381L160.573 171.332L160.787 171.979C160.794 172.343 160.865 172.559 161.001 172.626C161.137 172.693 161.207 172.602 161.211 172.352C161.264 172.368 161.32 172.412 161.379 172.485C161.496 172.63 161.618 172.833 161.745 173.092C161.843 173.316 161.924 173.493 161.988 173.622C162.08 173.789 162.139 173.861 162.163 173.841C162.182 173.762 162.265 173.814 162.411 173.996L163.062 174.728C163.763 175.293 164.411 175.411 165.006 175.082C165.055 175.04 165.117 175.017 165.195 175.012C165.268 174.949 165.328 174.897 165.376 174.855C165.811 174.479 165.997 174.227 165.933 174.097C165.894 173.946 165.896 173.821 165.939 173.722C166.098 173.462 166.221 173.233 166.307 173.035C166.418 172.816 166.499 172.561 166.551 172.269C166.695 171.837 166.783 171.361 166.814 170.841C166.846 170.32 166.89 169.79 166.946 169.249L167.001 168.554C166.967 168.46 166.923 168.406 166.869 168.39C166.816 168.375 166.787 168.339 166.781 168.281C166.801 168.203 166.837 168.172 166.89 168.187C166.939 168.146 166.96 168.096 166.955 168.039C166.974 167.961 166.979 167.865 166.968 167.75C166.929 167.599 166.904 167.467 166.894 167.352C166.884 167.238 166.849 167.144 166.791 167.072C166.757 166.978 166.734 166.874 166.724 166.76C166.683 166.302 166.628 165.826 166.558 165.332C166.512 164.817 166.459 164.37 166.399 163.99C166.276 163.481 166.262 163.184 166.359 163.101C166.407 163.059 166.461 163.075 166.519 163.147C166.666 163.329 166.801 163.675 166.924 164.184C167.245 165.448 167.49 166.745 167.661 168.076C167.802 169.371 167.837 170.635 167.765 171.868C167.686 172.737 167.479 173.625 167.143 174.531C166.807 175.437 166.325 176.161 165.697 176.704ZM159.174 167.457C159.508 167.107 159.862 166.555 160.237 165.8C160.583 165.008 160.759 164.209 160.765 163.403C160.766 162.54 160.518 161.799 160.021 161.181C159.552 160.599 158.894 160.213 158.044 160.023C157.998 160.679 158.048 161.529 158.193 162.574C158.333 163.562 158.509 164.519 158.722 165.445C158.905 166.334 159.056 167.005 159.174 167.457Z" fill="#E8C4E0"/>
<path d="M150.188 190.188C150.043 190.313 149.868 190.248 149.663 189.994C149.517 189.812 149.377 189.563 149.245 189.246C148.941 188.461 148.468 187.39 147.827 186.034C147.186 184.678 146.736 183.433 146.479 182.3L144.074 176.336C144.074 176.336 144.036 176.339 143.958 176.344C143.851 176.313 143.769 176.261 143.71 176.188C143.448 176.168 143.13 176.104 142.756 175.996C142.377 175.83 142.131 175.55 142.017 175.155C142.007 175.04 142.014 174.973 142.038 174.952C142.063 174.931 142.075 174.92 142.075 174.92L141.987 174.811C141.87 174.666 141.833 174.544 141.876 174.445C141.944 174.325 141.96 174.218 141.926 174.125C141.564 173.574 141.535 172.953 141.838 172.26C142.165 171.547 142.533 171.013 142.944 170.658C143.355 170.303 143.633 170.217 143.78 170.398C143.868 170.507 143.897 170.697 143.87 170.968C143.88 171.082 143.891 171.35 143.902 171.771C143.938 172.172 144.029 172.616 144.177 173.105L144.45 173.978L144.591 174.688C145.053 176.076 145.456 177.238 145.799 178.173C146.143 179.109 146.599 180.286 147.168 181.705C147.271 181.986 147.381 182.199 147.498 182.344C147.644 182.526 147.766 182.575 147.863 182.491C147.911 182.45 147.945 182.39 147.964 182.312C147.978 182.176 148.006 182.059 148.049 181.96C148.097 181.612 148.122 181.312 148.126 181.063C148.124 180.756 148.135 180.438 148.158 180.111C148.143 179.939 148.203 179.887 148.339 179.954C148.446 179.985 148.534 180.094 148.603 180.281C148.74 180.655 148.814 180.9 148.824 181.014C148.829 181.071 148.822 181.139 148.803 181.217C148.784 181.295 148.807 181.553 148.872 181.99L149.078 182.551C149.088 182.665 149.145 182.863 149.248 183.144C149.346 183.367 149.409 183.497 149.439 183.533C149.497 183.606 149.502 183.663 149.454 183.705C149.376 183.71 149.348 183.827 149.368 184.056C149.373 184.113 149.42 184.197 149.508 184.306C149.619 184.394 149.681 184.495 149.691 184.609C149.754 184.739 149.791 184.862 149.801 184.976C149.782 185.054 149.787 185.111 149.817 185.148C149.91 185.314 149.934 185.446 149.891 185.545C149.843 185.587 149.824 185.665 149.834 185.78C149.81 185.8 149.827 185.847 149.886 185.92C150.12 186.211 150.198 186.359 150.12 186.364C150.043 186.37 150.024 186.448 150.063 186.598C150.132 186.786 150.13 186.91 150.057 186.973C149.971 187.171 149.954 187.278 150.008 187.293C150.061 187.309 150.127 187.314 150.204 187.308C150.253 187.266 150.26 187.352 150.227 187.566C150.184 187.665 150.211 187.826 150.309 188.049C150.378 188.236 150.418 188.387 150.428 188.502C150.438 188.616 150.421 188.723 150.378 188.822C150.335 188.921 150.333 189.045 150.373 189.196C150.418 189.711 150.357 190.042 150.188 190.188ZM160.638 180.424C160.541 180.507 160.457 180.58 160.384 180.643C160.282 180.669 160.181 180.696 160.079 180.722C159.779 180.858 159.473 180.937 159.163 180.958C158.877 180.959 158.513 180.811 158.07 180.516C157.899 180.355 157.649 180.171 157.318 179.964C157.011 179.736 156.744 179.505 156.515 179.271C156.344 179.11 156.157 178.903 155.952 178.648C155.781 178.487 155.579 178.262 155.345 177.971C155.004 177.649 154.716 177.343 154.482 177.052C154.272 176.741 154.007 176.385 153.685 175.985C153.363 175.585 153.141 175.284 153.019 175.081C152.804 174.713 152.696 174.528 152.696 174.528C152.667 174.492 152.521 174.31 152.257 173.983C151.93 173.526 151.577 173.061 151.196 172.589C150.816 172.116 150.521 171.724 150.311 171.413C149.505 170.26 148.922 169.84 148.559 170.153C148.414 170.278 148.294 170.536 148.199 170.926C148.262 171.056 148.272 171.17 148.229 171.269C148.181 171.311 148.138 171.41 148.1 171.566L148.05 171.886C148.079 171.923 148.07 171.962 148.021 172.003C147.944 172.009 147.934 172.048 147.993 172.12C148.134 172.245 148.195 172.346 148.176 172.424C148.181 172.482 148.13 172.495 148.023 172.464L147.976 173.244C148.005 173.281 148.027 173.385 148.043 173.556L148.05 173.642C148.071 173.871 148.045 174.017 147.972 174.079L147.995 174.337C148.024 174.373 148.059 174.467 148.098 174.617C148.132 174.711 148.087 174.781 147.961 174.828L147.999 175.257C148.078 175.559 148.096 175.759 148.052 175.858C148.033 175.936 148.002 176.025 147.959 176.124L148.108 176.919L148.007 177.099C148.124 177.244 148.191 177.556 148.207 178.035C148.248 178.493 148.276 178.807 148.291 178.979C148.307 179.15 148.278 179.268 148.206 179.33C148.157 179.372 148.104 179.356 148.045 179.284C148.016 179.247 147.959 179.05 147.875 178.691C147.855 178.462 147.781 178.064 147.652 177.498C147.548 176.91 147.522 176.624 147.576 176.64C147.55 176.354 147.488 176.099 147.39 175.875C147.263 175.615 147.201 175.361 147.205 175.111C147.234 175.147 147.264 175.184 147.293 175.22C147.317 175.199 147.329 175.189 147.329 175.189C147.378 175.147 147.365 175.004 147.291 174.76C147.188 174.479 147.163 174.346 147.217 174.362L147.174 173.012C147.145 172.976 147.147 172.851 147.18 172.637C147.218 172.481 147.249 172.393 147.273 172.372C147.298 172.351 147.27 172.19 147.191 171.888L147.226 171.397C147.191 171.303 147.23 171.3 147.342 171.389C147.449 171.419 147.5 171.406 147.495 171.349L147.296 170.874C147.257 170.723 147.256 170.569 147.294 170.413C147.327 170.2 147.36 169.986 147.393 169.773C147.332 169.087 147.374 168.681 147.519 168.556L147.664 168.43C147.832 167.977 148.049 167.636 148.315 167.407C148.701 167.073 149.179 167.03 149.747 167.278C149.883 167.346 150.093 167.504 150.375 167.753C150.453 167.747 150.509 167.791 150.543 167.885C150.572 167.921 150.628 167.965 150.711 168.017C150.794 168.069 150.915 168.118 151.075 168.165C151.206 168.175 151.316 168.234 151.404 168.343L151.491 168.452C151.608 168.598 151.65 168.777 151.617 168.99C151.855 169.031 151.977 169.081 151.982 169.138C151.982 169.138 152.014 169.203 152.077 169.333L152.619 170.159C152.8 170.434 152.925 170.665 152.993 170.852C153.033 171.003 153.145 171.245 153.331 171.577C153.603 171.712 153.72 171.857 153.682 172.013L153.61 172.076L153.749 172.325C153.808 172.398 153.89 172.45 153.997 172.481L154.152 172.902C154.147 172.844 154.159 172.834 154.188 172.87C154.212 172.849 154.224 172.839 154.224 172.839C154.259 172.933 154.339 173.109 154.467 173.369C154.565 173.592 154.645 173.769 154.709 173.899C154.831 174.102 154.856 174.234 154.783 174.297C154.711 174.359 154.76 174.471 154.93 174.632C154.984 174.648 155.098 174.764 155.274 174.982C155.444 175.143 155.505 175.245 155.457 175.286L155.911 176.003L156.043 176.167C156.189 176.348 156.311 176.551 156.409 176.774C156.532 176.977 156.654 177.18 156.776 177.382C156.898 177.585 157.035 177.806 157.186 178.044C157.332 178.226 157.479 178.408 157.625 178.59C157.742 178.735 157.874 178.899 158.02 179.08C158.161 179.205 158.302 179.329 158.444 179.454C158.473 179.49 158.597 179.568 158.816 179.687C159.035 179.806 159.159 179.884 159.188 179.92L159.428 179.99C159.506 179.985 159.578 179.922 159.646 179.802C159.737 179.661 159.836 179.607 159.943 179.638C160.19 179.486 160.336 179.083 160.382 178.427C160.423 177.714 160.398 176.996 160.307 176.273C160.292 176.102 160.321 175.985 160.393 175.922C160.441 175.88 160.522 175.904 160.633 175.992C160.745 176.08 160.838 176.246 160.912 176.49C161.198 177.66 161.304 178.555 161.229 179.174C161.125 179.757 160.928 180.174 160.638 180.424Z" fill="#E8C4E0"/>
<path d="M135.893 173.419C135.82 173.481 135.718 173.507 135.587 173.497C135.481 173.466 135.335 173.438 135.15 173.413C135.073 173.418 134.983 173.434 134.881 173.46C134.775 173.429 134.663 173.341 134.546 173.195C134.492 173.18 134.429 173.204 134.357 173.266C134.236 173.371 134.073 173.295 133.868 173.041C133.634 172.75 133.57 172.467 133.675 172.191L133.681 171.816L133.725 171.871L133.651 171.473L133.723 171.411C133.868 171.285 133.877 171.093 133.75 170.833C133.647 170.552 133.675 170.282 133.833 170.021C133.92 169.823 134.055 169.737 134.24 169.763C134.424 169.788 134.589 169.739 134.734 169.613C134.879 169.488 134.978 169.28 135.03 168.988L135.442 168.355C135.514 168.293 135.58 168.298 135.638 168.37C135.697 168.443 135.697 168.597 135.64 168.831C135.607 169.044 135.596 169.208 135.606 169.323L135.614 169.408L135.665 169.549L135.74 169.946C135.799 170.326 135.879 170.781 135.978 171.311C136.072 171.785 136.111 172.214 136.093 172.599C136.08 173.041 136.013 173.314 135.893 173.419ZM144.209 195.349C144.064 195.474 143.889 195.41 143.684 195.155C143.538 194.974 143.398 194.724 143.266 194.407C142.962 193.622 142.477 192.562 141.812 191.227C141.171 189.871 140.721 188.626 140.464 187.492C140.086 186.463 139.699 185.473 139.302 184.522C138.9 183.514 138.486 182.516 138.059 181.529C138.059 181.529 138.021 181.531 137.943 181.537C137.86 181.485 137.79 181.423 137.731 181.35C137.469 181.33 137.151 181.266 136.777 181.157C136.398 180.992 136.152 180.711 136.039 180.316C136.028 180.202 136.035 180.134 136.06 180.113C136.084 180.093 136.096 180.082 136.096 180.082C136.067 180.046 136.04 180.038 136.016 180.059C135.986 180.023 135.972 180.004 135.972 180.004C135.855 179.859 135.83 179.726 135.897 179.607C135.965 179.487 135.969 179.39 135.911 179.318C135.549 178.767 135.532 178.135 135.859 177.422C136.186 176.708 136.554 176.174 136.965 175.819C137.376 175.465 137.655 175.378 137.801 175.56C137.859 175.633 137.889 175.822 137.891 176.129C137.877 176.265 137.888 176.532 137.923 176.933C137.959 177.333 138.051 177.778 138.198 178.267L138.435 179.171C138.469 179.265 138.506 179.387 138.546 179.538C138.58 179.631 138.602 179.735 138.612 179.85C139.074 181.238 139.477 182.399 139.821 183.335C140.164 184.27 140.62 185.448 141.189 186.866C141.316 187.126 141.409 187.293 141.468 187.365C141.673 187.62 141.872 187.663 142.065 187.496C142.21 187.371 142.311 187.192 142.368 186.957L142.555 186.426C142.491 185.126 142.554 183.932 142.744 182.844C142.768 182.823 142.78 182.813 142.78 182.813C142.775 182.756 142.784 182.717 142.808 182.696C142.881 182.633 142.988 182.664 143.129 182.789C143.241 182.877 143.29 182.988 143.276 183.124C143.043 184.31 142.991 185.619 143.118 187.049C143.152 187.143 143.187 187.236 143.221 187.33C143.256 187.423 143.278 187.527 143.288 187.642C143.298 187.756 143.328 187.946 143.378 188.211C143.452 188.456 143.503 188.596 143.532 188.632C143.596 188.762 143.589 188.83 143.511 188.835C143.458 188.82 143.429 188.937 143.426 189.186C143.431 189.244 143.465 189.337 143.529 189.467C143.616 189.576 143.678 189.677 143.712 189.771C143.775 189.901 143.8 190.034 143.786 190.169C143.767 190.247 143.772 190.304 143.802 190.34C143.895 190.507 143.919 190.639 143.876 190.738C143.828 190.78 143.809 190.858 143.819 190.972C143.824 191.03 143.868 191.084 143.951 191.136C144.033 191.188 144.08 191.271 144.09 191.385C144.154 191.515 144.173 191.591 144.149 191.612C144.096 191.596 144.074 191.646 144.084 191.76C144.105 191.989 144.091 192.124 144.042 192.166C143.956 192.364 143.939 192.47 143.993 192.486C144.07 192.481 144.136 192.486 144.189 192.501C144.238 192.459 144.245 192.545 144.212 192.759C144.193 192.837 144.233 192.987 144.331 193.211C144.399 193.398 144.439 193.549 144.449 193.663C144.435 193.798 144.406 193.916 144.363 194.014C144.344 194.093 144.342 194.217 144.357 194.389C144.403 194.904 144.354 195.224 144.209 195.349Z" fill="#E8C4E0"/>
<path d="M119.826 219.365C119.351 219.589 118.906 219.851 118.49 220.148C118.099 220.425 117.622 220.621 117.059 220.737C116.856 220.789 116.514 220.746 116.033 220.607C115.576 220.446 115.238 220.307 115.02 220.188C114.611 219.986 114.239 219.753 113.903 219.488C113.592 219.203 113.302 218.868 113.033 218.483C112.97 218.354 112.865 218.198 112.718 218.016C112.279 217.471 111.935 216.814 111.684 216.044C111.433 215.275 111.188 214.563 110.947 213.908L110.924 213.651C110.581 212.715 110.249 211.615 109.928 210.352C109.607 209.089 109.341 207.994 109.128 207.069C108.965 206.409 108.829 205.756 108.719 205.111C108.634 204.446 108.498 203.793 108.311 203.154L107.75 201.235L107.608 200.526L107.549 200.299C107.52 200.263 107.505 200.245 107.505 200.245C107.5 200.188 107.498 200.159 107.498 200.159C107.158 198.974 106.791 197.781 106.398 196.58C106.029 195.358 105.456 194.189 104.68 193.073C104.617 192.943 104.553 192.813 104.49 192.683C104.426 192.553 104.362 192.423 104.299 192.293L104.123 192.075C103.948 191.857 103.745 191.631 103.516 191.398C103.287 191.164 103.141 190.982 103.077 190.853L102.398 190.238C102.083 190.202 101.881 190.13 101.793 190.021C101.7 189.854 101.421 189.787 100.956 189.82L100.635 189.727C100.699 189.857 100.682 189.964 100.586 190.047C100.392 190.214 100.169 190.191 99.9158 189.978L99.706 190.252C99.5941 190.164 99.3759 190.198 99.0516 190.355C98.7514 190.491 98.5918 190.598 98.5727 190.676L98.3323 190.606C98.2598 190.669 98.1632 190.753 98.0424 190.857C97.9164 190.904 97.8319 190.977 97.7886 191.076C97.7747 191.211 97.7289 191.282 97.6513 191.287C97.5737 191.292 97.4866 191.337 97.3899 191.42C97.3174 191.483 97.2596 191.564 97.2163 191.663C97.1731 191.762 97.1178 191.871 97.0504 191.991L96.9646 192.342C96.8056 192.603 96.5837 192.887 96.2988 193.194C96.0089 193.445 95.8404 193.744 95.7934 194.093L95.6693 194.015L95.1066 195.148L94.8968 195.422C94.9032 195.786 94.9357 196.004 94.9942 196.077C95.1113 196.222 95.269 196.24 95.4674 196.13C95.6365 195.984 95.7071 196.046 95.6792 196.317C95.6029 196.629 95.4853 196.916 95.3264 197.176C95.1674 197.437 95.0644 197.741 95.0174 198.09C95.0085 198.282 94.9996 198.475 94.9908 198.667C94.9768 198.803 94.8827 198.915 94.7084 199.004L94.6875 199.207L94.6552 200.159C94.4084 200.31 94.2425 200.638 94.1574 201.143C94.0722 201.648 94.0061 202.075 93.9591 202.423L93.8351 202.346C93.816 202.424 93.8141 202.549 93.8294 202.72C93.8689 202.871 93.8937 203.004 93.9039 203.118L93.5493 205.273L93.3967 205.312L93.6028 205.873L93.4864 205.881C93.4789 206.381 93.4662 206.823 93.4485 207.208C93.4549 207.572 93.5491 208.045 93.7311 208.628L94.294 209.25C94.4492 209.24 94.5776 209.221 94.6794 209.195C94.8053 209.148 94.9312 209.101 95.0571 209.054L95.0419 208.882C95.6562 208.475 96.1318 207.971 96.4688 207.372L96.5489 207.396L96.6271 206.958L96.7511 207.036L97.3424 205.786L97.4225 205.809C97.4263 205.56 97.4644 205.404 97.5369 205.341C97.6336 205.258 97.6807 205.494 97.6782 206.051C97.6758 206.607 97.4882 206.985 97.1155 207.184L97.2263 207.55L96.9363 207.8C96.8727 207.671 96.8364 207.702 96.8275 207.894C96.8428 208.066 96.8505 208.152 96.8505 208.152C96.6534 208.568 96.4754 208.907 96.3164 209.168C96.1574 209.428 95.9571 209.663 95.7155 209.871C95.6188 209.955 95.4834 210.041 95.3091 210.13C95.1591 210.198 95.0115 210.294 94.8665 210.42L94.8303 210.451C94.782 210.493 94.7362 210.563 94.693 210.662C94.6739 210.74 94.6135 210.792 94.5117 210.818C93.8376 210.846 93.2811 210.587 92.8422 210.042C92.3447 209.424 91.9897 208.653 91.7772 207.727C91.5646 206.802 91.464 205.964 91.4754 205.215C91.4867 204.466 91.5795 204.047 91.7538 203.958L91.6144 203.709L91.7651 203.209L91.6906 202.811L91.8146 202.889L91.8011 201.422L91.8812 201.445L92.1234 200.219L92.2474 200.297C92.2372 200.183 92.227 200.068 92.2168 199.954C92.2308 199.819 92.2988 199.852 92.421 200.055L92.3675 199.454L92.4476 199.477C92.3915 198.848 92.4239 198.481 92.5447 198.377C92.6897 198.252 92.8461 197.963 93.014 197.51C93.1386 197.155 93.2485 196.783 93.3439 196.393C93.4341 195.945 93.5854 195.599 93.7978 195.354C93.8843 195.156 93.9612 194.997 94.0286 194.877C94.096 194.758 94.1609 194.609 94.2232 194.432L94.3472 194.51C94.3612 194.375 94.4209 194.169 94.5265 193.893C94.6562 193.596 94.7884 193.328 94.9232 193.088C95.0529 192.791 95.1712 192.659 95.278 192.689C95.4141 192.757 95.5063 192.77 95.5547 192.728C95.6513 192.644 95.692 192.517 95.6767 192.345C95.6856 192.153 95.7117 192.007 95.7549 191.908C95.8464 191.767 95.9406 191.655 96.0372 191.572C96.1288 191.431 96.2375 191.337 96.3634 191.29C96.3876 191.269 96.4213 191.209 96.4645 191.11C96.4836 191.032 96.5535 190.941 96.6744 190.837C96.8435 190.691 97.0661 190.56 97.3421 190.445C97.6181 190.33 97.8044 190.231 97.9011 190.147L97.9736 190.084C98.0461 190.022 98.116 189.931 98.1834 189.811C98.2457 189.634 98.3036 189.553 98.357 189.569C98.5898 189.552 98.82 189.508 99.0476 189.434C99.2461 189.325 99.4616 189.262 99.6944 189.245C99.9323 189.286 100.109 189.226 100.225 189.065C100.365 188.882 100.461 188.799 100.515 188.814C101.277 188.896 101.89 188.92 102.356 188.888C102.846 188.835 103.509 189.124 104.346 189.757C104.93 190.177 105.441 190.66 105.88 191.205C106.085 191.459 106.266 191.734 106.422 192.031C106.603 192.306 106.786 192.61 106.972 192.942C107.133 193.296 107.295 193.649 107.457 194.002C107.613 194.299 107.784 194.613 107.97 194.945C108.063 195.112 108.235 195.579 108.485 196.349C108.76 197.097 109.023 197.856 109.274 198.625C109.495 199.358 109.616 199.839 109.636 200.068C109.701 200.505 109.783 200.989 109.883 201.519C110.006 202.028 110.142 202.527 110.289 203.016C110.452 203.676 110.6 204.319 110.734 204.942C110.839 205.53 110.96 206.164 111.099 206.846C111.243 207.584 111.428 208.348 111.654 209.138C111.881 209.929 112.107 210.719 112.334 211.509C112.403 211.696 112.486 211.901 112.584 212.125C112.677 212.291 112.733 212.489 112.754 212.718L112.718 212.749C112.669 212.791 112.667 212.915 112.712 213.123C112.751 213.274 112.788 213.396 112.823 213.49C112.964 213.614 113.135 213.929 113.336 214.433C113.561 214.916 113.789 215.428 114.019 215.968C114.22 216.473 114.355 216.818 114.424 217.005C114.527 217.286 114.608 217.463 114.666 217.535C114.749 217.587 114.851 217.714 114.974 217.917C115.564 218.701 116.184 219.09 116.834 219.083C117.537 219.092 118.168 219.01 118.725 218.837C118.851 218.789 118.95 218.735 119.022 218.672C119.148 218.625 119.26 218.56 119.356 218.476C119.743 218.142 120.056 217.717 120.297 217.202C120.537 216.686 120.717 216.223 120.836 215.812C121.009 215.416 121.135 215.215 121.212 215.21L121.145 214.898C121.266 214.794 121.334 214.674 121.348 214.538C121.386 214.382 121.438 214.244 121.506 214.124C121.496 214.01 121.527 213.922 121.599 213.859C121.648 213.817 121.672 213.796 121.672 213.796L121.75 213.359L121.67 213.336C121.611 213.263 121.628 213.157 121.719 213.016C121.782 212.839 121.825 212.74 121.849 212.719L121.761 212.61L121.86 211.97C121.855 211.913 121.879 211.892 121.933 211.907C121.957 211.886 121.967 211.847 121.961 211.79C122.024 211.613 122.018 211.402 121.944 211.158C121.87 210.914 121.879 210.721 121.971 210.581C122.09 210.169 122.141 209.571 122.123 208.786C122.1 207.943 122.038 207.103 121.938 206.266C121.861 205.407 121.788 204.731 121.718 204.237C121.703 204.066 121.661 203.886 121.592 203.699C121.548 203.491 121.532 203.319 121.546 203.184L120.992 197.84C120.977 197.669 120.962 197.497 120.946 197.325C120.902 197.117 120.833 196.93 120.74 196.764C120.74 196.764 120.722 196.564 120.687 196.163C120.622 195.726 120.569 195.279 120.528 194.821C120.458 194.327 120.403 194.005 120.364 193.854C120.295 193.667 120.192 193.386 120.055 193.012C119.888 192.602 119.746 192.324 119.629 192.178C119.571 192.106 119.476 192.064 119.345 192.054C119.184 192.008 119.046 191.912 118.929 191.766C118.724 191.512 118.51 191.297 118.286 191.12C118.033 190.908 117.833 190.71 117.687 190.529C117.477 190.217 117.274 189.838 117.078 189.391C116.882 188.944 116.81 188.575 116.862 188.283C116.9 188.127 116.943 188.028 116.992 187.986L117.144 187.947C117.134 187.833 117.088 187.75 117.005 187.698C116.946 187.625 116.9 187.542 116.866 187.448L116.778 187.339L116.566 187.153C116.425 187.028 116.193 186.766 115.871 186.366C115.52 185.93 115.198 185.53 114.906 185.167C114.584 184.767 114.396 184.559 114.343 184.544L114.123 184.271C114.201 184.266 114.235 184.206 114.225 184.092C114.239 183.956 114.258 183.878 114.282 183.857C114.354 183.795 114.449 183.836 114.566 183.981C114.731 184.085 114.861 184.22 114.953 184.386C115.046 184.553 115.151 184.708 115.268 184.854C115.385 184.999 115.539 185.113 115.728 185.196C115.888 185.242 116.039 185.328 116.18 185.452C116.263 185.504 116.351 185.613 116.444 185.779C116.532 185.889 116.617 185.969 116.699 186.021C116.782 186.073 116.877 186.114 116.984 186.145C117.091 186.176 117.185 186.217 117.268 186.269L117.312 186.324C117.37 186.396 117.449 186.544 117.547 186.768C117.645 186.991 117.764 187.165 117.905 187.29C118.797 188.245 119.812 189.124 120.951 189.928C121.087 189.995 121.209 190.044 121.315 190.075C121.446 190.085 121.568 190.134 121.68 190.223L121.811 190.386C121.846 190.48 121.866 190.555 121.871 190.612C121.9 190.649 121.944 190.703 122.002 190.776C122.295 191.139 122.58 191.417 122.857 191.609C123.129 191.743 123.416 191.896 123.718 192.067L123.806 192.176C124.127 192.576 124.456 192.908 124.792 193.173C125.152 193.416 125.536 193.639 125.945 193.841C125.998 193.856 126.071 193.947 126.164 194.113C126.252 194.222 126.337 194.303 126.42 194.355C126.585 194.458 126.748 194.533 126.908 194.58C127.068 194.626 127.205 194.694 127.317 194.782C127.535 194.901 127.733 195.069 127.908 195.288C128.108 195.485 128.305 195.653 128.5 195.793C128.665 195.897 128.84 195.962 129.024 195.987C129.18 195.976 129.34 196.023 129.505 196.126C129.943 196.365 130.439 196.676 130.993 197.059C131.543 197.386 132.019 197.621 132.423 197.766L132.467 197.82C132.584 197.966 132.749 198.069 132.963 198.131C133.147 198.157 133.334 198.211 133.524 198.294C133.606 198.346 133.706 198.444 133.823 198.59C133.964 198.714 134.059 198.756 134.108 198.714C134.156 198.672 134.168 198.662 134.144 198.683C134.114 198.646 134.124 198.607 134.172 198.565L134.966 198.712C135.044 198.706 135.112 198.74 135.17 198.813C135.2 198.849 135.241 198.875 135.294 198.891C135.372 198.885 135.447 198.851 135.519 198.789C135.592 198.726 135.699 198.757 135.84 198.881C135.923 198.933 136.112 199.016 136.409 199.13C136.705 199.243 136.88 199.308 136.933 199.324C136.987 199.339 137.025 199.336 137.05 199.315C137.045 199.258 137.069 199.237 137.122 199.253C137.379 199.216 137.67 199.272 137.996 199.422C138.322 199.573 138.569 199.575 138.738 199.428L138.774 199.397C138.871 199.314 138.926 199.204 138.94 199.069C138.954 198.934 138.998 198.835 139.07 198.772C139.148 198.767 139.189 198.793 139.194 198.85C139.194 198.85 139.218 198.829 139.267 198.787C139.315 198.746 139.312 198.717 139.259 198.701C139.176 198.65 139.174 198.621 139.251 198.616C139.3 198.574 139.365 198.579 139.448 198.631C139.525 198.625 139.603 198.62 139.681 198.615C139.801 198.51 139.842 198.383 139.803 198.232C139.758 198.024 139.716 197.845 139.677 197.694C139.666 197.579 139.7 197.52 139.778 197.514C139.85 197.452 139.896 197.381 139.915 197.303C139.9 197.131 139.872 196.97 139.833 196.82C139.818 196.648 139.844 196.502 139.911 196.382C139.925 196.247 139.912 196.104 139.873 195.953C139.799 195.709 139.687 195.467 139.535 195.228C139.384 194.989 139.262 194.787 139.169 194.621C139.29 194.516 139.318 194.399 139.254 194.269C139.053 193.765 138.799 193.246 138.491 192.71L138.352 192.461C138.293 192.388 138.237 192.344 138.184 192.329C138.155 192.292 138.125 192.256 138.096 192.22L137.964 192.056C137.818 191.874 137.684 191.682 137.562 191.48C137.41 191.241 137.288 191.038 137.195 190.872C137.302 190.903 137.297 190.846 137.18 190.7L135.394 188.176C135.335 188.104 135.294 188.078 135.27 188.099C135.216 188.083 135.175 188.057 135.146 188.021C134.712 187.533 134.342 187.175 134.035 186.947C133.699 186.682 133.317 186.335 132.888 185.904C132.776 185.816 132.689 185.707 132.625 185.577C132.561 185.447 132.488 185.356 132.406 185.304C132.089 184.962 131.865 184.785 131.734 184.775C131.627 184.744 131.506 184.695 131.369 184.628C131.258 184.54 131.055 184.314 130.763 183.95C130.704 183.878 130.607 183.808 130.471 183.74C130.335 183.673 130.24 183.632 130.186 183.616L130.209 183.874C129.879 183.666 129.572 183.438 129.29 183.189C129.007 182.94 128.703 182.741 128.378 182.59C128.324 182.575 128.224 182.476 128.078 182.295C127.956 182.092 127.88 181.973 127.851 181.936C127.744 181.905 127.654 181.921 127.582 181.984C127.504 181.989 127.412 181.976 127.305 181.945C127.135 181.784 126.999 181.717 126.897 181.743C126.819 181.749 126.686 181.71 126.496 181.627C126.443 181.612 126.387 181.568 126.328 181.495C126.265 181.365 126.165 181.267 126.029 181.199C125.975 181.184 125.912 181.207 125.84 181.27C125.791 181.312 125.726 181.307 125.643 181.255C125.531 181.167 125.342 181.084 125.075 181.007C124.832 180.908 124.65 180.911 124.529 181.016C124.51 181.094 124.518 181.18 124.552 181.273C124.586 181.367 124.591 181.424 124.567 181.445C124.441 181.492 124.313 181.51 124.182 181.5C124.046 181.433 123.929 181.441 123.833 181.525C123.784 181.566 123.751 181.626 123.732 181.704C123.737 181.761 123.715 181.811 123.667 181.853C123.643 181.874 123.587 181.829 123.499 181.72C123.435 181.591 123.379 181.546 123.331 181.588L123.295 181.619C123.246 181.661 123.2 181.732 123.157 181.83C123.114 181.929 123.054 181.982 122.976 181.987C122.966 181.873 122.912 181.857 122.816 181.941C122.738 181.946 122.726 181.956 122.78 181.972C122.833 181.987 122.835 182.016 122.787 182.058C122.71 182.063 122.576 182.024 122.386 181.942C122.221 181.838 122.102 181.817 122.03 181.88C121.952 181.885 121.94 181.896 121.993 181.911C122.047 181.927 122.049 181.955 122.001 181.997C121.899 182.023 121.768 182.013 121.608 181.967C121.448 181.92 121.343 181.918 121.295 181.96C121.247 182.002 121.237 182.041 121.267 182.077C121.291 182.056 121.293 182.085 121.274 182.163L121.114 182.116C120.9 182.054 120.58 181.962 120.152 181.838C119.725 181.714 119.423 181.543 119.248 181.325C119.096 181.086 118.967 180.798 118.858 180.46C118.75 180.122 118.795 179.898 118.994 179.788C119.071 179.783 119.164 179.796 119.27 179.827C119.348 179.821 119.426 179.816 119.503 179.81L119.612 179.717C119.719 179.747 119.855 179.815 120.02 179.918C120.21 180.001 120.343 180.04 120.421 180.034C120.45 180.071 120.448 180.042 120.413 179.949C120.403 179.834 120.41 179.767 120.434 179.746C120.483 179.704 120.521 179.701 120.551 179.738C120.551 179.738 120.577 179.745 120.631 179.761C120.703 179.698 120.732 179.581 120.717 179.41C120.672 179.202 120.659 179.059 120.678 178.98C120.727 178.939 120.768 178.965 120.802 179.058C120.832 179.095 120.873 179.12 120.926 179.136L121.165 178.745L121.369 178.846C121.471 178.82 121.602 178.83 121.762 178.876C121.893 178.886 121.983 178.871 122.031 178.829C122.109 178.824 122.148 178.821 122.148 178.821C122.142 178.764 122.152 178.725 122.176 178.704C122.224 178.662 122.404 178.63 122.714 178.609C123.025 178.587 123.206 178.584 123.26 178.6C123.337 178.594 123.391 178.61 123.42 178.646C123.449 178.682 123.491 178.708 123.544 178.724L123.529 178.552L123.733 178.653L123.754 178.45L124.826 179.095C124.875 179.054 124.923 179.012 124.971 178.97C125.015 178.871 125.063 178.829 125.116 178.845C125.14 178.824 125.182 178.85 125.24 178.923C125.323 178.974 125.391 179.008 125.444 179.024C125.522 179.018 125.701 178.987 125.983 178.929C126.264 178.871 126.416 178.831 126.44 178.811C126.489 178.769 126.486 178.74 126.433 178.725C126.404 178.688 126.413 178.649 126.461 178.608C126.51 178.566 126.575 178.571 126.658 178.623C126.741 178.675 126.806 178.68 126.854 178.638C126.903 178.596 126.915 178.586 126.891 178.607C126.837 178.591 126.835 178.562 126.883 178.521C126.931 178.479 126.97 178.476 126.999 178.513C127.029 178.549 127.085 178.593 127.167 178.645C127.109 178.572 127.113 178.476 127.181 178.356C127.272 178.215 127.345 178.153 127.398 178.168C127.476 178.163 127.66 178.189 127.951 178.245C128.238 178.244 128.386 178.301 128.396 178.416C128.401 178.473 128.375 178.619 128.318 178.853C128.231 179.051 128.164 179.171 128.116 179.212C128.043 179.275 127.956 179.319 127.854 179.346C127.753 179.372 127.665 179.416 127.593 179.479C127.545 179.521 127.535 179.56 127.564 179.596C127.618 179.611 127.62 179.64 127.572 179.682C127.524 179.723 127.461 179.747 127.383 179.752C127.276 179.721 127.187 179.737 127.114 179.8C126.993 179.904 127.011 180.104 127.168 180.401C127.197 180.437 127.391 180.577 127.751 180.821C128.136 181.043 128.534 181.284 128.948 181.543C129.332 181.766 129.58 181.922 129.692 182.01C129.945 182.223 130.198 182.435 130.451 182.648C130.729 182.84 130.997 183.071 131.255 183.34C131.313 183.413 131.401 183.522 131.518 183.668C131.635 183.813 131.72 183.893 131.774 183.909C131.827 183.924 131.866 183.922 131.89 183.901C131.885 183.844 131.924 183.841 132.007 183.893C132.036 183.929 132.065 183.965 132.094 184.002C132.148 184.017 132.189 184.043 132.218 184.079L132.438 184.352C132.467 184.388 132.526 184.461 132.613 184.57C132.725 184.658 132.891 184.762 133.11 184.881L133.285 185.099C133.578 185.463 133.909 185.823 134.279 186.181C134.62 186.503 134.964 186.853 135.31 187.232C135.627 187.575 135.919 187.938 136.188 188.323C136.451 188.65 136.729 188.995 137.021 189.359C137.109 189.468 137.224 189.584 137.365 189.709C137.477 189.797 137.562 189.877 137.621 189.95C137.708 190.059 137.77 190.16 137.804 190.254C137.838 190.348 137.885 190.431 137.943 190.503C138.036 190.67 138.156 190.844 138.302 191.025C138.419 191.171 138.536 191.316 138.653 191.461C138.775 191.664 138.99 192.033 139.298 192.568C139.577 193.067 139.765 193.428 139.863 193.651C139.868 193.709 139.847 193.758 139.798 193.8C139.774 193.821 139.791 193.867 139.85 193.94C139.982 194.257 140.141 194.582 140.327 194.914C140.483 195.21 140.604 195.538 140.688 195.897C140.835 196.385 140.888 196.833 140.846 197.238C140.799 197.587 140.808 197.98 140.873 198.417C140.68 198.584 140.598 198.839 140.629 199.182C140.689 199.562 140.622 199.835 140.429 200.002C140.332 200.085 140.257 200.119 140.204 200.104C140.15 200.088 140.119 200.177 140.11 200.369L139.906 200.268C139.931 200.554 139.908 200.729 139.835 200.791C139.763 200.854 139.676 200.898 139.574 200.925C139.496 200.93 139.395 200.956 139.269 201.003L138.948 200.911L138.891 201.145C138.576 201.109 138.233 201.066 137.865 201.015C137.525 201 137.2 201.003 136.89 201.025L136.512 201.166C136.405 201.135 136.257 201.078 136.067 200.996C135.878 200.913 135.759 200.892 135.71 200.934C135.657 200.918 135.633 200.939 135.638 200.997C135.667 201.033 135.643 201.054 135.566 201.059C135.541 201.08 135.452 201.096 135.296 201.107C135.112 201.081 134.981 201.071 134.903 201.076C134.845 201.004 134.789 200.96 134.736 200.944C134.653 200.892 134.534 200.872 134.379 200.883C134.218 200.836 134.1 200.816 134.022 200.821C133.808 200.759 133.58 200.679 133.337 200.581C133.065 200.446 132.824 200.376 132.616 200.372C132.499 200.226 132.413 200.146 132.36 200.13C131.607 199.857 131.085 199.691 130.794 199.635C130.497 199.521 129.938 199.234 129.116 198.773C128.951 198.669 128.773 198.576 128.584 198.493C128.419 198.389 128.256 198.314 128.095 198.268C127.906 198.185 127.729 198.092 127.563 197.988C127.232 197.781 126.926 197.553 126.643 197.304C126.332 197.018 126.011 196.772 125.68 196.565C125.432 196.409 125.186 196.283 124.943 196.184C124.671 196.05 124.423 195.894 124.199 195.718C124.058 195.593 123.931 195.487 123.819 195.399C123.707 195.311 123.569 195.215 123.403 195.111L122.543 194.653C122.348 194.513 122.139 194.355 121.915 194.178C121.662 193.966 121.423 193.771 121.199 193.595L121.435 195.795C121.48 196.31 121.517 196.864 121.543 197.457C121.541 198.013 121.628 198.554 121.805 199.079C121.884 199.381 121.951 199.693 122.006 200.015C122.06 200.337 122.1 200.642 122.126 200.928C122.311 202.124 122.465 203.562 122.588 205.242C122.736 206.901 122.804 208.537 122.791 210.15C122.774 211.705 122.67 213.027 122.481 214.114C122.443 214.27 122.378 214.419 122.286 214.56C122.248 214.716 122.213 214.901 122.179 215.114C122.19 215.228 122.156 215.288 122.078 215.294L121.928 215.793C121.869 215.721 121.811 215.801 121.754 216.036C121.721 216.249 121.695 216.395 121.676 216.473L121.546 216.77L121.466 216.746L121.287 217.363L121.207 217.34C121.158 217.382 121.083 217.416 120.982 217.442C120.933 217.484 120.914 217.562 120.924 217.676L120.968 217.731C120.965 217.981 120.878 218.178 120.709 218.325C120.54 218.471 120.424 218.632 120.362 218.809L120.249 217.982L119.826 219.365Z" fill="#E8C4E0"/>
<defs>
<linearGradient id="paint0_linear_661_2" x1="18.0613" y1="13.6295" x2="91.7658" y2="113.673" gradientUnits="userSpaceOnUse">
<stop offset="0.13" stop-color="#61D157"/>
<stop offset="0.9999" stop-color="#AFAFAF"/>
</linearGradient>
<linearGradient id="paint1_linear_661_2" x1="79.4578" y1="99.5896" x2="202.597" y2="266.733" gradientUnits="userSpaceOnUse">
<stop stop-color="#5EF63D"/>
<stop offset="1" stop-color="#67494A"/>
</linearGradient>
</defs>
</svg>
