<svg width="504.353516" height="730.446289" viewBox="0 0 504.354 730.446" fill="none" xmlns="http://www.w3.org/2000/svg" xmlns:xlink="http://www.w3.org/1999/xlink">
	<desc>
			Created with Pixso.
	</desc>
	<defs/>
	<path id="Vector 3508" d="M157.71 49.82C157.46 43.52 157.22 37.22 156.97 30.92C156.81 26.81 167.49 28.2 169.6 29.34C171.59 30.41 176.55 32.25 176.36 27.37C176.12 21.27 181.91 10.78 184.88 6.67C193.46 -5.17 195.05 14.91 201.27 15.12C205.27 15.26 209.66 15.27 213.34 13.27C217.89 10.8 219.39 5.14 225.06 4.89C230.8 4.63 230.2 6.07 230.48 13.16C230.68 18.44 239.85 18.96 242.72 21.14C244.96 22.84 246.63 23.61 248.55 26.12C249.6 27.48 250.21 30.28 251.19 31.25C253.05 33.08 257.21 40.07 258.21 43.02C259.22 45.97 264.46 49.97 266.68 51.52C269.49 53.5 273.59 55.64 275.93 57.96C278.83 60.82 279.32 64.07 279.49 68.65C279.64 72.38 279.1 83.54 278.95 79.81" stroke="#A6BFDD" stroke-opacity="1.000000" stroke-width="5.798942" stroke-linecap="round"/>
	<path id="Vector 3509" d="M19.63 138.98C19.05 124.1 9.61 106.14 22.7 100C27.11 97.92 38.5 97.91 37.9 90.37C37.59 86.44 36.32 73.88 34.89 70.39C28.97 55.97 15.87 65.1 12.3 47.5C9.28 32.53 7.9 21.28 21.95 20.66C28.69 20.36 34.3 17.69 38.16 26.23C39.24 28.63 44.57 39.04 46.11 39.57C62.03 45.02 48.02 12.52 55.01 11.64C62.31 10.73 59.56 15.37 61.04 22.69C62.72 31 68.18 28.66 73.07 28.45C79.08 28.18 73.05 17.7 75.66 13.8C77.05 11.72 88.03 11.93 89.89 13.16C97.96 18.51 86.17 50.5 92.25 50.23C97.01 50.02 125.45 39.43 126.01 46.21C127.22 61 122.66 75.54 111.72 79.41C106.39 81.29 103.2 86.56 99.89 92.09C95.85 98.83 103.87 96.45 104.37 102.51C105.83 120.41 88.56 111.91 87 124.66C85.97 133.11 92.46 132.35 96.46 135C101.78 138.52 102.27 142.83 102.56 150.38C102.78 155.98 102.06 163.74 103.39 169.07C104.83 174.86 110.53 166.74 111 178.93C111.17 183.14 107.18 193.35 110.29 197.27C116.29 204.83 118.86 192.54 118.66 187.39" stroke="#A6BFDD" stroke-opacity="1.000000" stroke-width="5.798942" stroke-linecap="round"/>
	<path id="Vector 3510" d="M127.7 214.13C127.61 211.86 127.26 206.35 125.86 204.97C121.74 200.9 129.83 202.33 130.67 202.05C134.06 200.87 136.79 195.05 136.62 190.64C136.39 184.77 131.54 182.35 128.85 179.03C126.82 176.54 124.38 174.93 124.04 170.74C123.72 166.7 131.96 165.35 134.42 165C147.08 163.22 139.47 154.99 138.74 143.99C138.54 140.92 135.81 134.2 137.81 131.28C139.77 128.41 141.01 126.74 142.36 123.08C146.07 113 136.62 99.51 134.75 90.43C133.76 85.66 135.8 80.65 137.55 76.74C140.54 70.08 144.03 71.93 148.62 69.07C154.93 65.14 155.24 58.07 157.73 50.48" stroke="#A6BFDD" stroke-opacity="1.000000" stroke-width="5.798942" stroke-linecap="round"/>
	<path id="Vector 3511" d="M279.92 86.63C280.5 100.01 285.76 111.66 293.95 120.59C297.7 124.67 305.67 123.47 306 131.05C306.18 135.37 305.2 139.48 305.57 143.63C305.81 146.2 309.78 147.31 311.11 148.85C312.56 150.51 316.49 152.81 316.71 155.27C316.93 157.81 316.19 165.56 315.9 158.93" stroke="#A6BFDD" stroke-opacity="1.000000" stroke-width="5.798942" stroke-linecap="round"/>
	<path id="Vector 3512" d="M123.48 437.82C122.99 425.27 122.5 412.71 122.01 400.16C121.88 396.79 124.73 392.68 121.31 392.64C115.44 392.58 109.54 393.17 103.68 393.43C96.82 393.73 91.34 384.59 97.05 376.11C98.43 374.07 105.37 372.36 100.47 368.97C96.8 366.44 92.05 365.65 88.16 363.93C81.47 360.98 73.83 357.89 67.53 353.53C65.91 352.41 43.15 347.57 53.08 338.38C61.03 331.02 48.22 336.65 42.22 333.83C32.92 329.47 35.54 320.42 35.22 312.21C35.16 310.77 16.65 297.07 14.45 293.01C8.59 282.16 19.93 283.98 14.63 276.65C8.44 268.06 -2.18 249.81 5.74 238.06C7.96 234.77 11.31 231.52 14.72 231.37C18.72 231.19 13.09 226.33 11.64 223.4C8.83 217.71 3.22 191.26 6.84 184.48C11.05 176.63 7.36 167.15 14.71 162.33C15.79 161.63 25.44 155.71 25.57 159.2C25.79 164.7 20.31 155.11 20.05 154.41C18.65 150.64 16.69 127.51 19.12 130.56" stroke="#A6BFDD" stroke-opacity="1.000000" stroke-width="5.798942" stroke-linecap="round"/>
	<path id="Vector 3513" d="M317.95 162C328.32 161.53 336.01 161.68 343.73 151.37C358.5 131.66 349.66 156.14 355.88 163.93C362.29 171.95 389.49 154.43 390.07 169.38C390.34 176.29 390.6 183.21 390.87 190.12C391.23 199.39 397.41 196.1 402.97 195.85C414.72 195.33 418.78 197.31 419.43 213.94C420.01 228.9 438.75 235.95 448.34 236.49C453.96 236.81 459.81 241.46 456.74 249.92C453.84 257.93 457.62 261.96 460.19 267.47C464.29 276.25 480.62 284.23 481.53 295.24C482.66 309.06 480.45 325.03 485.43 337.72C489.48 348.03 488.8 367.05 496.6 374.86C501.28 379.56 502.38 408.2 500.5 414.84C497.96 423.83 495.51 446.89 490.42 452.93C484.39 460.06 481.02 474.99 475.53 483.14C468.7 493.29 460.2 504.3 452.25 513.45C450.04 516 441.83 520.94 439 517.39C434.85 512.19 443.41 502.88 438.32 510.45C433.94 516.95 414.8 521.23 414.27 507.75C414.03 501.48 412.35 493.01 417.24 489.36C418.54 488.39 429.57 483.24 420.7 483.63C417.39 483.78 407.51 492.28 404.74 488.8C402.31 485.76 403.84 474.78 405.94 472.3C407.41 470.56 409.69 472.66 410.97 470.26C411.97 468.39 412.37 465.2 413.49 463.88C414.41 462.79 415.69 449.47 415.61 447.47C415.11 434.53 414.61 421.59 414.1 408.65C413.66 397.19 407.69 381.8 403.86 371.46C399.7 360.25 398.9 341.27 385.12 347.34C382.24 348.61 393.67 388.11 382.52 364.88C380.94 361.59 375.09 353.9 372.24 352.93C366.43 350.96 366.18 364.45 369.34 367.84C391.25 391.39 344.5 405.82 365.34 433.4C376.85 448.64 354.94 450.37 355.33 460.19C355.56 466.14 354.65 474.34 357.89 478.9C361.13 483.44 362.27 490.06 362.25 496.27C362.24 502.87 355.27 506.2 355.53 512.88C355.7 517.25 357.62 519.49 360.37 521.44C362.64 523.06 358.82 525.02 359.61 520.36C360.71 513.88 367.07 525.52 367.2 528.67C367.42 534.38 368.88 542.31 366.47 546.82C363.66 552.08 368.18 557.78 371.17 559.86C376.43 563.49 376.17 570.06 376.45 577.19C376.75 584.85 369.42 585.91 369.73 593.8C370.01 601.03 373.95 607.62 373.5 596.14" stroke="#A6BFDD" stroke-opacity="1.000000" stroke-width="5.798942" stroke-linecap="round"/>
	<path id="Vector 3514" d="M302.57 150.36C302.79 146.62 306.26 157.29 306.25 159.72C306.23 164.08 302.98 161.02 302.86 157.75" stroke="#F63DE0" stroke-opacity="1.000000" stroke-width="5.798942" stroke-linecap="round"/>
	<path id="Vector 3516" d="M287.57 169.77C287.62 171.02 287.53 168.74 287.52 168.44C287.47 167.09 288 167.09 289.13 167.03C290.86 166.96 292.81 169.4 290.93 170.5" stroke="#F63DE0" stroke-opacity="1.000000" stroke-width="5.798942" stroke-linecap="round"/>
	<path id="Vector 3518" d="M257.54 179.43C257.18 170.18 263.24 175.88 263.17 182.2C263.09 188.62 246.17 177.92 258.38 177.38" stroke="#F63DE0" stroke-opacity="1.000000" stroke-width="5.798942" stroke-linecap="round"/>
	<path id="Vector 3519" d="M147.63 195.88C147.51 192.77 147.45 190.48 150.5 189.54C152.66 188.87 157.14 188.29 157.27 191.79C157.33 193.22 158.22 198.44 156.65 198.62C153.17 199.02 153.06 197.75 151.15 194.68" stroke="#F63DE0" stroke-opacity="1.000000" stroke-width="5.798942" stroke-linecap="round"/>
	<path id="Vector 3520" d="M205.87 194.49C205.92 195.92 205.74 191.96 205.75 191.37C205.76 189.85 207.51 190.25 208.48 190.21C210.95 190.1 211.43 194.65 211.53 197.13C211.68 201.15 210.17 201.59 207.07 201.73C203.62 201.88 204.13 197.37 204.02 194.57" stroke="#F63DE0" stroke-opacity="1.000000" stroke-width="5.798942" stroke-linecap="round"/>
	<path id="Vector 3521" d="M230.54 195.22C230.45 192.91 229.99 190.72 232.59 190.08C234.46 189.61 237.14 189.86 237.74 192.34C239.11 198.04 232.58 200.33 232.34 194.12" stroke="#F63DE0" stroke-opacity="1.000000" stroke-width="5.798942" stroke-linecap="round"/>
	<path id="Vector 3522" d="M177.72 200.12C175.01 199.86 178.94 197.42 180.86 197.94C182.51 198.39 183.38 203.16 182.03 204.1C175.93 208.38 171.19 203.42 174.76 196.07" stroke="#F63DE0" stroke-opacity="1.000000" stroke-width="5.798942" stroke-linecap="round"/>
	<path id="Vector 3524" d="M337.8 367.98C351.51 367.37 333.39 353.72 335.94 364.1C337.7 371.32 355.85 361.65 358.23 358C360.6 354.38 360.76 350.33 360.58 345.58C360.47 342.79 365.54 346.26 366.37 343.76C367.9 339.16 367.44 335.01 367.25 329.98C367.23 329.59 368.26 330.93 369.1 330.89C371.28 330.79 370.81 327.94 370.72 325.72" stroke="#A6BFDD" stroke-opacity="1.000000" stroke-width="5.798942" stroke-linecap="round"/>
	<path id="Vector 3526" d="M239.61 336.87C240.18 351.61 233.2 369.61 248.49 368.93C258 368.51 247.36 378.97 256.5 378.56C258.43 378.47 261.17 379.02 262.89 377.72C263.92 376.95 267.84 369.52 268.14 373.05C268.87 381.78 271.39 385.39 278.45 385.07C280.57 384.98 282.75 385.04 284.86 384.79C286.38 384.6 289.17 379.46 289.7 380.13C292.54 383.74 294.72 386.37 300.1 383.97C303.51 382.45 308.16 379.41 307.94 373.77" stroke="#A6BFDD" stroke-opacity="1.000000" stroke-width="5.798942" stroke-linecap="round"/>
	<path id="Vector 3527" d="M136.46 398.91C136.67 394.86 147.23 395.2 150.12 393.29C156.94 388.77 151.81 390.49 156.3 396.08C163.1 404.55 181.58 382.54 182.31 385.44C184.82 395.39 198.04 387.02 200.6 382.26C203.95 376.01 215.03 372.73 214.65 362.81" stroke="#A6BFDD" stroke-opacity="1.000000" stroke-width="5.798942" stroke-linecap="round"/>
	<path id="Vector 3528" d="M374.16 596.33C374.81 613.09 377.56 623.82 391.72 623.19C399.82 622.83 387.77 642.07 391.37 650.84C394.07 657.42 398.62 658.82 398.93 666.83C399.17 673.1 399.41 679.37 399.66 685.64C400.29 701.96 385.5 677.27 381.74 686.44C378.03 695.5 364.43 702.32 358.18 694.47C349.25 683.24 338.33 714.95 329.25 705.8C320.82 697.31 322.18 685.45 318.03 674.2C316 668.71 315.34 661.44 314.14 655.53C312.87 649.29 311.06 644.38 309.79 638.14C308.51 631.84 307.38 626.06 307.13 619.41C307.02 616.77 306.46 613.34 306.89 610.77C307.04 609.89 312.13 607.86 309.29 606.89C302.85 604.7 299.22 611.22 294.08 614.41C290.2 616.82 292.92 595.68 293.17 593.65C293.87 587.94 295.53 582.24 291 582.45C288.18 582.57 279.93 581.06 278.22 584.27C274.47 591.32 271.01 609.79 262.26 598.8C253.98 588.39 247.7 585.95 236.12 587.4C233.09 587.78 229.36 591.66 226.34 593C222.18 594.84 224.49 607.2 223.58 595.49C222.7 584.17 204.81 584.88 205.25 596.31C205.81 610.47 213.82 611.84 203.58 624.02C198.22 630.39 208.37 632.71 210 634.34C213.55 637.92 212.64 644.68 212.85 650.13C213.25 660.23 212.3 661.57 207.65 668.5C206.92 669.6 208.03 670.44 209.1 671.51C210.83 673.26 210.1 677.63 211.27 680.21C216.1 690.86 213.46 707.73 207.04 713.05C199.36 719.42 200.73 702.37 196.52 702.22C190.74 702.01 186.84 711.35 183.31 716.62C175.31 728.56 164.74 734.68 163.92 713.72C163.78 709.98 164.99 695.43 159.69 699.39C154.5 703.27 150.18 708.32 144.58 712.06C134.06 719.1 137.59 696.49 138.97 688.31C140.45 679.5 137.69 678.52 133.06 675.45C130.48 673.74 125.84 663.05 130.72 662.43C141.04 661.14 145.16 656.11 144.6 641.72C144.34 634.94 140.33 633.37 136.06 631.91C131.17 630.24 130.89 619.69 130.7 614.7C130.45 608.26 137.52 606.5 137.39 603.1C137.3 600.76 133.36 602.68 132.43 601.5C131.27 600.04 131.65 594.06 131.65 592.05C131.67 579.97 151.83 591.68 151.17 574.71C151.03 571.02 157.59 551.14 152.09 550.94C146.9 550.75 143.31 561.23 142.87 549.95C142.6 543.06 142.45 536.09 145.38 530.58C148.39 524.91 141.78 523.05 139.87 520.08C134.09 511.05 135.29 496.67 134.84 485.13C134.42 474.38 127.71 443.28 128.12 454.02" stroke="#A6BFDD" stroke-opacity="1.000000" stroke-width="5.798942" stroke-linecap="round"/>
</svg>
