<svg width="454.840820" height="800.836914" viewBox="0 0 454.841 800.837" fill="none" xmlns="http://www.w3.org/2000/svg" xmlns:xlink="http://www.w3.org/1999/xlink">
	<desc>
			Created with Pixso.
	</desc>
	<defs/>
	<path id="Vector 3502" d="M303.92 53.07C303.92 46.11 303.92 39.15 303.92 32.19C303.92 27.65 294.27 29.7 292.39 31.07C290.63 32.34 286.18 34.62 286.18 29.22C286.18 22.49 280.55 11.2 277.7 6.81C269.49 -5.83 268.76 16.39 263.12 16.93C259.48 17.28 255.5 17.51 252.08 15.49C247.86 12.99 246.3 6.81 241.14 6.81C235.91 6.81 236.5 8.37 236.5 16.21C236.5 22.04 228.19 23.07 225.66 25.6C223.68 27.59 222.19 28.52 220.54 31.39C219.63 32.94 219.18 36.05 218.32 37.17C216.69 39.29 213.17 47.2 212.35 50.5C211.54 53.81 206.92 58.47 204.96 60.3C202.48 62.61 198.83 65.17 196.78 67.84C194.25 71.15 193.92 74.76 193.92 79.81C193.92 83.93 194.81 96.22 194.81 92.1" stroke="#A6BFDD" stroke-opacity="1.000000" stroke-width="5.798942" stroke-linecap="round"/>
	<path id="Vector 3503" d="M433.17 155.36C433.17 137.53 441.14 115.56 429 108.91C424.91 106.67 414.52 107.26 414.8 98.22C414.95 93.5 415.67 78.41 416.85 74.16C421.72 56.6 433.99 66.83 436.61 45.59C438.84 27.53 439.69 14.01 426.87 14.01C420.72 14.01 415.51 11.12 412.3 21.53C411.39 24.46 406.91 37.19 405.53 37.91C391.21 45.27 402.83 5.67 396.43 4.99C389.75 4.28 392.42 9.69 391.33 18.52C390.09 28.55 385.04 26.04 380.57 26.04C375.08 26.04 380.21 13.2 377.69 8.67C376.35 6.25 366.35 7.09 364.7 8.67C357.54 15.49 369.42 53.11 363.87 53.11C359.52 53.11 333.24 41.96 332.97 50.1C332.39 67.85 337.06 84.98 347.17 89.03C352.09 91 355.18 97.13 358.39 103.56C362.31 111.41 354.92 108.99 354.68 116.26C353.98 137.74 369.42 126.65 371.29 141.82C372.53 151.87 366.58 151.3 363.03 154.69C358.32 159.18 358.02 164.36 358.02 173.4C358.02 180.11 358.95 189.35 357.93 195.79C356.82 202.79 351.34 193.39 351.34 207.99C351.34 213.03 355.33 225.03 352.64 229.87C347.44 239.24 344.66 224.67 344.66 218.51" stroke="#A6BFDD" stroke-opacity="1.000000" stroke-width="5.798942" stroke-linecap="round"/>
	<path id="Vector 3504" d="M336.62 232.93C336.62 230.41 336.74 224.28 337.94 222.69C341.5 217.97 334.28 219.96 333.52 219.68C330.44 218.54 327.78 212.22 327.78 207.32C327.78 200.8 332.05 197.88 334.36 194.07C336.09 191.21 338.23 189.29 338.38 184.64C338.53 180.14 331.08 179.05 328.86 178.78C317.43 177.43 323.97 167.93 324.25 155.69C324.32 152.28 326.54 144.69 324.64 141.55C322.78 138.47 321.61 136.68 320.27 132.69C316.58 121.69 324.6 106.26 325.96 96.1C326.68 90.76 324.68 85.3 322.97 81.06C320.05 73.82 316.98 76.04 312.76 73.09C306.95 69.04 306.43 61.22 303.92 52.93" stroke="#A6BFDD" stroke-opacity="1.000000" stroke-width="5.798942" stroke-linecap="round"/>
	<path id="Vector 3505" d="M193.92 91.93C193.92 107.73 189.71 121.7 182.78 132.61C179.62 137.6 172.5 136.56 172.5 145.51C172.5 150.61 173.53 155.41 173.36 160.31C173.25 163.35 169.77 164.85 168.64 166.72C167.42 168.75 164.03 171.65 163.93 174.55C163.83 177.56 164.79 186.66 164.79 178.83" stroke="#A6BFDD" stroke-opacity="1.000000" stroke-width="5.798942" stroke-linecap="round"/>
	<path id="Vector 3506" d="M348.04 476.93C348.04 463.15 348.04 449.38 348.04 435.6C348.04 431.9 345.29 427.54 348.42 427.33C353.81 426.98 359.24 427.33 364.63 427.33C370.94 427.33 375.64 417.05 370.09 408.04C368.76 405.87 362.32 404.34 366.7 400.39C369.98 397.43 374.31 396.34 377.82 394.27C383.85 390.7 390.75 386.95 396.38 381.87C397.82 380.56 418.54 374.15 409.1 364.57C401.54 356.89 413.5 362.43 418.9 359.06C427.28 353.82 424.56 344.03 424.56 335.02C424.56 333.45 441.06 317.54 442.93 312.98C447.92 300.81 437.58 303.36 442.18 295.07C447.55 285.36 456.65 264.85 448.96 252.36C446.81 248.86 443.62 245.47 440.48 245.47C436.8 245.47 441.8 239.88 443.02 236.59C445.4 230.22 449.61 200.97 446.04 193.73C441.9 185.32 444.95 174.76 438.03 169.85C437.01 169.12 427.95 163.12 427.95 166.94C427.95 172.98 432.63 162.21 432.85 161.43C434 157.23 434.97 131.8 432.85 135.25" stroke="#A6BFDD" stroke-opacity="1.000000" stroke-width="5.798942" stroke-linecap="round"/>
	<path id="Vector 3507" d="M160.92 184.22C151.49 184.22 144.53 184.75 137.15 173.8C123.05 152.86 131.94 179.33 126.57 188.21C121.04 197.34 95.74 179.4 95.74 195.87C95.74 203.48 95.74 211.09 95.74 218.7C95.74 228.91 90.02 225.6 84.97 225.6C74.28 225.6 70.67 227.97 70.67 246.28C70.67 262.75 53.92 271.42 45.23 272.48C40.14 273.1 35 278.5 38.08 287.65C40.99 296.31 37.71 300.93 35.57 307.11C32.16 316.96 17.62 326.54 17.19 338.68C16.64 353.92 19.22 371.37 15.14 385.57C11.83 397.09 13.12 417.97 6.32 426.94C2.24 432.33 2.25 463.87 4.19 471.07C6.81 480.82 9.84 506.06 14.68 512.44C20.4 519.99 23.99 536.23 29.26 544.93C35.82 555.75 43.91 567.43 51.45 577.1C53.54 579.8 61.17 584.82 63.61 580.78C67.2 574.86 59.1 565.06 63.98 573.12C68.19 580.06 85.71 583.82 85.71 568.98C85.71 562.07 86.93 552.68 82.37 548.91C81.16 547.91 70.97 542.78 79.03 542.78C82.04 542.78 91.3 551.64 93.7 547.68C95.79 544.22 94.02 532.23 92.03 529.6C90.63 527.76 88.63 530.19 87.38 527.61C86.41 525.6 85.94 522.12 84.88 520.71C84 519.56 82.37 504.98 82.37 502.79C82.37 488.54 82.37 474.29 82.37 460.04C82.37 447.42 87.24 430.22 90.35 418.66C93.73 406.14 93.79 385.24 106.51 391.24C109.17 392.49 100.19 436.46 109.48 410.39C110.8 406.7 115.84 397.96 118.4 396.75C123.6 394.3 124.3 409.12 121.55 412.99C102.5 439.95 145.43 453.53 127.5 484.86C117.59 502.17 137.52 503 137.52 513.82C137.52 520.37 138.64 529.34 135.85 534.51C133.08 539.65 132.28 547 132.51 553.81C132.75 561.07 139.2 564.39 139.2 571.74C139.2 576.56 137.53 579.11 135.11 581.39C133.11 583.28 136.64 585.25 135.76 580.17C134.53 573.1 129.17 586.2 129.17 589.67C129.17 595.96 128.12 604.75 130.47 609.59C133.2 615.23 129.31 621.72 126.66 624.14C122.02 628.4 122.48 635.6 122.48 643.45C122.48 651.89 129.17 652.7 129.17 661.38C129.17 669.34 125.82 676.79 125.82 664.14" stroke="#A6BFDD" stroke-opacity="1.000000" stroke-width="5.798942" stroke-linecap="round"/>
	<path id="Vector 3515" d="M151.2 410.93C138.79 410.93 154.69 395.34 152.76 406.65C151.41 414.53 134.66 404.97 132.37 401.15C130.1 397.35 129.81 393 129.81 387.86C129.81 384.85 125.35 388.84 124.51 386.18C122.97 381.29 123.23 376.8 123.23 371.36C123.23 370.94 122.36 372.43 121.59 372.43C119.62 372.43 119.94 369.34 119.94 366.93" stroke="#A6BFDD" stroke-opacity="1.000000" stroke-width="5.798942" stroke-linecap="round"/>
	<path id="Vector 3517" d="M240.13 370.93C240.13 387.87 247.28 408.16 233.03 408.16C224.18 408.16 234.45 419.62 225.93 419.62C224.14 419.62 221.61 420.39 219.96 418.98C218.98 418.15 215.06 409.83 214.91 413.89C214.54 423.95 212.33 428.21 205.76 428.21C203.78 428.21 201.76 428.4 199.78 428.21C198.37 428.08 195.58 422.32 195.11 423.12C192.6 427.4 190.68 430.53 185.58 428.05C182.36 426.48 177.92 423.23 177.92 416.76" stroke="#A6BFDD" stroke-opacity="1.000000" stroke-width="5.798942" stroke-linecap="round"/>
	<path id="Vector 3523" d="M334.92 434.72C334.59 430.28 325.05 431.17 322.36 429.21C316.03 424.59 320.74 426.23 316.88 432.58C311.02 442.21 293.53 418.96 292.97 422.18C291.05 433.21 278.8 424.67 276.32 419.58C273.06 412.88 262.92 409.83 262.92 398.93" stroke="#A6BFDD" stroke-opacity="1.000000" stroke-width="5.798942" stroke-linecap="round"/>
	<path id="Vector 3525" d="M125.14 663.74C125.14 682.18 123 694.1 109.98 694.1C102.53 694.1 114.28 714.65 111.29 724.46C109.04 731.83 104.92 733.59 104.92 742.4C104.92 749.3 104.92 756.2 104.92 763.1C104.92 781.06 117.62 753.21 121.39 763.1C125.12 772.87 137.84 779.7 143.29 770.77C151.08 758 162.24 792.31 170.24 781.81C177.67 772.07 176.01 759.1 179.41 746.54C181.07 740.42 181.42 732.39 182.31 725.84C183.25 718.92 184.74 713.44 185.68 706.52C186.63 699.54 187.46 693.13 187.46 685.82C187.46 682.91 187.86 679.12 187.37 676.31C187.2 675.36 182.46 673.37 185.03 672.17C190.86 669.44 194.42 676.43 199.25 679.68C202.9 682.14 199.64 659.04 199.34 656.84C198.5 650.59 196.78 644.42 200.93 644.42C203.52 644.42 211.04 642.35 212.73 645.8C216.42 653.35 220.25 673.48 227.89 660.98C235.11 649.13 240.79 646.15 251.47 647.18C254.26 647.44 257.82 651.53 260.64 652.85C264.52 654.67 262.84 668.36 263.26 655.46C263.66 642.98 280.1 642.88 280.1 655.46C280.1 671.04 272.8 672.93 282.63 685.82C287.77 692.56 278.54 695.6 277.11 697.47C273.98 701.58 275.05 708.96 275.05 714.95C275.05 726.07 275.97 727.5 280.48 734.89C281.19 736.06 280.2 737.04 279.26 738.26C277.73 740.27 278.55 745.04 277.58 747.92C273.53 759.87 276.54 778.27 282.63 783.81C289.9 790.43 288.04 771.76 291.89 771.39C297.19 770.87 301.1 780.95 304.53 786.57C312.29 799.29 322.21 805.49 322.21 782.43C322.21 778.31 320.58 762.38 325.58 766.48C330.48 770.49 334.63 775.83 339.9 779.67C349.81 786.88 345.76 762.21 344.2 753.29C342.53 743.68 345.02 742.47 349.16 738.88C351.47 736.87 355.35 724.89 350.85 724.46C341.33 723.54 337.37 718.22 337.37 702.38C337.37 694.92 340.99 693 344.86 691.18C349.28 689.11 349.16 677.51 349.16 672.02C349.16 664.93 342.61 663.35 342.61 659.6C342.61 657.03 346.29 658.94 347.11 657.6C348.12 655.94 347.56 649.38 347.48 647.18C347.03 633.91 328.95 647.75 328.95 629.08C328.95 625.03 322.22 603.5 327.27 603.01C332.02 602.55 335.69 613.89 335.69 601.48C335.69 593.89 335.58 586.23 332.69 580.32C329.73 574.24 335.73 571.87 337.37 568.51C342.35 558.31 340.74 542.57 340.74 529.87C340.74 518.04 345.8 483.54 345.8 495.36" stroke="#A6BFDD" stroke-opacity="1.000000" stroke-width="5.798942" stroke-linecap="round"/>
	<path id="Vector 3529" d="M232.41 213.46C230.24 213.18 231.09 208.46 231.09 206.93C231.09 201.37 231.47 199.58 236.91 197.27C239.93 196 251.34 193.08 253.63 196.62C255.57 199.64 256.54 202.59 257.5 206.06C258.5 209.68 257.72 212.7 255.32 215.18C252.45 218.16 250.56 218.32 246.87 219.5C245.08 220.07 241.24 220.04 239.39 219.61C237.21 219.11 236.56 216.21 234.4 216.21" stroke="#3E78BE" stroke-opacity="1.000000" stroke-width="2.485261" stroke-linecap="round"/>
	<path id="Vector 3530" d="M231.92 201.47C222.5 190.5 209.89 180.89 203.51 167.37C202.66 165.57 199.05 157.2 199.05 162.88C199.05 166.44 197.69 170.23 197.22 173.79C196.57 178.77 195.76 183.56 195.76 188.6C195.76 201.66 195.54 214.36 193.13 227.23C192.38 231.23 191.29 235.11 190.36 239.06C189.66 241.99 189.49 242.47 192.26 241.42C200.75 238.18 208.22 232.14 216 227.38C219.54 225.22 224.46 222.35 228.64 222.35" stroke="#3E78BE" stroke-opacity="1.000000" stroke-width="2.485261" stroke-linecap="round"/>
	<path id="Vector 3531" d="M264.92 198.44C264.92 192.65 266.48 190.77 269.97 186.3C275.99 178.58 282.59 171.76 289.18 164.69C290.1 163.71 290.17 163.48 290.23 165.19C290.39 170.06 292.7 175 293.47 179.81C294.59 186.73 295.9 193.22 296.39 200.25C296.89 207.4 296.72 214.58 296.72 221.75C296.72 226.22 296.72 230.69 296.72 235.16C296.72 237.16 297.2 239.94 296.68 241.89C296.53 242.46 287.81 237.31 286.99 236.86C279.56 232.8 272.08 227.68 266.22 221.4" stroke="#3E78BE" stroke-opacity="1.000000" stroke-width="2.485261" stroke-linecap="round"/>
</svg>
