<svg width="1205.203125" height="354.996094" viewBox="0 0 1205.2 354.996" fill="none" xmlns="http://www.w3.org/2000/svg" xmlns:xlink="http://www.w3.org/1999/xlink">
	<desc>
			Created with Pixso.
	</desc>
	<defs/>
	<path id="Vector 3820" d="M368.2 338.88C368.2 309.46 351.28 290.34 322.86 284.03C303.62 279.75 280.89 280.95 261.16 280.95C238.53 280.95 215.91 280.95 193.29 280.95C143.79 280.95 3 299.53 3 223.02C3 205.79 7.33 194.48 20.77 182.72C36.38 169.06 58.64 152.78 79.11 148.02C123.55 137.69 166.06 122.28 212.6 122.28C251.03 122.28 289.47 122.28 327.9 122.28C362.01 122.28 395.46 127.31 429.2 127.31C465.54 127.31 501.5 136.58 537.78 137.39C561.17 137.91 585.75 144.47 608.73 148.72C625.67 151.86 642.33 155.38 657.84 163.13C677.7 173.06 686.82 188.7 685.55 210.43C684.77 223.52 642.86 243.41 632.65 246.25C619.08 250.02 600.73 255.38 588.58 261.92C573.21 270.19 552.65 267.26 537.51 275.91C520.13 285.84 497.65 281.47 479.16 287.25C465.9 291.39 452.49 293.77 439.28 298.02C429.16 301.27 419.39 304.37 409.75 308.65C401.51 312.32 397.89 318.82 390.86 323.21C384.12 327.43 378.94 338.01 375.75 345.18C369.55 359.12 370.72 348.7 370.72 338.88" stroke="#FFFFFF" stroke-opacity="1.000000" stroke-width="6.000000" stroke-linecap="round"/>
	<path id="Vector 3821" d="M785.38 295.2C785.38 257.83 790.17 217.6 778.01 182.09C769.93 158.51 738.24 150.63 718.31 140.98C690.42 127.48 661.93 118.96 637.18 99.02C625.12 89.3 620.2 68.98 620.2 54.29C620.2 40.75 644.75 33.82 654.5 29.76C705.58 8.54 762 3 816.6 3C847.1 3 876.93 2.89 907.25 6.1C936.02 9.15 965.22 11.96 994.13 12.32C1018.34 12.62 1042.24 17.11 1066.35 18.62C1085.68 19.84 1104.66 25.64 1123.99 26.31C1133.11 26.63 1142.29 31.32 1151.26 32.61C1160.06 33.88 1168.65 37.61 1176.81 40.99C1183.81 43.89 1196.5 46.11 1197.56 55.84C1198.82 67.26 1202.19 78.02 1202.19 89.95C1202.19 111.1 1180.13 127.62 1161.29 130.53C1145.46 132.99 1128.73 129.53 1113.01 132.35C1098.28 134.98 1082.09 135.11 1067.12 135.11C1034.73 135.11 1001.04 138.61 969.95 148.32C953.92 153.33 936.41 158.98 921.23 166.2C910.12 171.48 898.19 174.83 887.36 180.96C873.65 188.73 863.18 199.38 850.22 208.16C839.54 215.4 832.62 221.48 825.6 232.08C821.15 238.82 816.28 245.25 811.63 252.03C806.77 259.08 803.75 267.54 798.59 274.22C796.25 277.25 793.1 288.44 793.1 292.1C793.1 301.32 785.38 303.26 785.38 293.65" stroke="#FFFFFF" stroke-opacity="1.000000" stroke-width="6.000000" stroke-linecap="round"/>
</svg>
