<svg width="233.294922" height="288.299805" viewBox="0 0 233.295 288.3" fill="none" xmlns="http://www.w3.org/2000/svg" xmlns:xlink="http://www.w3.org/1999/xlink">
	<desc>
			Created with Pixso.
	</desc>
	<defs>
		<radialGradient gradientTransform="translate(92.0904 174.379) rotate(117.44) scale(120.888 97.8142)" cx="0.000000" cy="0.000000" r="1.000000" id="paint_radial_2002_1314_0" gradientUnits="userSpaceOnUse">
			<stop stop-color="#FF1212"/>
			<stop offset="1.000000" stop-color="#FF00C3"/>
		</radialGradient>
	</defs>
	<path id="Ellipse 466" d="M1.97 136.33C1.97 199.22 -12.71 260.94 37.9 282.3C88.51 303.67 116.72 265.33 184.6 207.79C215.37 148.54 199.92 89.1 149.31 67.73C98.71 46.36 32.74 77.07 1.97 136.33Z" fill="url(#paint_radial_2002_1314_0)" fill-opacity="1.000000" fill-rule="nonzero"/>
	<path id="Polygon 31" d="M233.29 68.74L205.82 128.33L162.9 80.35L233.29 68.74Z" fill="#61D157" fill-opacity="1.000000" fill-rule="evenodd"/>
	<path id="Polygon 2" d="M181.81 12.8L180.59 88.98L126.72 70.56L181.81 12.8Z" fill="#61D157" fill-opacity="1.000000" fill-rule="evenodd"/>
	<path id="Polygon 3" d="M120.2 0L138.29 74.42L81.17 67.57L120.2 0Z" fill="#61D157" fill-opacity="1.000000" fill-rule="evenodd"/>
	<ellipse id="Ellipse 467" rx="5.000000" ry="4.500000" transform="matrix(-1 0 0 1 56.2715 199.545)" fill="#FFFFFF" fill-opacity="1.000000"/>
	<ellipse id="Ellipse 468" rx="8.000000" ry="4.500000" transform="matrix(-1 0 0 1 61.2715 136.545)" fill="#FFFFFF" fill-opacity="1.000000"/>
	<ellipse id="Ellipse 469" rx="6.000000" ry="3.500000" transform="matrix(-1 0 0 1 124.271 203.545)" fill="#FFFFFF" fill-opacity="1.000000"/>
	<ellipse id="Ellipse 470" rx="5.500000" ry="5.000000" transform="matrix(-1 0 0 1 154.771 101.045)" fill="#FFFFFF" fill-opacity="1.000000"/>
	<ellipse id="Ellipse 471" rx="7.000000" ry="5.000000" transform="matrix(-1 0 0 1 140.271 159.045)" fill="#FFFFFF" fill-opacity="1.000000"/>
	<ellipse id="Ellipse 472" rx="7.000000" ry="5.500000" transform="matrix(-1 0 0 1 92.2715 164.545)" fill="#FFFFFF" fill-opacity="1.000000"/>
	<ellipse id="Ellipse 473" rx="5.500000" ry="5.000000" transform="matrix(-1 0 0 1 100.771 111.045)" fill="#FFFFFF" fill-opacity="1.000000"/>
</svg>
