<svg width="1234" height="387" viewBox="0 0 1234 387" fill="none" xmlns="http://www.w3.org/2000/svg">
<path d="M3 160.354C3 195.456 44.0639 222.911 73.3663 235.679C126.901 259.006 175.548 258.199 233.786 258.199C264.967 258.199 296.068 243.948 321.5 226.749C352.599 205.717 401.279 174.221 418.766 139.387C430.484 116.044 437.569 81.0219 426.757 56.296C419.182 38.9703 382.038 -0.818449 359.315 3.29648C345.94 5.71844 330.112 29.9388 320.526 38.2412C274.822 77.8238 264.812 143.775 256.397 200.346C252.961 223.444 250.237 263.222 257.371 285.961C262.868 303.478 276.338 314.742 290.703 325.37C342.49 363.687 415.822 384 480.166 384C518.897 384 556.005 367.872 592.44 357.791C633.148 346.529 668.272 325.411 696.917 295.862C709.18 283.213 716.268 269.141 732.783 260.917C744.833 254.916 756.729 248.82 769.428 244.221C784.077 238.916 795.433 233.738 811.726 233.738C829.125 233.738 833.943 237.716 848.566 244.998C892.473 266.863 910.438 324.332 958.111 341.29C1011.79 360.383 1115.26 383.906 1148.55 317.605C1161.66 291.487 1175.05 267.339 1195.91 247.716C1206.97 237.319 1231 229.027 1231 212.771" stroke="#FFE6BD" stroke-width="5" stroke-linecap="round"/>
</svg>
