<svg width="564.377930" height="245.000000" viewBox="0 0 564.378 245" fill="none" xmlns="http://www.w3.org/2000/svg" xmlns:xlink="http://www.w3.org/1999/xlink">
	<desc>
			Created with Pixso.
	</desc>
	<defs/>
	<path id="Vector" d="M27.8 67.2L16.53 67.2L16.53 119.03L0 119.03L0 1.1L16.53 1.1L16.53 48.36L27.8 48.36L27.8 1.1L44.34 1.1L44.34 119.17L27.8 119.17L27.8 67.2Z" fill="#FFFFFF" fill-opacity="1.000000" fill-rule="nonzero"/>
	<path id="Vector" d="M72.79 120.42L69.58 120.42C56.38 120.42 49.33 112.66 49.33 98.11L49.33 74.41L65.74 74.41L65.74 95.06C65.74 100.46 67.4 103.37 71.12 103.37C75.09 103.37 76.5 100.46 76.5 93.26L76.5 90.62C76.5 82.17 75.73 79.26 69.71 70.81L59.33 55.98C52.28 46.14 50.23 38.52 50.23 26.74L50.23 23C50.23 7.34 57.54 0 70.61 0L73.68 0C87.27 0 92.65 6.51 92.65 20.5L92.65 39.9L76.63 39.9L76.63 22.86C76.63 18.84 75.86 15.93 71.89 15.93C67.91 15.93 67.02 18.56 67.02 24.25L67.02 26.46C67.02 33.11 68.17 36.72 73.81 44.62L84.32 59.31C91.75 69.84 94.19 75.8 94.19 89.1L94.19 92.84C94.19 110.16 87.27 120.42 72.79 120.42Z" fill="#FFFFFF" fill-opacity="1.000000" fill-rule="nonzero"/>
	<path id="Vector" d="M136.6 1.1L136.6 18.29L115.46 18.29L115.46 49.19L131.99 49.19L131.99 67.06L115.46 67.06L115.46 101.15L137.5 101.15L137.5 119.03L98.93 119.03L98.93 1.1L136.6 1.1Z" fill="#FFFFFF" fill-opacity="1.000000" fill-rule="nonzero"/>
	<path id="Vector" d="M182.23 96.86L170.18 96.86L168 119.03L153.14 119.03L166.46 0.97L186.07 0.97L200.3 119.03L184.28 119.03L182.23 96.86ZM180.43 79.26L176.08 35.61L171.85 79.26L180.43 79.26Z" fill="#FFFFFF" fill-opacity="1.000000" fill-rule="nonzero"/>
	<path id="Vector" d="M219.65 119.17L203.12 119.17L203.12 1.1L230.03 1.1C241.05 1.1 246.56 6.23 246.56 19.4L246.56 40.32C246.56 50.16 242.33 53.9 239.38 55.42C243.1 57.23 246.56 60.41 246.56 68.31L246.56 109.75C246.56 114.46 247.46 116.68 248.22 118.48L248.22 119.31L231.82 119.31C231.05 118.06 230.16 115.98 230.16 109.61L230.16 73.85C230.16 68.59 229.26 66.37 224 66.37L219.77 66.37L219.65 119.17ZM219.65 49.6L224 49.6C228.62 49.6 230.03 46.42 230.03 41.15L230.03 24.66C230.03 19.53 229 17.04 224 17.04L219.65 17.04L219.65 49.6Z" fill="#FFFFFF" fill-opacity="1.000000" fill-rule="nonzero"/>
	<path id="Vector" d="M280.01 18.15L280.01 119.03L263.6 119.03L263.6 18.15L249.63 18.15L249.63 1.1L293.97 1.1L293.97 18.29L280.01 18.15Z" fill="#FFFFFF" fill-opacity="1.000000" fill-rule="nonzero"/>
	<path id="Vector" d="M338.31 96.86L326.27 96.86L324.09 119.03L309.22 119.03L322.55 0.97L342.16 0.97L356.38 119.03L340.36 119.03L338.31 96.86ZM336.52 79.26L332.16 35.61L327.93 79.26L336.52 79.26Z" fill="#FFFFFF" fill-opacity="1.000000" fill-rule="nonzero"/>
	<path id="Vector" d="M374.07 1.1L388.29 64.43L388.29 1.1L403.42 1.1L403.42 119.17L389.96 119.17L374.07 51.27L374.07 119.17L359.08 119.17L359.08 1.1L374.07 1.1Z" fill="#FFFFFF" fill-opacity="1.000000" fill-rule="nonzero"/>
	<path id="Vector" d="M409.57 1.1L435.07 1.1C449.29 1.1 453.65 9.83 453.65 23.83L453.65 95.75C453.65 110.16 448.65 119.17 435.07 119.17L409.69 119.17L409.69 1.1L409.57 1.1ZM426.23 101.99L430.2 101.99C435.2 101.99 436.61 99.08 436.61 92.84L436.61 26.32C436.61 19.53 434.94 17.18 430.84 17.18L426.1 17.18L426.1 101.99L426.23 101.99Z" fill="#FFFFFF" fill-opacity="1.000000" fill-rule="nonzero"/>
	<path id="Vector" d="M0 125.27L25.37 125.27C39.59 125.27 43.95 134 43.95 147.99L43.95 219.91C43.95 234.33 38.95 243.33 25.37 243.33L0 243.33L0 125.27ZM16.53 226.29L20.5 226.29C25.5 226.29 26.91 223.38 26.91 217.14L26.91 150.63C26.91 143.84 25.24 141.48 21.14 141.48L16.4 141.48L16.4 226.29L16.53 226.29Z" fill="#FFFFFF" fill-opacity="1.000000" fill-rule="nonzero"/>
	<path id="Vector" d="M87.65 125.27L87.65 142.45L66.5 142.45L66.5 173.35L83.04 173.35L83.04 191.23L66.5 191.23L66.5 225.32L88.55 225.32L88.55 243.19L49.85 243.19L49.85 125.27L87.65 125.27Z" fill="#FFFFFF" fill-opacity="1.000000" fill-rule="nonzero"/>
	<path id="Vector" d="M114.95 244.58L111.74 244.58C98.54 244.58 91.5 236.82 91.5 222.27L91.5 198.57L107.9 198.57L107.9 219.22C107.9 224.62 109.56 227.54 113.28 227.54C117.25 227.54 118.66 224.62 118.66 217.42L118.66 214.79C118.66 206.33 117.89 203.42 111.87 194.97L101.36 180.42C94.31 170.58 92.26 162.96 92.26 151.18L92.26 147.44C92.26 131.78 99.57 124.44 112.64 124.44L115.72 124.44C129.43 124.44 134.68 130.95 134.68 144.94L134.68 164.35L118.66 164.35L118.66 147.3C118.66 143.28 117.89 140.37 113.92 140.37C109.95 140.37 109.05 143 109.05 148.69L109.05 150.9C109.05 157.55 110.21 161.16 115.84 169.06L126.35 183.75C133.78 194.28 136.22 200.24 136.22 213.54L136.22 217.28C136.35 234.33 129.43 244.58 114.95 244.58Z" fill="#FFFFFF" fill-opacity="1.000000" fill-rule="nonzero"/>
	<path id="Vector" d="M157.62 243.33L141.09 243.33L141.09 125.27L157.62 125.27L157.62 243.33Z" fill="#FFFFFF" fill-opacity="1.000000" fill-rule="nonzero"/>
	<path id="Vector" d="M179.15 245C169.41 245 163.26 235.57 163.26 223.38L163.26 149.52C163.26 136.35 168 124.16 183.64 124.16L186.84 124.16C204.65 124.16 206.7 136.63 206.7 150.63L206.7 162.68L190.56 162.68L190.56 149.38C190.56 144.11 189.4 141.34 185.3 141.34C181.84 141.34 180.18 144.25 180.18 149.38L180.18 218.39C180.18 223.93 182.23 226.84 185.56 226.84C189.79 226.84 191.71 223.66 191.71 219.22L191.71 189.7L184.28 189.7L184.28 171.55L207.47 171.55L207.47 243.33L198.12 243.33C197.99 242.64 196.71 236.82 195.3 231.69C194.14 235.71 188.51 244.86 180.18 244.86L179.15 244.86L179.15 245Z" fill="#FFFFFF" fill-opacity="1.000000" fill-rule="nonzero"/>
	<path id="Vector" d="M228.23 125.27L242.46 188.6L242.46 125.27L257.58 125.27L257.58 243.33L244.12 243.33L228.23 175.43L228.23 243.33L213.24 243.33L213.24 125.27L228.23 125.27Z" fill="#FFFFFF" fill-opacity="1.000000" fill-rule="nonzero"/>
	<path id="Vector" d="M300.89 244.58L297.69 244.58C284.49 244.58 277.44 236.82 277.44 222.27L277.44 198.57L293.85 198.57L293.85 219.22C293.85 224.62 295.51 227.54 299.23 227.54C303.2 227.54 304.61 224.62 304.61 217.42L304.61 214.79C304.61 206.33 303.84 203.42 297.82 194.97L287.31 180.42C280.26 170.58 278.21 162.96 278.21 151.18L278.21 147.44C278.21 131.78 285.52 124.44 298.59 124.44L301.66 124.44C315.25 124.44 320.63 130.95 320.63 144.94L320.63 164.35L304.61 164.35L304.61 147.3C304.61 143.28 303.84 140.37 299.87 140.37C295.9 140.37 295 143 295 148.69L295 150.9C295 157.55 296.15 161.16 301.79 169.06L312.3 183.75C319.73 194.28 322.17 200.24 322.17 213.54L322.17 217.28C322.29 234.33 315.38 244.58 300.89 244.58Z" fill="#FFFFFF" fill-opacity="1.000000" fill-rule="nonzero"/>
	<path id="Vector" d="M354.08 219.36L354.08 191.92L370.35 191.92L370.35 219.22C370.35 231.97 366.51 244.72 350.49 244.72L346.77 244.72C329.98 244.72 326.4 231.69 326.4 219.77L326.4 147.72C326.4 135.66 331.27 124.02 346.26 124.02L350.1 124.02C368.3 124.02 370.35 137.05 370.35 148.55L370.35 169.61L354.08 169.61L354.08 148.82C354.08 143.7 352.67 141.06 348.44 141.06C344.34 141.06 343.31 143.56 343.31 148.82L343.31 218.94C343.31 224.21 344.98 226.98 348.57 226.98C352.67 227.4 354.08 224.21 354.08 219.36Z" fill="#FFFFFF" fill-opacity="1.000000" fill-rule="nonzero"/>
	<path id="Vector" d="M403.54 191.51L392.27 191.51L392.27 243.33L375.73 243.33L375.73 125.27L392.27 125.27L392.27 172.52L403.54 172.52L403.54 125.27L420.07 125.27L420.07 243.33L403.54 243.33L403.54 191.51Z" fill="#FFFFFF" fill-opacity="1.000000" fill-rule="nonzero"/>
	<path id="Vector" d="M471.21 217C471.21 233.49 466.08 244.72 450.06 244.72L447.24 244.72C431.35 244.72 425.84 233.49 425.84 217L425.84 151.32C425.84 134.97 431.61 124.16 447.12 124.16L449.93 124.16C466.08 124.16 471.21 134.97 471.21 151.18L471.21 217ZM454.29 150.35C454.29 144.11 452.37 141.34 448.52 141.34C444.3 141.34 442.63 144.39 442.63 150.35L442.63 218.25C442.63 223.38 443.91 227.26 448.65 227.26C453.01 227.26 454.29 223.24 454.29 218.25L454.29 150.35Z" fill="#FFFFFF" fill-opacity="1.000000" fill-rule="nonzero"/>
	<path id="Vector" d="M521.83 217C521.83 233.49 516.7 244.72 500.68 244.72L497.86 244.72C481.97 244.72 476.46 233.49 476.46 217L476.46 151.32C476.46 134.97 482.23 124.16 497.74 124.16L500.56 124.16C516.7 124.16 521.83 134.97 521.83 151.18L521.83 217ZM504.91 150.35C504.91 144.11 502.99 141.34 499.14 141.34C494.92 141.34 493.25 144.39 493.25 150.35L493.25 218.25C493.25 223.38 494.53 227.26 499.27 227.26C503.63 227.26 504.91 223.24 504.91 218.25L504.91 150.35Z" fill="#FFFFFF" fill-opacity="1.000000" fill-rule="nonzero"/>
	<path id="Vector" d="M544.13 125.27L544.13 225.04L564.37 225.04L564.37 243.33L527.59 243.33L527.59 125.27L544.13 125.27Z" fill="#FFFFFF" fill-opacity="1.000000" fill-rule="nonzero"/>
</svg>
