<svg width="569" height="650" viewBox="0 0 569 650" fill="none" xmlns="http://www.w3.org/2000/svg">
<path d="M92.3915 493.491C70.2705 486.531 59.21 479.788 59.21 473.263C59.21 469.783 61.153 468.151 65.0391 468.369C70.4199 468.369 76.548 469.348 83.4235 471.305C90.2989 473.045 97.3238 474.459 104.498 475.547C129.011 441.833 156.811 419.756 187.9 409.316C198.363 405.836 208.826 403.987 219.288 403.77C239.915 403.77 255.609 407.467 266.37 414.862C277.431 422.04 282.961 430.849 282.961 441.289C282.961 459.995 269.06 474.459 241.26 484.682C218.541 492.947 187.601 498.059 148.441 500.016C134.391 525.247 127.367 552.327 127.367 581.255C127.367 602.788 134.242 615.295 147.993 618.775C157.559 621.167 164.733 621.276 169.516 619.101C174.299 616.709 178.036 613.663 180.726 609.966C183.416 606.051 184.762 600.396 184.762 593C185.06 585.605 182.221 579.406 176.242 574.403C170.562 569.183 165.032 564.398 159.651 560.048C162.342 552.87 166.228 546.889 171.31 542.104C180.875 532.751 189.096 528.075 195.972 528.075C202.847 528.075 208.377 529.815 212.562 533.295C217.046 536.775 220.633 541.125 223.324 546.345C226.014 551.565 228.107 557.22 229.601 563.311C231.395 569.401 233.338 575.056 235.431 580.276C237.523 585.496 240.064 589.846 243.053 593.327C246.342 596.807 250.527 598.547 255.609 598.547C260.989 598.547 265.772 597.133 269.957 594.305C274.142 591.26 277.879 587.998 281.167 584.518C284.455 581.037 287.445 577.884 290.135 575.056C292.826 572.011 295.516 570.488 298.206 570.488C301.196 570.488 304.036 572.228 306.726 575.709C309.715 579.189 311.21 582.451 311.21 585.496C311.21 592.457 306.427 600.722 296.861 610.292C287.594 619.862 275.637 624.648 260.989 624.648C246.342 624.43 234.982 622.146 226.911 617.796C221.829 626.931 213.16 634.544 200.904 640.634C188.648 646.724 171.16 649.77 148.441 649.77C126.021 649.77 106.74 645.528 90.5979 637.045C71.1673 626.823 61.452 610.945 61.452 589.411C61.452 558.743 71.7651 526.77 92.3915 493.491ZM233.637 447.162C233.338 439.549 229.452 435.743 221.979 435.743C214.804 435.743 205.388 439.767 193.73 447.815C182.071 455.862 170.861 467.064 160.1 481.419C192.683 477.287 214.954 470 226.911 459.56C231.096 455.645 233.338 451.512 233.637 447.162Z" fill="white"/>
<path d="M361.719 583.654C351.966 583.654 343.114 582.205 335.164 579.305C327.214 576.353 320.901 572.11 316.225 566.575C311.548 560.987 309.21 554.239 309.21 546.332C309.21 539.373 310.947 533.733 314.421 529.41C317.895 525.035 322.538 521.608 328.35 519.13C334.162 516.653 340.575 514.808 347.59 513.595C354.671 512.33 361.786 511.329 368.934 510.591C378.287 509.642 385.87 508.93 391.682 508.456C397.561 507.928 401.836 507.059 404.508 505.846C407.248 504.634 408.617 502.525 408.617 499.52V498.888C408.617 491.086 405.911 485.023 400.5 480.701C395.156 476.378 387.039 474.217 376.149 474.217C364.859 474.217 356.007 476.167 349.594 480.068C343.181 483.969 338.671 488.134 336.066 492.562L313.619 486.236C317.627 478.856 322.972 473.11 329.653 468.998C336.4 464.833 343.749 461.934 351.698 460.3C359.715 458.613 367.598 457.77 375.348 457.77C380.291 457.77 385.97 458.244 392.383 459.193C398.863 460.089 405.11 461.96 411.122 464.807C417.202 467.654 422.245 471.95 426.254 477.696C430.262 483.442 432.266 491.138 432.266 500.785V580.808H408.617V564.36H407.415C405.811 566.996 403.139 569.816 399.398 572.821C395.657 575.826 390.68 578.383 384.467 580.491C378.254 582.6 370.671 583.654 361.719 583.654ZM365.327 566.891C374.68 566.891 382.563 565.441 388.976 562.542C395.456 559.642 400.333 555.9 403.607 551.313C406.947 546.727 408.617 541.904 408.617 536.843V519.763C407.615 520.712 405.41 521.582 402.003 522.372C398.663 523.11 394.788 523.769 390.379 524.349C386.037 524.876 381.795 525.351 377.653 525.773C373.577 526.142 370.271 526.458 367.732 526.722C361.586 527.354 355.84 528.382 350.496 529.805C345.218 531.176 340.943 533.258 337.669 536.052C334.463 538.793 332.859 542.536 332.859 547.281C332.859 553.765 335.899 558.667 341.978 561.988C348.124 565.257 355.907 566.891 365.327 566.891Z" fill="white"/>
<path d="M461.21 580.743V418.917H493.21V443.36H495.456C499.386 435.353 506.497 428.856 516.789 423.869C527.082 418.882 538.684 416.389 551.596 416.389C554.029 416.389 557.07 416.424 560.719 416.494C564.368 416.564 567.129 416.67 569 416.81V442.095C567.877 441.885 565.304 441.569 561.281 441.147C557.351 440.656 553.187 440.41 548.789 440.41C538.31 440.41 528.953 442.06 520.719 445.361C512.579 448.592 506.122 453.087 501.351 458.847C496.672 464.536 494.333 471.033 494.333 478.338V580.743H461.21Z" fill="white"/>
<path d="M150.878 83.5476C140.082 103.783 126.047 127.483 108.772 154.648C91.6784 181.814 82.9514 195.812 82.5915 196.644L82.3216 199.554C82.3216 202.049 82.8614 203.296 83.941 203.296C85.0207 203.296 87.09 201.91 90.1489 199.138C93.2079 196.366 102.655 186.665 118.489 170.033C134.504 153.124 155.286 129.146 180.838 98.1004C206.389 66.7772 227.442 37.6716 243.996 10.7835C246.695 6.62558 249.664 4.54661 252.903 4.54661C258.301 4.54661 261 9.39755 261 19.0994C261 25.1977 257.851 33.7908 251.553 44.8787C249.214 49.0366 246.245 54.1647 242.646 60.2631C239.228 66.3614 236.978 70.2421 235.899 71.9053C234.999 73.5685 230.231 81.8844 221.594 96.853C213.137 111.822 204.14 127.622 194.603 144.254C185.066 160.885 173.82 180.566 160.865 203.296C148.089 226.026 136.213 247.093 125.237 266.497C101.485 308.908 85.9204 337.737 78.5429 352.982C71.3454 368.505 65.8573 380.563 62.0786 389.156C58.4798 397.75 55.6008 404.68 53.4416 409.946C51.4623 415.213 49.4829 420.202 47.5036 424.915C43.9049 433.231 40.3961 437.389 36.9772 437.389C33.5584 437.389 30.3195 433.369 27.2606 425.331C24.2017 417.292 22.6722 410.223 22.6722 404.125C22.6722 391.928 27.4405 375.851 36.9772 355.893C42.3754 344.528 58.2099 316.392 84.4809 271.487C110.752 226.304 126.856 199.416 132.794 190.823C133.874 188.882 134.414 187.496 134.414 186.665C134.414 185.833 134.054 185.417 133.334 185.417C132.614 185.417 131.085 186.665 128.746 189.159C126.406 191.654 121.998 196.228 115.52 202.881C109.042 209.533 103.374 215.216 98.516 219.928C93.8376 224.64 87.5398 230.6 79.6226 237.807C71.8852 245.014 65.0476 250.836 59.1096 255.271C44.1748 266.913 32.7487 272.734 24.8314 272.734C17.0941 272.734 10.9762 268.022 6.47777 258.597C2.15926 249.172 0 239.47 0 229.491C0 219.512 1.25957 210.365 3.7787 202.049C6.83764 191.238 22.7622 165.32 51.5522 124.295C80.3423 83.2704 96.7167 57.0753 100.675 45.7103C101.035 44.6015 101.215 43.7699 101.215 43.2155C101.215 42.6611 100.675 42.3839 99.5957 42.3839C98.696 42.3839 97.8863 42.7997 97.1665 43.6313C96.4467 44.4629 94.2875 46.5419 90.6887 49.8682C87.09 53.1946 83.4912 56.5209 79.8925 59.8473C69.636 68.7176 63.698 73.1527 62.0786 73.1527C60.6391 73.1527 59.1996 72.1825 57.7601 70.2421C56.5005 68.0246 55.8707 65.3912 55.8707 62.342C55.8707 55.1349 59.8294 46.6805 67.7466 36.9786C75.8438 27.2767 85.8304 18.8222 97.7063 11.6151C109.582 4.13082 120.468 0.388672 130.365 0.388672C150.698 0.388672 160.865 16.0503 160.865 47.3734C160.865 52.9174 160.055 58.7385 158.435 64.8368C156.816 70.9351 155.107 75.6475 153.307 78.9738L150.878 83.5476Z" fill="white"/>
<path d="M490.297 391.361V191.381H520.224V391.361H490.297ZM505.514 158.051C499.681 158.051 494.651 156.011 490.424 151.932C486.281 147.853 484.21 142.949 484.21 137.22C484.21 131.491 486.281 126.587 490.424 122.508C494.651 118.428 499.681 116.389 505.514 116.389C511.348 116.389 516.336 118.428 520.478 122.508C524.705 126.587 526.819 131.491 526.819 137.22C526.819 142.949 524.705 147.853 520.478 151.932C516.336 156.011 511.348 158.051 505.514 158.051Z" fill="white"/>
<path d="M453.388 160.01V190.238H341.21V160.01H453.388ZM373.905 104.389H407.164V325.664C407.164 335.74 408.526 343.297 411.251 348.335C414.069 353.273 417.639 356.598 421.961 358.311C426.377 359.923 431.028 360.729 435.913 360.729C439.577 360.729 442.584 360.527 444.932 360.124C447.281 359.621 449.16 359.218 450.569 358.915L457.334 390.958C455.079 391.865 451.932 392.771 447.892 393.678C443.852 394.686 438.732 395.19 432.531 395.19C423.136 395.19 413.928 393.023 404.909 388.691C395.984 384.358 388.562 377.758 382.643 368.891C376.818 360.024 373.905 348.839 373.905 335.337V104.389Z" fill="white"/>
<path d="M198.21 381.389V148.389H326.549V173.418H223.961V252.146H319.903V277.176H223.961V356.359H328.21V381.389H198.21Z" fill="white"/>
</svg>
