<svg width="533" height="1211" viewBox="0 0 533 1211" fill="none" xmlns="http://www.w3.org/2000/svg">
<path d="M156.537 356.609C156.537 367.97 173.864 378.126 180.517 385.518C191.932 398.202 204.484 409.352 216.486 421.355C229.282 434.15 239.648 449.312 252.456 462.12C256.51 466.174 267.061 483.05 269.242 476.508" stroke="#EDA634" stroke-width="10" stroke-linecap="round"/>
<path d="M125.753 572.724C126.688 580.205 173.089 558.644 178.246 556.433C197.46 548.199 213.768 534.235 231.644 524.304C242.307 518.38 256.232 508.389 263.773 498.962C267.073 494.838 272.177 474.979 264.226 474.979" stroke="#EDA634" stroke-width="10" stroke-linecap="round"/>
<path d="M78.9167 527.923C65.3131 529.435 47.4654 554.672 39.9994 564.804C26.6908 582.866 13.8386 602.611 10.1327 625.217C7.41386 641.801 5.60742 657.758 5.60742 674.542C5.60742 691.824 22.1039 714.689 32.5327 727.488C45.9174 743.914 59.6157 745.815 80.048 745.815C91.4215 745.815 104.65 747.652 115.684 744.457C132.506 739.588 149.211 729.138 165.123 721.831C184.952 712.726 198.765 702.369 215.353 688.797C239.484 669.054 263.402 650.62 285.721 628.611C319.988 594.82 352.301 559.402 373.738 515.705C386.18 490.342 398.542 456.43 383.467 429.725C364.746 396.562 314.446 365.679 276.897 387.867C261.803 396.786 248.534 410.141 234.699 420.901C230.67 424.034 225.535 426.557 225.535 432.214" stroke="#EDA634" stroke-width="10" stroke-linecap="round"/>
<path d="M85.4134 661.01C85.4134 654.764 85.4134 648.518 85.4134 642.272C85.4134 636.512 84.3675 637.93 87.6821 640.508C93.7999 645.266 103.465 646.526 110.285 650.423C118.664 655.211 110.185 656.453 105.748 658.321C99.0669 661.134 91.9475 662.281 85.4134 665.548" stroke="#FFE6BD" stroke-width="3" stroke-linecap="round"/>
<path d="M86.9254 608.073C86.9254 601.014 84.1045 580.585 87.2615 586.899C90.7993 593.974 100.942 592.346 107.26 595.217C119.403 600.737 96.1844 607.225 91.4628 609.586" stroke="#FFE6BD" stroke-width="3" stroke-linecap="round"/>
<path d="M68.7763 603.536C68.7763 600.736 67.1304 581.035 70.2888 580.849C73.7992 580.643 86.6845 581.039 86.926 585.387C87.2553 591.313 79.83 609.996 74.8262 597.487" stroke="#FFE6BD" stroke-width="3" stroke-linecap="round"/>
<path d="M52.1385 668.573C52.1385 662.775 52.1385 656.977 52.1385 651.179C52.1385 646.672 50.613 643.181 54.4913 644.289C59.6476 645.762 74.5922 640.489 71.0445 650.423C69.0657 655.963 70.6302 662.76 70.2882 668.573C69.9476 674.363 56.0183 670.94 53.651 668.573" stroke="#FFE6BD" stroke-width="3" stroke-linecap="round"/>
<path d="M55.1639 626.223C55.1639 621.571 50.6363 612.964 52.2229 608.998C52.5638 608.145 55.4982 611.442 55.9201 611.771C57.7697 613.209 60.6233 613.828 62.7262 614.879C67.0808 617.057 71.5459 619.331 75.6663 621.686C81.4024 624.963 72.8791 633.273 68.7761 633.785C65.5135 634.193 65.2523 636.653 63.0624 632.273C61.7334 629.615 60.7784 626.005 58.1888 624.711" stroke="#FFE6BD" stroke-width="3" stroke-linecap="round"/>
<path d="M112.063 630.648C112.063 623.262 113.309 617.458 116.753 610.761C118.951 606.486 117.932 611.891 118.49 613.627C119.543 616.904 121.96 620.089 123.961 622.832C124.983 624.232 133.389 634.64 125.35 631.256C122.321 629.98 109.719 631.859 109.719 628.303" stroke="#FFE6BD" stroke-width="3" stroke-linecap="round"/>
<path d="M32.9071 645.123C32.9071 641.741 32.3478 638.493 32.2213 635.142C32.1423 633.048 29.6566 629.585 30.2022 627.675C30.423 626.902 41.8445 630.385 43.536 630.761C48.3251 631.825 42.5954 638.232 41.5169 639.79C40.2591 641.607 34.2785 649.156 34.2785 644.438" stroke="#FFE6BD" stroke-width="3" stroke-linecap="round"/>
<path d="M45.9739 577.616C44.8248 581.637 45.9358 587.452 45.9358 591.635C48.3162 590.842 49.5551 588.867 51.5741 587.521C53.1053 586.5 55.2392 585.993 56.9076 585.159C59.5592 583.833 63.6674 580.758 58.8124 579.14C57.6218 578.743 46.2363 576.697 45.9739 577.616Z" stroke="#FFE6BD" stroke-width="3" stroke-linecap="round"/>
<path d="M23.9919 586.15C23.9919 580.923 23.6849 575.596 23.9919 570.378C24.0332 569.676 39.3886 567.319 36.4876 573.121C34.6132 576.87 31.4233 579.861 30.0111 583.941C29.4621 585.527 28.6986 588.323 26.7348 588.208C25.5047 588.135 26.0491 584.294 26.0491 583.407" stroke="#FFE6BD" stroke-width="3" stroke-linecap="round"/>
<path d="M52.6973 668.305C52.6973 665.416 56.6701 661.809 58.441 659.69C60.3233 657.438 62.0779 655.122 63.9258 652.863C65.1903 651.318 67.4729 650.618 68.3748 648.814" stroke="#FFE6BD" stroke-width="3" stroke-linecap="round"/>
<path d="M55.4727 624.752C59.5931 624.752 69.008 623.337 70.7762 619.801" stroke="#FFE6BD" stroke-width="3" stroke-linecap="round"/>
<path d="M39.7327 708.895C36.0801 708.895 32.662 705.92 29.7963 703.914C28.8718 703.267 28.2686 702.839 27.7335 701.876C27.169 700.86 28.9216 701.196 29.5196 701.096C32.7437 700.559 35.8752 699.521 38.9278 698.38C41.7328 697.331 44.8751 696.825 47.5813 695.562C49.194 694.81 50.6 695.011 50.6 696.77C50.6 701.805 47.1574 704.911 44.8142 708.895C44.4201 709.565 43.6085 711.199 43.1288 710.932C41.6589 710.116 40.1516 709.954 38.8271 708.895" stroke="#FFE6BD" stroke-width="3" stroke-linecap="round"/>
<path d="M98.8162 443.473C98.8162 450.574 98.8162 457.675 98.8162 464.776C98.8162 468.212 98.8162 471.648 98.8162 475.084C98.8162 479.331 99.2544 473.864 101.565 472.64C116.774 464.588 99.6993 455.743 96.0674 444.847" stroke="#FFE6BD" stroke-width="3" stroke-linecap="round"/>
<path d="M76.8258 457.216C76.8258 454.421 75.1021 434.638 77.5893 433.928C80.5585 433.079 93.0271 438.054 96.0673 439.654C105.937 444.849 84.1145 457.077 79.5746 458.59" stroke="#FFE6BD" stroke-width="3" stroke-linecap="round"/>
<path d="M87.8208 392.62C83.595 392.62 75.4512 394.155 75.4512 387.809C75.4512 385.187 69.4473 374.495 70.2591 373.684C71.998 371.945 82.0972 374.321 84.3848 374.829C87.6887 375.563 88.7932 388.431 89.1952 391.245" stroke="#FFE6BD" stroke-width="3" stroke-linecap="round"/>
<path d="M113.934 389.871C113.934 383.379 110.722 373.378 118.744 373.378C122.051 373.378 139.051 370.638 135.619 377.501C132.929 382.88 133.001 386.188 131.725 391.932C130.962 395.367 119.232 394.969 118.057 392.62" stroke="#FFE6BD" stroke-width="3" stroke-linecap="round"/>
<path d="M97.4417 367.88C97.4417 364.349 95.4825 354.679 99.1215 357.954C103.095 361.53 112.862 359.446 117.752 359.634C124.951 359.911 116.907 366.611 115.003 367.88C111.038 370.524 107.028 374.082 102.939 376.126" stroke="#FFE6BD" stroke-width="3" stroke-linecap="round"/>
<path d="M61.7074 407.738C61.7074 405.245 61.1955 390.774 63.0818 391.551C69.0294 394 80.132 391.898 84.7668 397.048C87.1474 399.693 80.6905 408.936 78.2002 410.181C74.4341 412.064 64.5661 413.236 60.333 413.236" stroke="#FFE6BD" stroke-width="3" stroke-linecap="round"/>
<path d="M86.4457 404.989C86.4457 403.463 84.9084 391.516 86.7512 390.176C88.6254 388.813 94.8486 392.65 96.7537 393.23C100.13 394.257 105.811 394.065 108.131 397.048C109.279 398.524 99.2934 401.722 98.1281 402.24C94.4402 403.879 91.9433 406.583 91.9433 400.865" stroke="#FFE6BD" stroke-width="3" stroke-linecap="round"/>
<path d="M156.54 453.093C156.54 447.311 155.368 440.311 156.617 434.691C156.681 434.403 165.969 438.772 168.223 439.273C180.424 441.984 163.721 457.834 162.038 454.467" stroke="#FFE6BD" stroke-width="3" stroke-linecap="round"/>
<path d="M166.161 414.61C166.161 409.57 166.161 404.531 166.161 399.491C166.161 392.652 168.774 398.332 172.728 399.797C175.851 400.953 187.52 404.246 182.654 409.112C180.144 411.622 177.594 414.019 175.095 416.518C174.058 417.555 171.659 419.547 171.659 418.733" stroke="#FFE6BD" stroke-width="3" stroke-linecap="round"/>
<path d="M145.546 598.78C145.546 593.104 143.514 576.483 145.622 581.753C148.08 587.897 157.988 589.318 163.413 591.602C170.015 594.382 161.551 595.08 158.603 596.718C156.208 598.048 153.477 596.686 151.043 597.711C148.786 598.662 148.078 600.154 145.546 600.154" stroke="#FFE6BD" stroke-width="3" stroke-linecap="round"/>
<path d="M106.399 539.872C106.399 535.592 105.241 529.354 106.437 525.168C106.656 524.403 107.607 525.299 107.923 525.473C109.516 526.351 111.505 526.158 113.256 526.158C116.601 526.158 119.613 526.503 122.856 526.844C127.263 527.308 123.925 532.818 122.132 534.387C119.035 537.096 114.535 542.295 110.513 543.301" stroke="#FFE6BD" stroke-width="3" stroke-linecap="round"/>
<path d="M95.4276 510.388C93.1555 507.889 91.6214 503.172 91.3515 499.798C91.2764 498.859 90.6831 493.824 91.3134 494.084C95.7154 495.896 101.659 494.338 106.399 494.617C109.359 494.791 105.19 502.636 104.342 503.531C102.651 505.315 101.936 506.06 99.9226 507.341C98.516 508.236 98.0867 510.739 97.4846 508.331" stroke="#FFE6BD" stroke-width="3" stroke-linecap="round"/>
<path d="M158.511 499.418C158.511 494.344 158.223 489.202 158.549 484.142C158.649 482.599 158.858 478.119 160.035 476.942C160.796 476.181 161.227 479.61 161.292 479.837C161.936 482.091 164.374 483.487 166.054 484.98C167.321 486.106 176.595 492.228 173.863 494.961C172.099 496.724 168.459 495.874 166.206 496.675C163.808 497.528 161.737 497.563 159.883 499.418" stroke="#FFE6BD" stroke-width="3" stroke-linecap="round"/>
<path d="M181.825 464.447C181.825 460.488 181.487 456.388 181.863 452.447C182.127 449.67 181.832 448.926 183.348 450.581C186.334 453.837 194.392 455.418 198.586 456.181C203.717 457.113 196.144 460.107 194.434 460.714C192.227 461.497 180.844 466.747 179.768 465.133" stroke="#FFE6BD" stroke-width="3" stroke-linecap="round"/>
<path d="M193.481 439.763C193.481 434.867 196.589 429.838 198.928 425.744C199.585 424.595 203.766 417.119 203.766 417.135C204.155 424.131 206.709 429.198 209.595 435.61C211.204 439.187 210.743 440.448 206.776 440.448C201.353 440.448 196.124 442.505 190.738 442.505" stroke="#FFE6BD" stroke-width="3" stroke-linecap="round"/>
<path d="M183.196 509.703C183.196 505.144 183.196 500.585 183.196 496.027C183.196 495.3 182.631 490.32 184.034 491.722C187.656 495.345 195.013 495.128 199.957 496.027C205.376 497.012 197.915 503.649 196.529 504.56C192.697 507.077 188.549 509.926 185.253 513.131C184.068 514.282 181.678 516.805 181.139 515.188" stroke="#FFE6BD" stroke-width="3" stroke-linecap="round"/>
<path d="M211.309 483.646C211.309 480.04 211.309 476.434 211.309 472.828C211.309 471.659 210.532 466.9 211.462 465.971C212.553 464.879 218.055 465.854 219.538 465.666C222.672 465.269 226.181 463.769 229.404 464.485C232.277 465.123 223.329 479.656 222.661 480.484C220.956 482.599 219.456 485.491 217.138 487.037C216.263 487.62 215.423 489.858 215.423 487.76" stroke="#FFE6BD" stroke-width="3" stroke-linecap="round"/>
<path d="M169.77 539.988C169.77 536.755 168.671 534.639 167.834 531.627C167.141 529.132 164.193 524.148 164.931 521.563C165.255 520.431 165.577 522.349 165.589 522.569C165.668 523.987 167.544 524.861 168.686 525.318C171.252 526.344 174.027 526.053 176.738 526.053C180.729 526.053 178.361 531.77 177.086 534.066C175.571 536.793 174.725 539.798 172.905 542.427C171.408 544.59 170.467 546.754 170.467 542.775" stroke="#FFE6BD" stroke-width="3" stroke-linecap="round"/>
<path d="M215.756 500.97C219.43 500.97 222.005 502.577 225.201 504.298C229.871 506.813 230.312 508.525 230.388 501.124C230.451 495.045 235.67 477.485 235.266 483.55C235.157 485.182 226.176 489.578 224.969 490.363C221.981 492.309 219.126 495.341 216.995 498.182C216.441 498.921 213.666 503.695 213.666 500.97" stroke="#FFE6BD" stroke-width="3" stroke-linecap="round"/>
<path d="M252.059 437.303C253.13 437.303 256.023 438.42 256.613 437.682C258.977 434.727 261.194 431.059 263.401 427.858C264.149 426.774 273.046 415.929 272.214 415.461C270.384 414.431 266.018 415.292 264.034 415.292C260.845 415.292 248.058 414.934 249.065 419.467C250.301 425.026 251.3 429.976 251.3 435.785" stroke="#FFE6BD" stroke-width="3" stroke-linecap="round"/>
<path d="M277.105 420.606C277.105 418.762 276.306 404.667 277.864 404.667C284 404.667 291.311 406.1 297.514 406.986C302.571 407.709 297.45 412.762 295.363 414.196C292.545 416.134 289.789 418.693 287.267 421.027C285.954 422.243 281.59 427.227 280.9 425.16" stroke="#FFE6BD" stroke-width="3" stroke-linecap="round"/>
<path d="M280.9 450.206C280.9 446.791 280.9 443.375 280.9 439.96C280.9 436.529 290.504 438.062 293.086 438.062C294.02 438.062 300.3 437.099 299.833 439.201C299.38 441.239 297.451 442.526 296.839 444.514C295.786 447.936 292.617 453.095 289.249 454.591C286.862 455.652 283.936 450.579 283.936 448.688" stroke="#FFE6BD" stroke-width="3" stroke-linecap="round"/>
<path d="M249.264 569.198C249.264 565.045 249.264 560.892 249.264 556.74C249.264 554.935 248.635 549.649 249.305 551.325C251.064 555.721 260.425 556.728 264.246 557.798C266.568 558.448 270.135 557.729 271.819 559.834C273.042 561.362 268.575 564.045 267.748 564.963C265.462 567.503 264.323 571.272 262.048 573.961C260.238 576.1 258.896 580.838 256.959 582.388C255.492 583.562 253.19 573.385 252.196 571.396" stroke="#FFE6BD" stroke-width="3" stroke-linecap="round"/>
<path d="M297.63 532.556C297.63 527.209 297.63 521.862 297.63 516.515C297.63 513.994 296.12 508.373 299.462 508.373C301.686 508.373 312.24 506.58 312.287 507.803C312.414 511.117 310.49 513.917 310.129 517.167C309.529 522.566 309.55 528.29 308.582 533.615C308.446 534.364 308.142 538.573 307.727 538.989C305.051 541.665 299.829 533.535 299.829 531.823" stroke="#FFE6BD" stroke-width="3" stroke-linecap="round"/>
<path d="M304.226 487.854C304.226 483.484 304.226 479.114 304.226 474.744C304.226 471.467 305.039 473.121 307.32 473.197C312.126 473.358 316.963 473.197 321.773 473.197C324.874 473.197 324.017 474.374 322.18 475.803C319.494 477.892 315.882 480.679 314.485 483.823C313.465 486.118 311.507 487.917 310.251 490.052C309.261 491.735 308.623 493.132 308.623 490.052" stroke="#FFE6BD" stroke-width="3" stroke-linecap="round"/>
<path d="M339.401 469.533C339.401 462.279 339.104 455.373 340.867 448.322C342.14 443.229 345.375 446.816 349.62 446.816C355.276 446.816 352.089 450.811 350.963 453.574C349.043 458.287 345.105 462.656 342.169 466.765C341.337 467.931 336.835 475.028 336.47 474.663" stroke="#FFE6BD" stroke-width="3" stroke-linecap="round"/>
<path d="M47.4083 552.825C47.4083 549.792 45.1242 537.389 49.9249 539.235C52.7168 540.309 62.0434 537.568 62.0434 542.371C62.0434 545.146 58.257 547.988 56.1197 549.65C54.2758 551.084 53.5501 553.936 51.5897 554.916" stroke="#FFE6BD" stroke-width="3" stroke-linecap="round"/>
<path d="M79.466 508.223C77.6138 508.223 65.6184 509.068 65.5277 507.526C65.4038 505.42 65.2688 503.683 64.8308 501.602C64.3251 499.2 63.503 498.626 66.2246 498.466C68.9378 498.307 72.0969 492.846 75.2845 494.44C79.2508 496.423 76.1932 504.496 79.466 506.132" stroke="#FFE6BD" stroke-width="3" stroke-linecap="round"/>
<path d="M126.856 345.145C127.352 340.684 135.894 337.593 139.014 335.04C139.404 334.721 143.157 330.938 143.544 332.291C144.081 334.173 143.582 336.956 143.582 338.873C143.582 340.475 144.391 351.926 142.885 352.115C140.393 352.426 139.982 352.095 137.31 350.721C135.044 349.555 130.488 348.374 129.644 345.842" stroke="#FFE6BD" stroke-width="3" stroke-linecap="round"/>
<path d="M154.732 352.115C156.819 352.115 168.555 350.905 167.625 353.508C166.265 357.318 166.58 362.04 166.58 366.053C166.58 367.216 167.493 372.722 165.535 372.286C163.939 371.932 163.379 369.33 162.747 368.066C160.69 363.952 156.126 360.419 156.126 355.599" stroke="#FFE6BD" stroke-width="3" stroke-linecap="round"/>
<path d="M135.916 397.414C138.156 399.654 140.855 401.322 143.117 403.531C145.036 405.403 145.673 406 145.673 402.989C145.673 398.808 145.673 394.626 145.673 390.445C145.673 387.99 146.6 383.168 143.505 386.263C141.012 388.756 137.31 390.548 137.31 394.626" stroke="#FFE6BD" stroke-width="3" stroke-linecap="round"/>
<path d="M200.032 403.685C196.346 403.317 193.033 399.015 190.276 396.871C188.294 395.33 186.791 394.365 186.791 391.838" stroke="#FFE6BD" stroke-width="3" stroke-linecap="round"/>
<path d="M235.575 421.109C235.575 415.482 235.575 409.855 235.575 404.228C235.575 400.928 235.195 400.523 238.13 402.68C241.208 404.941 246.535 406.867 248.777 410.23C251.194 413.854 249.474 414.271 246.996 417.702C244.507 421.149 240.113 424.665 236.736 427.227C234.351 429.036 232.787 431.488 232.787 427.381" stroke="#FFE6BD" stroke-width="3" stroke-linecap="round"/>
<path d="M267.632 389.051C267.632 383.179 267.632 377.307 267.632 371.435C267.632 369.078 267.911 369.857 269.568 370.39C273.821 371.757 279.539 370.99 282.965 374.416C285.437 376.889 277.649 380.883 276.15 382.082C273.699 384.043 270.745 386.305 268.717 388.703C268.422 389.051 266.936 391.365 266.936 390.445" stroke="#FFE6BD" stroke-width="3" stroke-linecap="round"/>
<path d="M294.115 389.748C294.435 386.552 297.185 383.302 298.297 380.301C298.97 378.483 299.789 376.469 300.736 374.764C303.121 370.472 306.648 375.178 309.409 377.939C310.601 379.131 319.013 386.765 315.72 388.509C310.49 391.277 303.31 391.108 297.6 392.536" stroke="#FFE6BD" stroke-width="3" stroke-linecap="round"/>
<path d="M135.187 573.68C135.187 576.725 135.311 579.793 135.142 582.832C135.079 583.976 133.156 593.665 135.187 591.127C136.224 589.831 138.389 589.142 139.65 587.881C141.189 586.342 142.217 584.502 143.707 583.012C145.115 581.604 145.472 580.124 147.359 579.18C149.959 577.88 148.125 577.197 146.367 576.115C144.054 574.691 141.014 574.217 138.433 573.5C136.227 572.887 134.26 571.246 131.941 571.246" stroke="#FFE6BD" stroke-width="3" stroke-linecap="round"/>
<path d="M166.022 557.452C168.057 557.706 184.177 571.829 184.505 571.246C185.363 569.722 185.219 566.17 185.542 564.394C185.925 562.289 187.311 558.893 188.337 557.046C196.345 542.632 168.899 555.091 166.834 550.96" stroke="#FFE6BD" stroke-width="3" stroke-linecap="round"/>
<path d="M222.823 535.543C223.853 535.646 230.017 540.654 230.126 538.788C230.265 536.423 230.042 534.033 230.126 531.666C230.315 526.396 232.272 520.273 234.184 515.437C236.254 510.2 234.658 511.527 230.126 512.822C226.114 513.968 216.422 517.505 216.422 522.83C216.422 523.134 218.13 525.254 218.405 525.805C219.556 528.106 220.201 530.352 221.245 532.703C221.904 534.184 225.258 542.529 225.258 540.411" stroke="#FFE6BD" stroke-width="3" stroke-linecap="round"/>
<path d="M256.904 509.576C256.904 504.452 256.904 499.328 256.904 494.204C256.904 491.095 256.863 490.667 259.339 491.905C262.409 493.44 273.133 491.48 273.133 495.782C273.133 500.698 269.229 503.305 267.634 507.773C266.801 510.105 261.35 516.001 260.15 511.199" stroke="#FFE6BD" stroke-width="3" stroke-linecap="round"/>
<path d="M83.2537 682.416C83.2537 685.449 83.1878 688.489 83.2537 691.522C83.3049 693.875 84.7511 695.575 84.8766 697.833C85.2083 703.804 94.2928 694.242 96.0566 693.145C98.0613 691.897 102.5 689.237 103.72 687.284C105.14 685.013 104.18 685.009 101.106 684.219C97.9275 683.402 80.8193 680.612 80.8193 677.547" stroke="#FFE6BD" stroke-width="3" stroke-linecap="round"/>
<path d="M109.22 673.49C109.22 670.966 108.489 667.151 110.167 664.969C112.828 661.51 114.344 663.889 116.704 665.375C120.441 667.728 127.907 667.382 130.949 670.424C133.654 673.129 119.733 675.151 118.958 675.293C116.751 675.698 106.786 681.249 106.786 678.358" stroke="#FFE6BD" stroke-width="3" stroke-linecap="round"/>
<path d="M62.1568 688.907C62.1568 695.651 59.3981 664.29 64.4108 668.801C68.9412 672.879 72.5958 677.657 76.7629 682.055C80.0316 685.505 81.6523 687.84 76.7629 689.899C73.8399 691.13 69.4456 692.153 66.214 692.153" stroke="#FFE6BD" stroke-width="3" stroke-linecap="round"/>
<path d="M78.3852 727.045C74.7717 727.045 71.4701 719.791 69.8649 716.902C68.6727 714.756 64.019 703.431 68.242 704.37C72.869 705.398 77.5706 705.13 80.0081 710.005C82.6715 715.331 82.4424 721.153 82.4424 726.234" stroke="#FFE6BD" stroke-width="3" stroke-linecap="round"/>
<path d="M121.393 708.382C125.1 707.455 118.908 691.052 123.827 691.342C125.331 691.43 128.446 693.536 130.499 693.956C134.31 694.736 138.665 693.688 142.31 694.768C150.171 697.097 138.05 703.379 135.368 705.136C133 706.687 130.626 708.075 128.696 710.005C126.503 712.198 126.261 711.119 126.261 708.382" stroke="#FFE6BD" stroke-width="3" stroke-linecap="round"/>
<path d="M148.17 664.563C148.17 660.266 148.17 655.968 148.17 651.67C148.17 649.586 146.661 639.866 148.35 637.966C148.561 637.729 156.597 641.937 157.096 643.06C158.815 646.929 156.738 648.96 155.022 652.391C153.958 654.52 152.685 656.233 151.822 658.477C151.454 659.433 150.604 663.349 150.604 660.506" stroke="#FFE6BD" stroke-width="3" stroke-linecap="round"/>
<path d="M162.776 622.367C162.776 617.769 162.776 613.171 162.776 608.573C162.776 608.072 162.815 600.572 164.399 603.343C166.018 606.176 178.054 602.802 178.194 605.327C178.575 612.183 178.194 619.148 178.194 626.019C178.194 630.497 165.211 628.049 165.211 624.802" stroke="#FFE6BD" stroke-width="3" stroke-linecap="round"/>
<path d="M333.303 388.809C335.34 388.3 344.944 379.337 344.283 386.278C343.871 390.604 343.74 393.973 344.283 398.319C344.439 399.567 345.216 400.774 345.058 402.033C344.842 403.766 341.034 398.657 340.814 398.36C338.019 394.598 333.262 390.153 331.834 385.87" stroke="#FFE6BD" stroke-width="3" stroke-linecap="round"/>
<path d="M360.487 394.686C363.552 394.686 374.548 392.473 373.67 397.298C372.8 402.085 370.772 407.08 370.772 411.951C370.772 420.498 366.549 410.798 364.895 408.074C362.961 404.888 359.752 397.805 359.752 393.951" stroke="#FFE6BD" stroke-width="3" stroke-linecap="round"/>
<path d="M381.793 432.89C387.905 432.89 394.019 433.155 400.079 432.319C403.77 431.81 403.099 433.483 403.099 436.564C403.099 439.37 403.834 441.833 403.834 444.645C403.834 447.398 404.499 449.054 401.221 449.054C395.796 449.054 390.145 447.095 384.732 446.278C382.165 445.891 378.083 446.461 378.895 442.809C379.27 441.122 380.258 437.331 381.793 436.564" stroke="#FFE6BD" stroke-width="3" stroke-linecap="round"/>
<path d="M219.824 682.889C223.988 682.889 225.896 687.2 229.739 687.2C231.276 687.2 234.636 687.787 235.631 686.433C237.022 684.542 236.206 680.054 236.206 677.716C236.206 672.505 236.721 671.108 230.985 672.543C227.573 673.395 225.389 675.277 222.411 676.854C221.248 677.469 218.1 679.614 218.1 679.44" stroke="#FFE6BD" stroke-width="3" stroke-linecap="round"/>
<path d="M209.478 617.363C211.334 617.363 228.373 618.819 228.446 616.118C228.652 608.483 229.709 585.595 229.308 593.222C229.096 597.254 220.444 602.097 218.099 605.484C216.156 608.292 215.52 610.657 214.459 613.723C213.595 616.22 212.885 617.883 211.202 615.639" stroke="#FFE6BD" stroke-width="3" stroke-linecap="round"/>
<path d="M213.788 563.907C218.268 563.907 220.54 565.172 224.518 566.877C224.825 567.008 226.562 552.798 227.967 550.591C231.373 545.237 224.558 548.867 221.74 550.112C218.146 551.7 210.733 557.555 209.478 561.32" stroke="#FFE6BD" stroke-width="3" stroke-linecap="round"/>
<path d="M166.584 674.512C168.789 674.512 180.389 678.465 180.449 676.919C180.677 670.984 179.204 663.814 182.567 658.53C183.589 656.924 183.405 656.503 182.182 658.241C179.965 661.391 175.694 662.991 172.265 664.499C168.093 666.335 164.671 669.662 160.519 671.046" stroke="#FFE6BD" stroke-width="3" stroke-linecap="round"/>
<path d="M203.845 642.452C211.001 642.452 214.242 642.884 219.875 647.266C226.445 652.375 225.508 645.845 225.508 640.526C225.508 637.424 227.238 629.07 221.945 631.716C216.546 634.416 211.397 637.596 205.866 640.045C202.607 641.487 198.608 642.489 196.046 645.051" stroke="#FFE6BD" stroke-width="3" stroke-linecap="round"/>
<path d="M245.438 628.588C248.758 628.957 249.546 634.653 253.236 634.653C255.429 634.653 258.033 627.134 258.82 625.603C260.98 621.405 263.924 613.492 267.486 610.439C267.914 610.071 256.555 609.82 254.151 610.872C251.811 611.896 249.785 612.741 248.085 614.723C247.358 615.572 245.438 619.559 245.438 616.456" stroke="#FFE6BD" stroke-width="3" stroke-linecap="round"/>
<path d="M283.564 569.664C289.919 569.664 296.273 569.664 302.628 569.664C307.212 569.664 305.227 562.05 305.227 558.399C305.227 552.298 304.902 553.206 300.028 556.184C293.475 560.189 285.616 563.781 278.365 566.198" stroke="#FFE6BD" stroke-width="3" stroke-linecap="round"/>
<path d="M267.101 539.335C269.449 539.335 278.849 542.427 279.184 540.586C280.216 534.91 279.232 528.164 279.232 522.389C279.232 522.239 279.357 518.025 279.039 518.057C277.795 518.181 274.648 522.352 273.648 523.352C271.562 525.438 269.719 530.663 267.101 531.536" stroke="#FFE6BD" stroke-width="3" stroke-linecap="round"/>
<path d="M328.624 550.6C328.624 548.604 327.533 527.044 328.816 526.723C329.222 526.621 329.562 527.862 329.683 528.071C330.684 529.8 332.817 531.241 334.352 532.403C338.923 535.862 344.492 537.732 348.891 541.454C358.035 549.191 337.32 557.594 336.423 555.799" stroke="#FFE6BD" stroke-width="3" stroke-linecap="round"/>
<path d="M197.779 597.393C197.779 593.663 197.56 589.855 197.779 586.128C197.893 584.185 212.06 587.816 214.05 587.861C224.956 588.109 209.326 597.252 205.578 599.126" stroke="#FFE6BD" stroke-width="3" stroke-linecap="round"/>
<path d="M201.245 673.647C201.245 668.484 200.942 663.21 201.245 658.05C201.285 657.369 202.633 660.576 203.026 661.034C205.606 664.044 212.704 664.461 215.928 667.148C220.901 671.292 208.008 677.98 204.711 677.98" stroke="#FFE6BD" stroke-width="3" stroke-linecap="round"/>
<path d="M154.453 723.905C154.453 730.418 159.091 729.31 162.637 733.87C167.839 740.558 166.995 727.211 167.403 723.953C167.822 720.597 169.29 718.108 170.724 715.239C172.213 712.261 165.206 715.608 163.985 715.913C160.088 716.887 156.753 719.011 152.913 720.246C150.348 721.07 149.254 723.945 149.254 720.438" stroke="#FFE6BD" stroke-width="3" stroke-linecap="round"/>
<path d="M85.9978 750.767C85.9978 756.764 85.7642 762.746 88.5974 768.097C90.4331 771.565 90.6709 769.717 92.0635 767.423C95.0467 762.51 98.5319 758.503 102.414 754.233C104.363 752.089 106.892 749.607 108.046 746.916C108.332 746.248 102.422 746.434 101.595 746.434C98.0463 746.434 87.7609 748.287 86.8644 744.701" stroke="#FFE6BD" stroke-width="3" stroke-linecap="round"/>
<path d="M280.965 632.053C284.066 632.053 300.895 633.861 300.895 630.32C300.895 625.554 300.895 620.789 300.895 616.023C300.895 613.975 301.821 608.598 298.729 611.69C296.81 613.609 294.289 614.347 292.278 616.023C290.052 617.877 288.428 619.033 286.598 621.27C284.773 623.5 282.612 627.331 280.099 628.587" stroke="#FFE6BD" stroke-width="3" stroke-linecap="round"/>
<path d="M324.291 595.66C327.595 595.66 337.926 597.664 339.696 593.927C341.464 590.194 337.829 583.277 337.289 579.629C337.135 578.586 336.795 572.174 335.46 572.842C332.838 574.153 331.087 577.054 328.672 578.715C325.939 580.594 324.314 584.526 322.991 587.476C320.971 591.984 317.772 595.7 315.626 599.993" stroke="#FFE6BD" stroke-width="3" stroke-linecap="round"/>
<path d="M365.064 536.736C369.695 536.736 376.987 538.19 381.128 535.754C382.497 534.949 382.198 531.113 381.529 529.909C379.705 526.625 380.324 520.786 380.324 517.147C380.324 507.46 372.389 516.672 369.481 520.226C365.718 524.825 361.048 541.875 361.048 535.933" stroke="#FFE6BD" stroke-width="3" stroke-linecap="round"/>
<path d="M383.537 492.561C383.537 485.929 386.984 479.838 388.981 473.641C389.211 472.928 391.602 464.223 392.997 466.859C393.911 468.584 393.085 470.784 394.336 472.659C396.263 475.55 398.819 478.044 400.806 480.914C403.313 484.536 406.929 490.444 400.36 491.757C397.059 492.418 378.317 502.2 377.915 501.396" stroke="#FFE6BD" stroke-width="3" stroke-linecap="round"/>
<path d="M387.461 690.047C391.412 706.468 399.446 720.923 403.34 737.106C407.343 753.743 408.357 771.393 412.394 788.171C417.709 810.261 416.764 834.919 424.944 856.517C426.215 859.873 430.103 861.771 431.036 865.651C432.069 869.942 433.136 875.663 433.163 879.988C433.213 888.026 435.583 898.326 431.393 905.613C429.571 908.783 426.306 911.612 427.167 915.535C432.325 939.02 448.703 983.468 434.323 1005.74C432.311 1008.86 430.857 1007.48 427.544 1007.8C424.6 1008.09 435.635 1015.43 437.072 1016.86C441.539 1021.32 455.523 1037.03 442.818 1041.35C435.954 1043.69 419.866 1035.01 415.737 1029.28C408.015 1018.56 413.699 1035.57 414.548 1041.43C416.203 1052.87 399.785 1046.78 394.874 1043.96C389.611 1040.93 383.252 1037.81 379.724 1032.91C378.312 1030.95 375.382 1026.24 374.654 1031.38C374.166 1034.83 374.7 1056.13 365.724 1052.91C363.425 1052.08 358.618 1049.39 357.33 1047.34C356.027 1045.26 355.297 1033.61 351.48 1039.52C349.107 1043.19 351.244 1048.37 349.636 1052.31C348.141 1055.98 345.119 1059.5 342.978 1062.81C337.583 1071.17 333.464 1070.61 324.996 1065.34C323.418 1064.36 318.749 1057.53 318.5 1057.59C314.752 1058.37 314.977 1065.97 313.179 1068.45C309.172 1073.98 292.587 1074.47 286.62 1070.76C273.748 1062.76 260.719 1053.86 255.85 1039.08C251.547 1026.01 247.427 1015.84 247.187 1001.85C246.623 969.034 240.383 936.336 243.079 903.546C244.44 886.999 243.937 870.319 243.652 853.703C243.57 848.933 237.547 829.036 232.926 841.804C231.637 845.367 233.435 850.852 232.667 854.773C230.686 864.88 232.212 875.269 232.426 885.533C232.691 898.257 236.439 910.734 236.632 923.474C236.785 933.635 236.99 944.677 238.354 954.757C240.378 969.718 246.25 988.106 244.239 1003.04C242.091 1018.99 245.213 1032.09 248.645 1047.61C251.761 1061.71 252.439 1077.67 246.321 1090.79C243.465 1096.91 237.74 1108 230.474 1109.52C224.186 1110.83 217.258 1105.02 212.084 1101.8C204.15 1096.87 202.105 1106.05 194.823 1101.52C191.636 1099.54 175.795 1090.23 172.993 1090.5C160.029 1091.77 146.288 1067.51 141.235 1059.6C126.579 1036.66 121.233 1004.33 121.034 977.782C120.916 962.003 128.55 947.916 132.466 933.065C144.374 887.914 158.328 843.495 171.264 798.694C176.332 781.14 182.746 764.49 188.324 747.135C194.373 728.317 205.482 711.443 212.258 692.996C219.883 672.236 228.839 648.744 240.801 630.218C245.435 623.04 246.539 618.641 244.774 611.308C244.385 609.692 260.804 596.941 262.617 595.677C279.079 584.2 302.126 567.878 323.946 575.716C329.096 577.566 333.436 580.785 336.418 585.098C339.36 589.355 337.89 598.987 342.746 588.801C347.882 578.029 346.555 581.128 355.988 583.673C360.904 584.999 364.238 588.335 364.862 593.375C365.165 595.823 367.769 583.745 368.146 582.286C369.485 577.108 375.579 587.23 376.597 588.704C381.878 596.343 384.505 601.648 381.709 611.172C377.487 625.559 384.647 639.87 387.959 653.638C390.568 664.481 393.276 675.163 396.385 685.604C397.822 690.427 406.041 694.161 409.741 697.744C415.336 703.162 417.908 714.439 421.182 721.476C442.262 766.779 447.373 817.187 457.496 865.372C465.712 904.485 478.997 949.525 472.073 989.476C469.914 1001.93 473.183 1018.51 466.614 1030.01C464.702 1033.35 463.64 1036.52 459.649 1034.04C456.896 1032.33 452.536 1030.89 452.836 1027.71" stroke="#A6BFDD" stroke-width="10" stroke-linecap="round"/>
<path d="M413.532 1060.57C407.766 1069.5 402.001 1078.43 396.236 1087.36C389.63 1097.59 390.156 1116.16 390.199 1127.87C390.267 1146.31 393.06 1172.15 411.322 1182.26C419.034 1186.53 428.451 1186.66 436.69 1191.78C438.992 1193.21 441.188 1193.98 441.824 1196.6C442.804 1200.64 439.07 1196.92 436.976 1196.59C431.531 1195.75 423.531 1192.78 418.11 1193.9C411.611 1195.24 411.121 1202.93 405.538 1204.74C402.196 1205.82 394.099 1198.44 391.047 1196.77C387.506 1194.84 379.868 1196.13 375.528 1195.46C362.404 1193.44 349.543 1191.63 336.739 1189.65C300.532 1184.06 329.702 1121.22 319.449 1103.23C316.741 1098.48 305.948 1088.89 300.354 1088.69C293.046 1088.43 285.529 1097.45 283.281 1103.68C278.028 1118.23 270.481 1133.54 276.531 1149.43C279.386 1156.93 280.616 1163.98 285.962 1171.05C291.146 1177.91 302.198 1185.31 304.32 1194.06C306.133 1201.53 300.688 1203.16 295.283 1199.79C292.786 1198.24 279.937 1190.88 284.403 1199.75C288.963 1208.8 276.086 1204.54 272.807 1202.5C268.523 1199.84 263.572 1195.55 259.806 1200.68C251.716 1211.68 238.998 1200.25 229.999 1194.66C223.607 1190.68 225.093 1183.99 220.524 1180.42C216.814 1177.52 212.757 1167.38 211.074 1162.95C209.175 1157.97 206.442 1134.12 206.687 1134.27" stroke="#A6BFDD" stroke-width="10" stroke-linecap="round"/>
<path d="M224.554 706.671C219.983 707.243 221.194 708.081 224.152 703.051C225.974 699.953 227.861 704.861 222.744 704.861" stroke="#DDA6A7" stroke-width="10" stroke-linecap="round"/>
<path d="M278.86 722.963C283.183 727.827 277.049 729.544 277.049 726.583C277.049 723.758 282.408 724.773 275.239 724.773" stroke="#DDA6A7" stroke-width="10" stroke-linecap="round"/>
<path d="M307.823 721.152C307.823 728.781 319.166 721.152 307.823 721.152" stroke="#DDA6A7" stroke-width="10" stroke-linecap="round"/>
<path d="M340.406 721.153C343.763 721.572 341.678 727.051 341.412 726.784C338.906 724.279 336.933 719.269 340.406 717.532" stroke="#DDA6A7" stroke-width="10" stroke-linecap="round"/>
<path d="M371.18 717.532C374.84 717.989 379.246 728.137 372.587 728.393C366.411 728.631 359.426 718.883 365.749 715.722" stroke="#DDA6A7" stroke-width="10" stroke-linecap="round"/>
<path d="M250.629 951.289C250.629 950.933 250.629 958.347 250.629 960.451C250.629 966.137 252.533 965.892 257.73 967.782C265.606 970.646 271.693 967.78 279.033 968.698C281.849 969.05 277.43 974.221 277.43 977.059C277.43 980.498 282.438 983.697 285.676 984.16C295.016 985.494 308.354 985.915 308.354 974.997C308.354 969.41 309.965 974.211 310.874 976.028C313.18 980.641 320.993 982.469 325.305 984.274C332.424 987.255 346.827 995.468 354.74 989.314C359.807 985.373 359.894 970.759 359.894 970.759C359.894 970.759 361.875 974.97 363.559 976.486C367.816 980.318 375.101 981.269 380.052 984.274C388.066 989.14 392.085 986.118 395.972 979.12C400.343 971.253 394.101 976.028 405.25 976.028C411.957 976.028 416.784 975.331 419.681 968.812C420.425 967.138 426.338 951.013 422.315 951.632C408.909 953.695 396.349 956.258 382.343 957.015C362.664 958.079 342.375 959.535 322.785 959.535C310.569 959.535 293.828 962.337 282.011 959.077C276.797 957.639 259.033 959.85 256.814 955.412" stroke="#F70C10" stroke-width="10" stroke-linecap="round"/>
<path d="M419 398.465C419 376.844 418.783 361.569 404.529 344.365C386.782 322.947 344.344 316.961 319.26 313.865C300.566 311.557 281.863 308.225 263.156 305.85C247.726 303.89 232.343 303.159 217.071 299.839C194.678 294.971 167.639 289.465 148.5 275.794C140.026 269.741 131.949 265.921 124.455 258.206C113.519 246.949 106.06 230.795 99.9653 216.573C92.0363 198.072 90.7915 181.184 88.8336 161.36C86.4481 137.207 101.737 111.958 112.878 91.2305C138.406 43.737 182.401 20.9651 233.991 9.3012C261.035 3.18685 290.075 3.73535 317.701 3.73535C344.303 3.73535 366.772 5.91244 391.838 15.3123C419.419 25.6551 455.103 41.4991 476.662 62.2881C498.022 82.8854 510.849 105.013 519.185 133.531C535.655 189.875 534.619 254.624 502.042 305.404C483.171 334.822 463.637 364.267 445.048 393.79C442.465 397.893 438.013 417.826 432.581 412.937C427.608 408.461 422.507 396.295 416.996 394.458" stroke="white" stroke-width="6" stroke-linecap="round"/>
</svg>
