<svg width="535" height="1236" viewBox="0 0 535 1236" fill="none" xmlns="http://www.w3.org/2000/svg">
<path d="M301.51 374.547C297.666 366.689 309.2 390.263 313.045 398.121C319.407 411.124 329.962 417.844 340.023 427.19C351.739 438.074 373.504 446.867 389.357 447.693C408.492 448.69 407.21 426.891 401.435 415.088C397.483 407.01 393.809 398.716 389.549 390.796C384.616 381.624 375.729 377.409 368.394 370.595C356.212 359.279 338.513 359.256 323.33 359.125C297.534 358.903 287.008 381.117 270.677 398.829C252.834 418.18 235.01 436.634 219.937 458.508C216.81 463.046 187.372 506.547 195.274 506.615" stroke="#EDA634" stroke-width="10" stroke-linecap="round"/>
<path d="M403.885 441.92C393.681 446.913 392.172 466.941 388.457 476.165C382.081 491.993 377.581 508.168 372.075 524.224C366.205 541.341 357.142 557.316 351.266 574.45C349.407 579.873 338.885 596.768 345.72 595.851" stroke="#EDA634" stroke-width="10" stroke-linecap="round"/>
<path d="M196.231 509.25C189.922 513.378 229.682 545.58 233.934 549.242C249.775 562.881 269.486 571.393 286.263 583.085C296.27 590.06 311.365 598.177 323.146 600.808C328.301 601.959 348.383 597.815 344.889 590.674" stroke="#EDA634" stroke-width="10" stroke-linecap="round"/>
<path d="M215.887 447.49C208.551 435.935 178.038 430.995 165.655 428.742C143.583 424.726 120.198 421.859 98.2641 428.466C82.172 433.312 67.0454 438.702 51.969 446.079C36.4455 453.675 23.1577 478.541 16.2445 493.534C7.37191 512.776 11.685 525.916 20.6649 544.269C25.6635 554.485 29.8275 567.175 37.5464 575.683C49.3132 588.652 66.0418 599.065 79.5984 610.146C96.4916 623.956 111.866 631.812 131.347 640.747C159.687 653.745 186.756 667.128 216.336 677.503C261.748 693.432 307.763 706.892 356.435 706.942C384.686 706.971 420.58 703.172 437.942 677.893C459.503 646.502 465.137 587.747 428.704 563.771C414.059 554.133 396.231 548.083 380.486 540.385C375.901 538.144 371.378 534.64 366.296 537.126" stroke="#EDA634" stroke-width="10" stroke-linecap="round"/>
<path d="M99.1995 511.816C104.81 509.071 110.42 506.326 116.031 503.581C121.205 501.049 119.472 500.733 118.613 504.843C117.027 512.43 120.144 521.665 119.641 529.504C119.022 539.135 114.18 532.065 110.552 528.9C105.089 524.135 100.93 518.244 95.1237 513.81" stroke="#FFE6BD" stroke-width="3" stroke-linecap="round"/>
<path d="M147.414 489.91C153.754 486.808 170.865 475.295 166.581 480.906C161.781 487.193 167.701 495.588 167.898 502.525C168.277 515.858 152.245 497.854 148.049 494.651" stroke="#FFE6BD" stroke-width="3" stroke-linecap="round"/>
<path d="M143.513 471.613C146.028 470.382 163.001 460.245 164.556 463.001C166.284 466.063 171.592 477.811 167.792 479.939C162.614 482.839 142.569 484.381 151.606 474.388" stroke="#FFE6BD" stroke-width="3" stroke-linecap="round"/>
<path d="M77.7828 485.252C82.9907 482.704 88.1985 480.156 93.4064 477.607C97.4547 475.627 99.9203 472.722 100.629 476.693C101.572 481.972 112.877 493.078 102.395 494.257C96.5484 494.915 91.1314 499.307 85.7595 501.555C80.4089 503.793 77.3615 489.777 78.4475 486.61" stroke="#FFE6BD" stroke-width="3" stroke-linecap="round"/>
<path d="M117.152 469.356C121.331 467.311 127.072 459.462 131.332 459.144C132.247 459.075 130.575 463.16 130.466 463.683C129.987 465.977 130.685 468.812 130.665 471.163C130.623 476.032 130.542 481.042 130.238 485.778C129.815 492.371 118.605 488.367 116.341 484.907C114.541 482.155 112.217 483.002 115.189 479.11C116.992 476.748 119.815 474.304 119.84 471.408" stroke="#FFE6BD" stroke-width="3" stroke-linecap="round"/>
<path d="M138.184 522.411C144.819 519.165 150.58 517.732 158.109 517.883C162.915 517.979 157.612 519.438 156.298 520.702C153.817 523.089 152.018 526.66 150.434 529.662C149.625 531.196 143.97 543.321 143.478 534.613C143.292 531.331 136.065 520.837 139.26 519.274" stroke="#FFE6BD" stroke-width="3" stroke-linecap="round"/>
<path d="M183.432 463.727C187.488 461.742 191.544 459.757 195.601 457.773C197.329 456.927 192.222 459.933 191.295 461.62C189.993 463.99 189.26 477.337 185.685 477.223C183.549 477.155 180.844 469.108 179.907 467.192C177.631 462.542 182.428 464.686 185.866 465.146" stroke="#FFE6BD" stroke-width="3" stroke-linecap="round"/>
<path d="M90.3935 457.67C93.432 456.184 96.103 454.254 99.0578 452.668C100.904 451.677 102.923 447.922 104.878 447.572C105.669 447.431 107.56 459.221 107.966 460.906C109.115 465.675 100.842 463.344 98.9683 463.06C96.7836 462.729 87.3738 460.675 91.6122 458.601" stroke="#FFE6BD" stroke-width="3" stroke-linecap="round"/>
<path d="M156.774 439.739C152.656 440.474 147.922 444.028 144.164 445.866C145.923 447.656 148.241 447.901 150.338 449.123C151.928 450.049 153.321 451.743 154.804 452.875C157.16 454.674 161.728 457.013 161.047 451.941C160.881 450.697 157.714 439.571 156.774 439.739Z" stroke="#FFE6BD" stroke-width="3" stroke-linecap="round"/>
<path d="M139.448 423.745C144.143 421.448 148.793 418.831 153.615 416.813C154.263 416.542 163.129 429.299 156.643 429.243C152.452 429.207 148.363 427.656 144.078 428.181C142.412 428.385 139.565 428.928 138.805 427.113C138.33 425.976 142.019 424.777 142.816 424.387" stroke="#FFE6BD" stroke-width="3" stroke-linecap="round"/>
<path d="M123.983 438.945C124.91 438.492 133.405 433.437 134.14 434.739C136.048 438.12 136.931 441.938 138.101 445.61C138.938 448.235 141.05 451.207 138.28 452.563C135.768 453.792 133.826 451.864 131.387 451.736C129.665 451.647 119.456 451.363 118.894 450.215C118.334 449.07 121.527 446.107 121.939 444.908C122.638 442.867 121.426 439.433 123.682 438.329" stroke="#FFE6BD" stroke-width="3" stroke-linecap="round"/>
<path d="M81.6608 441.47C84.3266 439.818 85.7335 435.092 87.7249 432.67C89.1153 430.979 90.6432 429.423 92.0632 427.76C92.1224 427.691 93.535 425.763 93.5898 425.847C94.0367 426.53 93.531 428.638 93.9478 429.625C94.8433 431.746 95.8794 434.254 96.2838 436.519C96.9007 439.973 97.1694 440.882 93.8891 442.487C90.8912 443.953 87.7515 444.622 84.3931 444.67C83.7273 444.68 79.8658 445.365 80.6994 444.274" stroke="#FFE6BD" stroke-width="3" stroke-linecap="round"/>
<path d="M107.475 437.007C108.584 434.302 110.401 431.926 111.81 429.377C112.572 428 112.641 425.253 114.144 424.411C116.282 423.214 119.969 430.047 121.088 431.448C121.512 431.98 123.56 433.648 122.495 434.324C120.831 435.381 119.391 436.426 117.574 437.315C114.27 438.932 110.431 438.477 107.214 440.051" stroke="#FFE6BD" stroke-width="3" stroke-linecap="round"/>
<path d="M74.7296 457.111C75.1872 456.887 71.3355 455.907 70.8095 455.788C67.6839 455.081 64.7323 454.272 61.5123 454.537C58.5771 454.778 58.2853 453.391 57.9185 456.133C57.3228 460.587 56.665 465.155 55.7331 469.549C55.5144 470.58 53.2929 474.767 54.0795 475.64C55.4836 477.199 64.5838 468.895 64.932 468.613C67.1133 466.842 75.3927 461.736 75.4204 458.523" stroke="#FFE6BD" stroke-width="3" stroke-linecap="round"/>
<path d="M78.2667 485.637C80.8626 484.366 85.8486 486.35 88.53 487.009C91.3801 487.71 94.2316 488.268 97.0724 488.936C99.0164 489.392 100.648 491.135 102.665 491.153" stroke="#FFE6BD" stroke-width="3" stroke-linecap="round"/>
<path d="M118.609 468.988C120.42 472.689 125.829 480.524 129.782 480.558" stroke="#FFE6BD" stroke-width="3" stroke-linecap="round"/>
<path d="M36.1105 491.829C34.5051 488.548 35.675 484.17 36.2174 480.715C36.3924 479.6 36.5111 478.87 37.1411 477.966C37.8057 477.013 38.2742 478.734 38.6265 479.228C40.5262 481.888 42.8349 484.244 45.2018 486.485C47.3767 488.543 49.212 491.144 51.5357 493.019C52.9204 494.137 53.3571 495.489 51.7778 496.262C47.2546 498.475 42.9518 496.747 38.3437 496.393C37.5687 496.334 35.7442 496.323 35.7727 495.775C35.8602 494.096 35.3428 492.671 35.7125 491.016" stroke="#FFE6BD" stroke-width="3" stroke-linecap="round"/>
<path d="M300.491 428.248C294.113 431.369 287.734 434.49 281.356 437.611C278.269 439.121 275.183 440.631 272.097 442.141C268.282 444.008 273.385 441.999 275.5 443.537C289.417 453.659 289.858 434.434 298.049 426.383" stroke="#FFE6BD" stroke-width="3" stroke-linecap="round"/>
<path d="M278.483 414.536C280.993 413.308 298.005 403.065 299.737 404.987C301.804 407.281 302.815 420.668 302.714 424.102C302.386 435.25 281.811 421.022 278.456 417.61" stroke="#FFE6BD" stroke-width="3" stroke-linecap="round"/>
<path d="M315.122 442.511C317.473 441.361 332.337 432.18 333.243 435.94C334.961 443.075 337.882 450.222 339.17 457.436C340.15 462.921 327.14 455.951 326.074 455.514C322.22 453.933 317.702 447.451 314.465 447.423" stroke="#FFE6BD" stroke-width="3" stroke-linecap="round"/>
<path d="M341.337 396.023C339.48 392.227 334.522 385.586 340.222 382.797C342.577 381.645 349.542 371.553 350.628 371.925C352.954 372.723 355.259 382.839 355.808 385.117C356.6 388.408 345.527 395.055 343.176 396.653" stroke="#FFE6BD" stroke-width="3" stroke-linecap="round"/>
<path d="M355.283 418.271C361.115 415.418 368.686 408.138 372.212 415.344C373.665 418.314 383.598 432.379 375.924 432.313C369.911 432.261 366.971 433.78 361.25 435.158C357.83 435.982 353.032 425.27 354.626 423.183" stroke="#FFE6BD" stroke-width="3" stroke-linecap="round"/>
<path d="M367.789 393.792C370.96 392.24 378.786 386.23 377.443 390.938C375.977 396.079 382.142 403.936 384.122 408.411C387.038 415 377.483 410.718 375.507 409.566C371.39 407.167 366.43 405.128 362.798 402.354" stroke="#FFE6BD" stroke-width="3" stroke-linecap="round"/>
<path d="M316.281 379.212C318.52 378.116 331.294 371.296 331.425 373.332C331.839 379.751 338.606 388.8 336.017 395.227C334.688 398.527 323.548 396.79 321.335 395.1C317.988 392.545 312.599 384.196 310.739 380.393" stroke="#FFE6BD" stroke-width="3" stroke-linecap="round"/>
<path d="M329.622 400.225C330.992 399.554 341.048 392.923 343.062 393.989C345.11 395.073 344.398 402.35 344.715 404.316C345.275 407.8 347.945 412.819 346.285 416.213C345.464 417.894 338.203 410.329 337.225 409.51C334.132 406.918 330.606 405.864 335.742 403.351" stroke="#FFE6BD" stroke-width="3" stroke-linecap="round"/>
<path d="M250.348 469.614C253.96 467.847 257.572 466.079 261.184 464.312C262.396 463.719 269.716 459.795 265.162 462.366C260.517 464.987 266.578 476.381 265.587 480.434C262.764 491.987 252.857 474.027 249.113 470.218" stroke="#FFE6BD" stroke-width="3" stroke-linecap="round"/>
<path d="M281.078 469.879C283.485 468.701 297.051 460.119 297.965 463.912C298.942 467.968 299.531 476.984 298.399 480.956C296.355 488.122 277.155 476.389 286.594 471.771" stroke="#FFE6BD" stroke-width="3" stroke-linecap="round"/>
<path d="M317.22 484.327C322.413 481.786 328.186 477.656 333.783 476.308C334.07 476.239 334.228 486.502 334.768 488.747C337.695 500.898 316.117 492.861 318.402 489.869" stroke="#FFE6BD" stroke-width="3" stroke-linecap="round"/>
<path d="M356.016 476.056C360.542 473.841 365.069 471.626 369.596 469.411C375.739 466.405 371.785 471.249 372.207 475.444C372.541 478.758 374.712 490.686 368.202 488.454C364.845 487.303 361.57 486.066 358.227 484.919C356.84 484.444 353.997 483.164 354.728 482.806" stroke="#FFE6BD" stroke-width="3" stroke-linecap="round"/>
<path d="M181.525 538.48C186.624 535.985 200.661 526.855 196.854 531.065C192.415 535.973 195.493 545.498 195.825 551.375C196.23 558.527 191.883 551.231 189.116 549.302C186.869 547.736 186.892 544.684 184.902 542.948C183.056 541.338 181.404 541.359 180.291 539.084" stroke="#FFE6BD" stroke-width="3" stroke-linecap="round"/>
<path d="M217.234 477.428C221.079 475.546 226.173 471.765 230.459 470.999C231.242 470.859 230.855 472.108 230.838 472.468C230.748 474.285 231.796 475.987 232.566 477.56C234.036 480.564 235.05 483.421 236.169 486.484C237.689 490.646 231.273 490.07 229.076 489.149C225.281 487.558 218.633 485.8 215.962 482.63" stroke="#FFE6BD" stroke-width="3" stroke-linecap="round"/>
<path d="M238.897 454.613C240.143 451.474 243.706 448.023 246.618 446.298C247.429 445.817 251.69 443.072 251.734 443.752C252.04 448.503 256.052 453.157 257.885 457.537C259.029 460.272 250.151 459.975 248.973 459.607C246.628 458.873 245.645 458.557 243.61 457.312C242.187 456.442 239.75 457.156 241.648 455.557" stroke="#FFE6BD" stroke-width="3" stroke-linecap="round"/>
<path d="M276.475 506.458C281.032 504.228 285.525 501.709 290.213 499.778C291.643 499.189 295.759 497.408 297.333 497.948C298.352 498.298 295.461 500.192 295.285 500.35C293.544 501.919 293.361 504.723 292.759 506.887C292.304 508.52 290.881 519.542 287.226 518.289C284.867 517.479 284.03 513.836 282.321 512.164C280.501 510.384 279.559 508.54 277.078 507.689" stroke="#FFE6BD" stroke-width="3" stroke-linecap="round"/>
<path d="M318.134 512.029C321.69 510.289 325.224 508.184 328.929 506.79C331.54 505.806 332.078 505.214 331.258 507.304C329.645 511.416 331.767 519.349 332.925 523.452C334.342 528.471 328.325 522.984 327.029 521.714C325.355 520.077 315.636 512.159 316.614 510.483" stroke="#FFE6BD" stroke-width="3" stroke-linecap="round"/>
<path d="M345.429 511.651C349.827 509.499 355.709 510.081 360.415 510.383C361.736 510.468 370.288 510.937 370.275 510.945C364.161 514.369 360.732 518.89 356.241 524.3C353.735 527.318 352.4 527.457 350.656 523.894C348.273 519.023 344.127 515.23 341.76 510.392" stroke="#FFE6BD" stroke-width="3" stroke-linecap="round"/>
<path d="M241.199 507.687C247.016 504.841 252.833 501.994 258.65 499.148C261.496 497.756 260.869 497.523 260.759 499.643C260.665 501.43 262.845 509.419 261.361 510.757C258.756 513.104 255.88 511.889 252.922 511.451C249.9 511.002 246.93 510.213 243.907 509.754C242.201 509.496 240.703 509.456 243.034 508.316" stroke="#FFE6BD" stroke-width="3" stroke-linecap="round"/>
<path d="M278.087 533.15C282.181 531.146 286.276 529.143 290.371 527.139C291.024 526.82 295.249 524.124 294.606 526C292.944 530.847 296.372 537.359 297.737 542.195C299.234 547.496 289.993 543.71 288.566 542.866C284.621 540.531 280.238 538.057 275.911 536.504C274.356 535.947 271.04 534.908 272.255 533.713" stroke="#FFE6BD" stroke-width="3" stroke-linecap="round"/>
<path d="M313.846 546.952C317.086 545.367 320.325 543.782 323.564 542.197C324.614 541.683 328.547 538.894 329.79 539.32C331.25 539.821 332.793 545.191 333.613 546.44C335.348 549.081 338.237 551.574 339.01 554.784C339.7 557.645 322.713 555.995 321.676 555.759C319.027 555.157 315.77 555.08 313.363 553.677C312.454 553.148 310.074 553.377 311.959 552.455" stroke="#FFE6BD" stroke-width="3" stroke-linecap="round"/>
<path d="M244.981 534.401C247.885 532.98 249.303 531.063 251.641 528.988C253.577 527.269 256.758 522.43 259.405 521.957C260.564 521.75 258.982 522.883 258.79 522.991C257.551 523.685 257.591 525.753 257.682 526.98C257.888 529.735 259.369 532.101 260.56 534.535C262.314 538.12 256.139 538.507 253.516 538.37C250.401 538.208 247.329 538.769 244.168 538.29C241.568 537.895 239.21 538.001 242.784 536.252" stroke="#FFE6BD" stroke-width="3" stroke-linecap="round"/>
<path d="M300.24 558.56C301.855 561.86 301.542 564.879 301.401 568.507C301.195 573.806 299.851 574.955 306.532 571.771C312.02 569.155 330.087 566.125 324.461 568.428C322.947 569.048 315.052 562.912 313.816 562.173C310.755 560.344 306.777 559.113 303.288 558.447C302.381 558.274 296.874 557.88 299.321 556.682" stroke="#FFE6BD" stroke-width="3" stroke-linecap="round"/>
<path d="M373.383 563.186C373.854 564.149 374.122 567.238 375.044 567.444C378.738 568.269 383.006 568.648 386.852 569.224C388.154 569.419 401.806 572.644 401.86 571.691C401.981 569.595 399.289 566.051 398.417 564.269C397.015 561.405 391.717 549.762 388.088 552.658C383.638 556.212 379.631 559.284 374.413 561.838" stroke="#FFE6BD" stroke-width="3" stroke-linecap="round"/>
<path d="M399.389 578.346C401.046 577.536 413.355 570.623 414.04 572.023C416.736 577.534 418.663 584.732 420.592 590.692C422.166 595.552 415.376 593.173 413.171 591.929C410.192 590.25 406.682 588.898 403.477 587.66C401.807 587.014 395.412 585.284 396.967 583.757" stroke="#FFE6BD" stroke-width="3" stroke-linecap="round"/>
<path d="M374.469 594.765C377.536 593.264 380.604 591.763 383.672 590.261C386.754 588.753 389.597 598.054 390.732 600.373C391.143 601.212 394.768 606.43 392.675 606.934C390.645 607.423 388.641 606.255 386.587 606.58C383.049 607.138 377.024 606.559 374.199 604.191C372.197 602.513 375.468 597.656 377.166 596.825" stroke="#FFE6BD" stroke-width="3" stroke-linecap="round"/>
<path d="M381.72 619.946C382.707 621.964 387.431 634.778 389.937 633.669C396.514 630.759 402.502 628.514 409.752 627.541C413.595 627.026 410.143 627.059 408.147 625.604C405.435 623.626 402.669 621.732 399.632 620.288C394.991 618.082 389.538 614.8 384.565 613.672C383.662 613.467 379.179 613.584 381.444 612.475" stroke="#FFE6BD" stroke-width="3" stroke-linecap="round"/>
<path d="M417.084 612.781C420.366 611.175 423.649 609.569 426.931 607.963C429.385 606.763 430.182 606.021 429.341 608.474C427.645 613.421 430.207 619.641 430.013 624.622C429.947 626.312 430.694 632.426 427.635 629.165C421.258 622.368 416.742 613.069 411.036 605.601" stroke="#FFE6BD" stroke-width="3" stroke-linecap="round"/>
<path d="M253.681 618.644C257.411 616.819 261.141 614.994 264.871 613.169C266.493 612.376 270.964 609.487 269.753 610.826C266.577 614.338 269.787 623.189 270.505 627.092C270.942 629.463 273.155 632.351 272.005 634.789C271.169 636.559 266.797 633.725 265.608 633.386C262.322 632.449 258.436 633.083 255.021 632.221C252.304 631.535 247.458 632.413 245.214 631.353C243.515 630.551 251.645 624.011 252.995 622.244" stroke="#FFE6BD" stroke-width="3" stroke-linecap="round"/>
<path d="M307.851 645.983C312.654 643.633 317.457 641.283 322.259 638.934C324.524 637.826 328.91 633.999 330.379 637.001C331.356 638.998 337.604 647.69 336.527 648.27C333.606 649.841 330.246 649.343 327.168 650.447C322.054 652.281 316.921 654.815 311.713 656.286C310.98 656.493 307.066 658.07 306.51 657.88C302.93 656.652 307.938 648.388 309.475 647.636" stroke="#FFE6BD" stroke-width="3" stroke-linecap="round"/>
<path d="M350.903 632.262C354.828 630.341 358.753 628.421 362.678 626.5C365.622 625.06 364.494 626.518 365.428 628.6C367.396 632.987 369.666 637.262 371.78 641.582C373.143 644.368 371.709 644.115 369.618 643.093C366.562 641.598 362.47 639.579 359.032 639.706C356.523 639.798 354.046 638.83 351.576 638.64C349.63 638.491 348.094 638.531 350.86 637.178" stroke="#FFE6BD" stroke-width="3" stroke-linecap="round"/>
<path d="M382.82 655.807C389.335 652.619 395.408 649.317 402.517 647.801C407.651 646.706 405.851 651.189 407.717 655.002C410.203 660.082 405.213 658.975 402.236 659.179C397.159 659.525 391.504 657.907 386.523 657.077C385.109 656.841 376.756 655.917 376.923 655.428" stroke="#FFE6BD" stroke-width="3" stroke-linecap="round"/>
<path d="M179.673 430.132C182.398 428.799 192.534 421.296 192.986 426.42C193.248 429.4 199.809 436.573 195.495 438.684C193.003 439.903 188.786 437.751 186.353 436.562C184.255 435.536 181.375 436.137 179.633 434.807" stroke="#FFE6BD" stroke-width="3" stroke-linecap="round"/>
<path d="M233.826 439.325C233.012 437.661 226.981 427.258 228.326 426.499C230.164 425.462 231.665 424.577 233.341 423.269C235.277 421.759 235.431 420.769 236.771 423.143C238.106 425.51 244.4 425.948 244.369 429.511C244.331 433.946 235.736 434.747 235.704 438.406" stroke="#FFE6BD" stroke-width="3" stroke-linecap="round"/>
<path d="M258.613 420.215C256.775 416.459 254.937 412.703 253.1 408.947C252.541 407.805 252.939 407.052 253.334 405.901C254.043 403.834 255.48 406.334 256.594 407.28C257.468 408.021 270.164 414.639 268.57 416.075C266.175 418.233 261.822 419.42 258.919 420.841" stroke="#FFE6BD" stroke-width="3" stroke-linecap="round"/>
<path d="M295.149 375.96C294.48 374.096 297.152 371.905 298.071 370.479C299.964 367.537 301.594 364.414 303.481 361.452C304.51 359.836 304.801 359.216 305.735 361.125C307.085 363.884 308.435 366.643 309.785 369.402C311.144 372.179 313.36 377.343 307.745 377.124C304.224 376.987 300.297 376.193 296.85 375.472C294.785 375.041 289.392 375.094 287.997 374.028" stroke="#FFE6BD" stroke-width="3" stroke-linecap="round"/>
<path d="M401.138 410.222C405.363 408.706 411.894 415.02 415.558 416.701C416.015 416.911 421.063 418.62 420.018 419.562C418.563 420.872 415.845 421.646 414.122 422.489C412.684 423.193 402.753 428.952 401.922 427.683C400.547 425.58 400.664 425.066 400.724 422.062C400.775 419.514 399.833 414.903 401.737 413.032" stroke="#FFE6BD" stroke-width="3" stroke-linecap="round"/>
<path d="M407.129 438.324C408.046 440.198 414.29 450.208 411.543 450.517C407.523 450.969 403.42 453.328 399.816 455.091C398.771 455.603 394.227 458.842 393.757 456.892C393.374 455.303 395.465 453.656 396.323 452.533C399.114 448.877 400.282 443.225 404.611 441.107" stroke="#FFE6BD" stroke-width="3" stroke-linecap="round"/>
<path d="M358.169 441.331C357.141 444.328 356.829 447.485 355.839 450.488C355 453.034 354.745 453.869 357.449 452.546C361.205 450.708 364.961 448.87 368.717 447.032C370.922 445.954 375.66 444.667 371.52 443.247C368.186 442.104 364.949 439.566 361.285 441.358" stroke="#FFE6BD" stroke-width="3" stroke-linecap="round"/>
<path d="M385.829 486.763C386.358 487.845 392.393 495.84 390.729 496.779C387.511 498.595 384.032 500.056 380.713 501.68" stroke="#FFE6BD" stroke-width="3" stroke-linecap="round"/>
<path d="M380.714 501.68C379.425 498.207 381.832 493.34 382.546 489.921C383.06 487.464 383.266 485.69 385.536 484.579" stroke="#FFE6BD" stroke-width="3" stroke-linecap="round"/>
<path d="M380.684 541.263C385.738 538.79 390.793 536.317 395.847 533.844C398.812 532.393 399.008 531.874 398.361 535.459C397.683 539.217 398.294 544.849 396.259 548.341C394.065 552.104 392.935 550.743 388.764 550.025C384.574 549.304 379.485 546.902 375.7 544.995C373.027 543.648 370.137 543.32 373.825 541.516" stroke="#FFE6BD" stroke-width="3" stroke-linecap="round"/>
<path d="M423.57 555.969C428.844 553.388 434.119 550.807 439.393 548.227C441.511 547.191 440.933 547.783 441.183 549.506C441.825 553.927 445.026 558.726 443.454 563.309C442.32 566.616 435.309 561.376 433.573 560.557C430.734 559.217 427.404 557.558 424.359 556.79C423.917 556.678 421.185 556.36 422.011 555.956" stroke="#FFE6BD" stroke-width="3" stroke-linecap="round"/>
<path d="M434.583 580.063C437.594 578.945 441.722 579.988 444.906 579.667C446.835 579.473 449.004 579.323 450.951 579.425C455.856 579.68 453.178 584.917 451.911 588.61C451.364 590.205 448.204 601.116 445.191 598.924C440.406 595.444 437.402 588.92 433.61 584.418" stroke="#FFE6BD" stroke-width="3" stroke-linecap="round"/>
<path d="M199.518 518.146C196.783 519.484 194.082 520.943 191.278 522.127C190.223 522.573 180.675 525.105 183.847 525.813C185.467 526.175 187.036 527.817 188.724 528.395C190.783 529.101 192.887 529.216 194.881 529.9C196.764 530.546 198.251 530.216 199.927 531.496C202.238 533.26 202.046 531.313 202.245 529.258C202.507 526.554 201.597 523.615 201.107 520.982C200.688 518.731 201.297 516.243 200.278 514.16" stroke="#FFE6BD" stroke-width="3" stroke-linecap="round"/>
<path d="M227.647 538.71C228.312 540.65 222.711 561.337 223.379 561.375C225.124 561.475 228.252 559.785 229.989 559.295C232.048 558.714 235.708 558.466 237.818 558.576C254.285 559.434 231.031 540.257 233.834 536.586" stroke="#FFE6BD" stroke-width="3" stroke-linecap="round"/>
<path d="M272.291 580.102C272.651 581.072 270.861 588.81 272.585 588.088C274.771 587.174 276.819 585.923 278.983 584.958C283.799 582.811 290.159 581.878 295.344 581.47C300.958 581.028 299.065 580.178 295.91 576.676C293.116 573.576 285.68 566.424 280.897 568.765C280.624 568.898 279.47 571.364 279.096 571.854C277.535 573.899 275.801 575.465 274.149 577.436C273.107 578.679 267.086 585.359 268.988 584.428" stroke="#FFE6BD" stroke-width="3" stroke-linecap="round"/>
<path d="M310.593 599.303C315.196 597.051 319.799 594.799 324.401 592.547C327.194 591.181 327.56 590.955 327.536 593.723C327.507 597.156 333.981 605.927 330.117 607.818C325.7 609.979 321.643 607.618 316.928 608.148C314.468 608.425 306.777 606.12 310.562 602.932" stroke="#FFE6BD" stroke-width="3" stroke-linecap="round"/>
<path d="M79.0238 519.284C76.2986 520.618 73.5391 521.895 70.8441 523.287C68.7525 524.367 67.8616 526.413 65.8883 527.518C60.6705 530.44 73.2522 534.398 75.0131 535.5C77.0147 536.752 81.3555 539.57 83.6454 539.808C86.3091 540.085 85.8909 539.221 85.2499 536.112C84.5872 532.898 79.5737 516.305 82.3271 514.958" stroke="#FFE6BD" stroke-width="3" stroke-linecap="round"/>
<path d="M98.4529 538.686C100.72 537.577 103.825 535.243 106.522 535.792C110.799 536.662 109.328 539.069 109.031 541.842C108.559 546.233 112.152 552.787 110.756 556.857C109.515 560.475 101.581 548.859 101.113 548.225C99.7787 546.421 90.4135 539.909 93.0097 538.639" stroke="#FFE6BD" stroke-width="3" stroke-linecap="round"/>
<path d="M63.9201 503.187C57.8624 506.151 84.8201 489.89 82.9707 496.376C81.2994 502.237 78.614 507.62 76.4944 513.296C74.8317 517.748 73.4467 520.23 69.4485 516.743C67.0584 514.658 64.208 511.161 62.7877 508.258" stroke="#FFE6BD" stroke-width="3" stroke-linecap="round"/>
<path d="M36.7949 534.526C35.2068 531.28 40.2715 525.126 42.1613 522.415C43.5649 520.401 51.6921 511.243 52.7052 515.449C53.8151 520.057 56.1223 524.162 52.8146 528.494C49.2004 533.228 43.8708 535.58 39.3069 537.813" stroke="#FFE6BD" stroke-width="3" stroke-linecap="round"/>
<path d="M72.4616 564.954C74.9234 567.876 86.9361 555.106 88.838 559.651C89.4194 561.041 88.8967 564.765 89.4216 566.793C90.3963 570.559 93.2519 574.011 93.8837 577.759C95.2464 585.844 84.2769 577.717 81.5191 576.08C79.0855 574.635 76.7952 573.112 74.2135 572.227C71.2798 571.221 72.1426 570.53 74.6014 569.327" stroke="#FFE6BD" stroke-width="3" stroke-linecap="round"/>
<path d="M123.589 569.749C127.449 567.86 131.309 565.971 135.17 564.082C137.042 563.166 145.11 557.539 147.559 558.221C147.864 558.306 147.616 567.375 146.827 568.316C144.108 571.561 141.37 570.587 137.533 570.554C135.154 570.534 133.055 570.143 130.66 570.354C129.64 570.444 125.749 571.402 128.303 570.152" stroke="#FFE6BD" stroke-width="3" stroke-linecap="round"/>
<path d="M167.91 564.325C172.041 562.304 176.171 560.283 180.301 558.262C180.75 558.042 187.505 554.781 185.712 557.421C183.878 560.121 192.199 569.448 189.993 570.684C184.002 574.039 177.577 576.759 171.406 579.778C167.384 581.746 163.877 569.008 166.793 567.581" stroke="#FFE6BD" stroke-width="3" stroke-linecap="round"/>
<path d="M434.364 677.78C437.05 683.27 439.5 688.879 442.914 693.954C444.994 697.046 443.195 697.179 440.428 698.533C437.908 699.766 436.018 701.508 433.492 702.744C431.02 703.954 429.825 705.279 428.384 702.335C426 697.462 425.275 691.525 423.63 686.304C422.85 683.828 420.543 680.412 424.181 679.536C425.861 679.131 429.7 678.353 431.064 679.395" stroke="#FFE6BD" stroke-width="3" stroke-linecap="round"/>
<path d="M416.563 646.412C418.599 645.416 421.667 642.919 423.939 644.029C425.673 644.877 427.066 646.299 428.97 647.066C431.028 647.895 429.088 662.998 429.065 665.65C429.009 672.221 422.417 662.306 420.966 660.798C419.288 659.054 411.658 649.629 414.906 648.041" stroke="#FFE6BD" stroke-width="3" stroke-linecap="round"/>
<path d="M138.62 642.166C140.45 645.906 137.417 649.515 139.106 652.967C139.781 654.347 140.73 657.623 142.383 657.922C144.694 658.34 148.366 655.635 150.467 654.607C155.147 652.317 156.628 652.166 152.819 647.644C150.554 644.954 147.904 643.819 145.178 641.837C144.115 641.063 140.804 639.178 140.96 639.101" stroke="#FFE6BD" stroke-width="3" stroke-linecap="round"/>
<path d="M192.931 604.074C193.747 605.741 199.928 621.686 202.386 620.564C209.334 617.394 230.358 608.285 223.331 611.276C219.616 612.857 211.463 607.215 207.391 606.597C204.014 606.085 201.611 606.554 198.39 606.948C195.768 607.269 193.962 607.363 195.238 604.865" stroke="#FFE6BD" stroke-width="3" stroke-linecap="round"/>
<path d="M242.842 584.452C244.81 588.476 244.673 591.073 244.89 595.395C244.906 595.729 258.435 591.044 261.034 591.335C267.34 592.043 261.085 587.516 258.727 585.532C255.721 583.001 247.204 578.916 243.27 579.443" stroke="#FFE6BD" stroke-width="3" stroke-linecap="round"/>
<path d="M122.745 590.662C123.714 592.642 125.261 604.799 126.676 604.173C132.108 601.77 137.901 597.296 144.125 597.994C146.017 598.206 146.315 597.856 144.215 597.521C140.412 596.914 137.098 593.781 134.236 591.364C130.753 588.423 126.261 586.812 123.192 583.69" stroke="#FFE6BD" stroke-width="3" stroke-linecap="round"/>
<path d="M167.92 610.04C171.065 616.469 172.101 619.57 170.641 626.555C168.939 634.702 174.392 630.991 179.17 628.653C181.956 627.29 190.221 625.172 185.518 621.581C180.72 617.918 175.6 614.691 170.971 610.799C168.242 608.505 165.585 605.353 162.157 604.178" stroke="#FFE6BD" stroke-width="3" stroke-linecap="round"/>
<path d="M218.493 632.566C221.809 639.342 223.768 646.643 226.754 653.392C228.597 657.557 233.769 650.174 235.789 649.185C239.138 647.547 241.064 646.841 237.756 643.346C232.071 637.34 225.826 631.817 220.1 625.992" stroke="#FFE6BD" stroke-width="3" stroke-linecap="round"/>
<path d="M198.653 641.307C199.78 644.452 195.01 647.664 196.632 650.978C197.595 652.948 205.494 651.982 207.215 652.017C211.935 652.111 220.337 651.278 224.645 653.136C225.163 653.359 220.396 643.045 218.395 641.348C216.447 639.696 214.798 638.248 212.27 637.592C211.188 637.312 206.762 637.339 209.55 635.976" stroke="#FFE6BD" stroke-width="3" stroke-linecap="round"/>
<path d="M268.337 649.659C271.13 655.367 273.922 661.074 276.715 666.782C278.73 670.9 284.696 665.771 287.976 664.167C293.457 661.485 292.497 661.592 287.68 658.523C281.203 654.397 274.523 648.916 269.165 643.465" stroke="#FFE6BD" stroke-width="3" stroke-linecap="round"/>
<path d="M288.344 621.541C289.376 623.651 290.73 633.453 292.53 632.945C298.083 631.377 303.709 627.529 308.897 624.991C309.032 624.924 312.872 623.185 312.704 622.913C312.045 621.85 306.915 620.856 305.578 620.398C302.787 619.441 297.284 620.082 295.349 618.114" stroke="#FFE6BD" stroke-width="3" stroke-linecap="round"/>
<path d="M344.512 669.303C346.287 672.93 343.517 677.128 345 680.158C345.649 681.485 346.419 684.35 347.648 685.133C349.962 686.607 357.038 682.595 359.515 682.221C363.062 681.685 366.544 680.958 370.08 680.374C371.156 680.197 368.538 679.483 368.216 679.303C366.384 678.278 364.735 676.494 363.237 675.041C359.772 671.68 356.579 669.884 352.364 667.605C350.459 666.576 348.159 666.724 346.483 665.445" stroke="#FFE6BD" stroke-width="3" stroke-linecap="round"/>
<path d="M305.264 681.754C307.057 680.877 325.945 670.421 326.797 671.433C327.066 671.753 326.101 672.604 325.967 672.804C324.853 674.464 324.496 677.012 324.127 678.902C323.029 684.527 323.797 690.352 322.387 695.939C319.456 707.554 302.804 692.639 304.022 691.044" stroke="#FFE6BD" stroke-width="3" stroke-linecap="round"/>
<path d="M372.366 674.97C377.397 672.508 382.427 670.047 387.458 667.586C387.543 667.544 386.719 669.778 386.617 670.14C385.765 673.176 387.145 676.887 387.351 679.964C388.04 690.283 376.559 681.308 372.333 678.845" stroke="#FFE6BD" stroke-width="3" stroke-linecap="round"/>
<path d="M205.728 584.788C209.078 583.149 212.403 581.279 215.847 579.838C217.642 579.087 220.607 593.407 221.441 595.215C226.012 605.12 210.93 595.099 207.599 592.555" stroke="#FFE6BD" stroke-width="3" stroke-linecap="round"/>
<path d="M138.756 621.416C143.394 619.147 147.998 616.556 152.766 614.561C153.395 614.298 151.107 616.918 150.868 617.473C149.298 621.113 152.043 627.672 151.047 631.749C149.51 638.037 137.837 629.395 136.388 626.434" stroke="#FFE6BD" stroke-width="3" stroke-linecap="round"/>
<path d="M73.047 601.472C67.1968 604.335 70.2297 608.014 67.6928 613.203C63.9713 620.815 75.5891 614.192 78.6951 613.125C81.894 612.027 84.7745 612.252 87.9817 612.28C91.3113 612.308 85.2255 607.485 84.4143 606.522C81.8267 603.45 78.4531 601.388 75.6564 598.48C73.7888 596.539 70.7254 596.82 73.8754 595.279" stroke="#FFE6BD" stroke-width="3" stroke-linecap="round"/>
<path d="M18.8319 551.789C13.4452 554.425 7.96939 556.844 4.40746 561.741C2.09964 564.914 3.86379 564.315 6.53617 564.558C12.2608 565.078 17.3918 566.448 22.9332 568.058C25.7157 568.866 29.0567 570.048 31.9814 569.901C32.7064 569.865 29.9422 564.638 29.5787 563.895C28.0189 560.708 21.8341 552.283 24.6612 549.902" stroke="#FFE6BD" stroke-width="3" stroke-linecap="round"/>
<path d="M12.195 512.59C10.6593 513.342 0.725028 516.751 2.05981 519.479C3.35621 522.128 8.98012 525.396 11.2492 527.416C12.5054 528.535 14.8239 531.989 16.3724 532.52C18.7688 533.342 21.6943 523.846 20.6401 521.964C19.688 520.264 16.6645 520.107 15.0218 519.354C12.8172 518.342 12.015 516.166 11.0192 514.13" stroke="#FFE6BD" stroke-width="3" stroke-linecap="round"/>
<path d="M211.154 674.743C212.517 677.529 218.289 693.44 221.47 691.884C225.751 689.789 230.032 687.695 234.313 685.6C236.152 684.7 241.389 683.168 237.252 681.75C234.686 680.87 232.915 678.93 230.526 677.86C227.881 676.676 226.129 675.724 223.316 675.063C220.511 674.405 216.12 674.147 213.887 672.442" stroke="#FFE6BD" stroke-width="3" stroke-linecap="round"/>
<path d="M262.885 697.665C264.337 700.633 267.078 710.793 271.212 710.741C275.343 710.689 279.958 704.384 282.997 702.295C283.866 701.698 289.477 698.575 288.29 697.669C285.96 695.89 282.585 695.593 280.032 694.153C277.143 692.524 272.896 692.793 269.665 692.901C264.728 693.067 259.985 691.827 255.185 691.786" stroke="#FFE6BD" stroke-width="3" stroke-linecap="round"/>
<path d="M115.469 719.035C111.443 736.086 103.256 751.095 99.2874 767.899C95.208 785.174 94.1751 803.501 90.0611 820.923C84.6446 843.86 85.6073 869.464 77.2715 891.89C75.9763 895.375 72.0143 897.346 71.0631 901.374C70.0109 905.83 68.923 911.771 68.8955 916.262C68.8445 924.608 66.4299 935.303 70.6993 942.87C72.5561 946.161 75.8838 949.099 75.0059 953.173C69.75 977.558 53.0594 1023.71 67.7139 1046.84C69.7635 1050.07 71.2457 1048.64 74.6223 1048.98C77.6217 1049.28 66.3768 1056.9 64.9118 1058.39C60.3595 1063.01 46.1091 1079.32 59.0568 1083.82C66.0517 1086.24 82.4463 1077.23 86.6541 1071.28C94.523 1060.15 88.7306 1077.82 87.8662 1083.9C86.1795 1095.78 102.911 1089.45 107.915 1086.52C113.278 1083.38 119.758 1080.14 123.354 1075.05C124.793 1073.02 127.778 1068.13 128.52 1073.47C129.018 1077.05 128.473 1099.16 137.621 1095.81C139.963 1094.96 144.862 1092.17 146.175 1090.03C147.503 1087.87 148.247 1075.77 152.136 1081.91C154.555 1085.73 152.377 1091.11 154.015 1095.2C155.539 1099 158.619 1102.66 160.801 1106.1C166.299 1114.78 170.496 1114.2 179.126 1108.73C180.733 1107.71 185.492 1100.62 185.745 1100.67C189.565 1101.48 189.335 1109.38 191.168 1111.96C195.251 1117.69 212.152 1118.21 218.233 1114.35C231.351 1106.04 244.628 1096.8 249.59 1081.45C253.975 1067.89 258.174 1057.32 258.419 1042.8C258.993 1008.72 265.352 974.771 262.604 940.724C261.217 923.542 261.73 906.222 262.021 888.968C262.105 884.016 268.242 863.355 272.951 876.613C274.265 880.313 272.432 886.008 273.215 890.08C275.234 900.574 273.679 911.362 273.461 922.02C273.191 935.232 269.371 948.187 269.175 961.416C269.019 971.967 268.81 983.432 267.42 993.899C265.357 1009.43 259.373 1028.53 261.422 1044.03C263.612 1060.6 260.43 1074.2 256.933 1090.31C253.757 1104.95 253.066 1121.53 259.3 1135.15C262.211 1141.51 268.045 1153.02 275.45 1154.6C281.858 1155.96 288.918 1149.92 294.191 1146.58C302.276 1141.46 304.36 1151 311.781 1146.3C315.029 1144.24 331.171 1134.57 334.027 1134.85C347.239 1136.17 361.241 1110.98 366.391 1102.76C381.326 1078.95 386.774 1045.38 386.977 1017.81C387.097 1001.42 379.318 986.796 375.327 971.375C363.192 924.491 348.972 878.369 335.789 831.849C330.624 813.622 324.088 796.333 318.404 778.313C312.24 758.773 300.918 741.251 294.013 722.096C286.242 700.541 277.116 676.147 264.927 656.91C260.204 649.457 259.079 644.89 260.877 637.275C261.273 635.597 244.542 622.357 242.694 621.045C225.918 609.128 202.432 592.179 180.195 600.318C174.947 602.238 170.525 605.581 167.486 610.06C164.488 614.48 165.986 624.482 161.037 613.905C155.803 602.719 157.155 605.937 147.543 608.58C142.532 609.957 139.136 613.421 138.499 618.654C138.19 621.197 135.537 608.655 135.153 607.14C133.789 601.763 127.578 612.274 126.54 613.804C121.159 621.736 118.482 627.245 121.331 637.134C125.634 652.073 118.337 666.933 114.962 681.228C112.303 692.488 109.544 703.58 106.375 714.421C104.91 719.43 96.5349 723.306 92.7647 727.027C87.0631 732.653 84.4415 744.362 81.1048 751.669C59.6233 798.71 54.4143 851.052 44.0991 901.085C35.7259 941.699 22.1873 988.466 29.2441 1029.95C31.4434 1042.88 28.1128 1060.1 34.8068 1072.03C36.755 1075.51 37.8371 1078.8 41.9046 1076.22C44.7105 1074.45 49.1528 1072.96 48.8479 1069.65" stroke="#A6BFDD" stroke-width="10" stroke-linecap="round"/>
<path d="M115.469 719.035C111.443 736.086 103.256 751.095 99.2874 767.899C95.208 785.174 94.1751 803.501 90.0611 820.923C84.6446 843.86 85.6073 869.464 77.2715 891.89C75.9763 895.375 72.0143 897.346 71.0631 901.374C70.0109 905.83 68.923 911.771 68.8955 916.262C68.8445 924.608 66.4299 935.303 70.6993 942.87C72.5561 946.161 75.8838 949.099 75.0059 953.173C69.75 977.558 53.0594 1023.71 67.7139 1046.84C69.7635 1050.07 71.2457 1048.64 74.6223 1048.98C77.6217 1049.28 66.3768 1056.9 64.9118 1058.39C60.3595 1063.01 46.1091 1079.32 59.0568 1083.82C66.0517 1086.24 82.4463 1077.23 86.6541 1071.28C94.523 1060.15 88.7306 1077.82 87.8662 1083.9C86.1795 1095.78 102.911 1089.45 107.915 1086.52C113.278 1083.38 119.758 1080.14 123.354 1075.05C124.793 1073.02 127.778 1068.13 128.52 1073.47C129.018 1077.05 128.473 1099.16 137.621 1095.81C139.963 1094.96 144.862 1092.17 146.175 1090.03C147.503 1087.87 148.247 1075.77 152.136 1081.91C154.555 1085.73 152.377 1091.11 154.015 1095.2C155.539 1099 158.619 1102.66 160.801 1106.1C166.299 1114.78 170.496 1114.2 179.126 1108.73C180.733 1107.71 185.492 1100.62 185.745 1100.67C189.565 1101.48 189.335 1109.38 191.168 1111.96C195.251 1117.69 212.152 1118.21 218.233 1114.35C231.351 1106.04 244.628 1096.8 249.59 1081.45C253.975 1067.89 258.174 1057.32 258.419 1042.8C258.993 1008.72 265.352 974.771 262.604 940.724C261.217 923.542 261.73 906.222 262.021 888.968C262.105 884.016 268.242 863.355 272.951 876.613C274.265 880.313 272.432 886.008 273.215 890.08C275.234 900.574 273.679 911.362 273.461 922.02C273.191 935.232 269.371 948.187 269.175 961.416C269.019 971.967 268.81 983.432 267.42 993.899C265.357 1009.43 259.373 1028.53 261.422 1044.03C263.612 1060.6 260.43 1074.2 256.933 1090.31C253.757 1104.95 253.066 1121.53 259.3 1135.15C262.211 1141.51 268.045 1153.02 275.45 1154.6C281.858 1155.96 288.918 1149.92 294.191 1146.58C302.276 1141.46 304.36 1151 311.781 1146.3C315.029 1144.24 331.171 1134.57 334.027 1134.85C347.239 1136.17 361.241 1110.98 366.391 1102.76C381.326 1078.95 386.774 1045.38 386.977 1017.81C387.097 1001.42 379.318 986.796 375.327 971.375C363.192 924.491 348.972 878.369 335.789 831.849C330.624 813.622 324.088 796.333 318.404 778.313C312.24 758.773 300.918 741.251 294.013 722.096C286.242 700.541 277.116 676.147 264.927 656.91C260.204 649.457 259.079 644.89 260.877 637.275C261.273 635.597 244.542 622.357 242.694 621.045C225.918 609.128 202.432 592.179 180.195 600.318C174.947 602.238 170.525 605.581 167.486 610.06C164.488 614.48 165.986 624.482 161.037 613.905C155.803 602.719 157.155 605.937 147.543 608.58C142.532 609.957 139.136 613.421 138.499 618.654C138.19 621.197 135.537 608.655 135.153 607.14C133.789 601.763 127.578 612.274 126.54 613.804C121.159 621.736 118.482 627.245 121.331 637.134C125.634 652.073 118.337 666.933 114.962 681.228C112.303 692.488 109.544 703.58 106.375 714.421C104.91 719.43 96.5349 723.306 92.7647 727.027C87.0631 732.653 84.4415 744.362 81.1048 751.669C59.6233 798.71 54.4143 851.052 44.0991 901.085C35.7259 941.699 22.1873 988.466 29.2441 1029.95C31.4434 1042.88 28.1128 1060.1 34.8068 1072.03C36.755 1075.51 37.8371 1078.8 41.9046 1076.22C44.7105 1074.45 49.1528 1072.96 48.8479 1069.65" stroke="#A6BFDD" stroke-width="10" stroke-linecap="round"/>
<path d="M61.3795 1084.54C65.2247 1093.15 69.0699 1101.75 72.9151 1110.35C77.3207 1120.21 74.0937 1136.87 72.3174 1147.41C69.5216 1164 63.1819 1187 45.3055 1194.32C37.7562 1197.42 29.2929 1196.61 21.1446 1200.42C18.8682 1201.48 16.7853 1201.96 15.8269 1204.25C14.3476 1207.8 18.2487 1204.81 20.1739 1204.73C25.1816 1204.5 32.7968 1202.6 37.4914 1204.14C43.1204 1205.98 42.4194 1212.95 47.1581 1215.12C49.9939 1216.42 58.3505 1210.57 61.3347 1209.36C64.7971 1207.97 71.454 1209.88 75.445 1209.7C87.5154 1209.15 99.3163 1208.78 111.092 1208.25C144.39 1206.74 127.555 1147.32 139.419 1132.13C142.552 1128.11 153.654 1120.53 158.7 1120.9C165.291 1121.38 170.693 1130.23 171.786 1136.06C174.337 1149.67 178.834 1164.19 171.051 1177.91C167.378 1184.38 165.228 1190.61 159.385 1196.46C153.719 1202.13 142.71 1207.71 139.51 1215.38C136.774 1221.93 141.416 1223.92 146.762 1221.42C149.232 1220.27 161.847 1214.9 156.525 1222.45C151.093 1230.15 163.273 1227.57 166.515 1226.06C170.752 1224.08 175.828 1220.7 178.445 1225.68C184.068 1236.38 197.168 1227.33 206.068 1223.17C212.39 1220.21 212.05 1214.04 216.677 1211.27C220.434 1209.02 225.577 1200.29 227.742 1196.47C230.185 1192.16 236.175 1170.96 235.933 1171.07" stroke="#A6BFDD" stroke-width="10" stroke-linecap="round"/>
<path d="M171.864 755.46C171.864 741.053 198.411 725.151 198.411 743.292C198.411 748.047 204.309 759.176 200.132 763.817C196.747 767.578 182.926 776.658 182.926 766.521" stroke="#AFA4A4" stroke-width="10" stroke-linecap="round"/>
<path d="M169.651 739.975C169.651 730.143 166.146 725.012 160.925 716.746C157.805 711.806 152.547 699.358 147.529 696.221C141.117 692.214 139.027 689.153 138.557 698.802C137.717 716.022 139.315 735.596 134.255 752.265C131.178 762.401 127.621 772.234 125.898 782.745C124.979 788.346 122.088 793.068 121.104 798.477C120.769 800.319 118.383 804.703 120.121 804.008C126.237 801.561 132.698 799.694 138.68 797.002C151.224 791.357 164.81 789.894 169.651 775.371" stroke="#AFA4A4" stroke-width="10" stroke-linecap="round"/>
<path d="M211.685 744.398C220.08 744.398 224.251 745.614 228.891 737.761C234.449 728.357 242.808 717.945 250.399 710.354C254.145 706.608 249.293 720.911 249.293 726.208C249.293 739.277 249.293 752.346 249.293 765.415C249.293 776.024 247.081 786.019 247.081 796.509C247.081 798.146 248.545 819.556 243.148 814.699C235.449 807.77 231.494 795.425 223.852 787.783C218.22 782.151 207.64 778.722 205.048 770.945" stroke="#AFA4A4" stroke-width="10" stroke-linecap="round"/>
<path d="M147.294 32.959C166.509 26.9939 186.234 23.2008 206.258 21.7388C236.83 19.5066 266.8 14.2202 297.053 9.76054C352.947 1.52116 416.869 -5.15942 466.215 27.5005C495.643 46.9775 532 80.5142 532 119.006C532 140.744 530.371 160.73 521.39 180.944C514.518 196.41 507.687 213.835 498.577 228.099C482.853 252.718 455.796 273.944 426.653 279.954C383.378 288.88 341.276 301.707 296.75 303.077C280.399 303.58 263.671 304.005 247.487 306.64C230.89 309.343 218.61 315.115 204.287 323.622C193.172 330.224 181.124 340.801 174.654 352.127C170.44 359.503 166.597 369.148 160.936 375.477C158.506 378.194 151.851 391.597 149.34 387.077C144.143 377.719 136.864 369.013 131.226 359.405C117.267 335.616 113.58 309.415 106.292 283.29C102.342 269.131 100.477 254.49 96.515 240.381C91.7553 223.431 88.6329 206.028 88.6329 188.374C88.6329 172.23 86.7913 154.765 89.3908 138.793C91.7486 124.305 95.4655 110.702 99.5466 96.6411C103.61 82.6421 111.734 66.9365 122.662 56.9156C132.272 48.1039 138.477 37.2636 151.386 32.959" stroke="white" stroke-width="6" stroke-linecap="round"/>
</svg>
