<svg width="375.015625" height="758.012695" viewBox="0 0 375.016 758.013" fill="none" xmlns="http://www.w3.org/2000/svg" xmlns:xlink="http://www.w3.org/1999/xlink">
	<desc>
			Created with Pixso.
	</desc>
	<defs/>
	<path id="Vector 1722" d="M240.69 742.95C215.85 742.95 191 743.25 166.16 742.95C122.68 742.42 84.85 708.4 52.44 680.97C19.6 653.18 5.57 609.5 5.57 566.56C5.57 543.98 2.71 518.92 9.79 497.27C19.47 467.68 40 439.37 59.16 415.58C137.95 317.74 256 355.17 331.36 434.89C367.27 472.87 368.63 527.2 368.63 578.15C368.63 602.2 371.39 627.08 361.72 649.47C357.06 660.24 353.34 681.77 342.89 688.08C333.5 693.76 327.4 707.98 318.49 715.31C309.52 722.69 298.18 729.41 289.87 736.44C279.63 745.11 236.87 756.01 233.78 742.95" stroke="#FFFFFF" stroke-opacity="1.000000" stroke-width="10.000000" stroke-linecap="round"/>
	<path id="Vector 1724" d="M37 457C63.87 457 86.41 470.36 113.05 471.79C129.48 472.66 144.43 479.18 161.44 479.18C175.27 479.18 189.09 479.18 202.92 479.18C229.62 479.18 259.32 482.84 285.12 474.66C294.77 471.6 312.61 466.37 317 457" stroke="#FFFFFF" stroke-opacity="1.000000" stroke-width="10.000000" stroke-linecap="round"/>
	<path id="Vector 1725" d="M23 548.74C84.5 548.74 144.94 552.32 206.46 552.32C232.86 552.32 259.71 553.84 286.07 552.32C297.34 551.67 332.71 548.93 338 538" stroke="#FFFFFF" stroke-opacity="1.000000" stroke-width="10.000000" stroke-linecap="round"/>
	<path id="Vector 1726" d="M23 625.87C24.63 632.73 47.16 629.5 52.39 629.5C79.62 629.5 108.14 635.69 135.2 638.76C168.63 642.55 203.01 640.37 236.64 640.37C260.61 640.37 282.71 630.43 305.81 629.5C318.41 628.99 349.09 627.37 355 615" stroke="#FFFFFF" stroke-opacity="1.000000" stroke-width="10.000000" stroke-linecap="round"/>
	<path id="Vector 1727" d="M138 373C138 454 162.53 531.34 176.25 610.89C180.84 637.5 192.94 662.43 198.6 688.56C201.58 702.32 213 742.13 213 728.01" stroke="#FFFFFF" stroke-opacity="1.000000" stroke-width="10.000000" stroke-linecap="round"/>
	<path id="Vector 1728" d="M231 398C231 427.33 231 456.66 231 486C231 523.76 241.01 555.56 247.38 592.33C253.34 626.74 260.69 676.64 279 706" stroke="#FFFFFF" stroke-opacity="1.000000" stroke-width="10.000000" stroke-linecap="round"/>
	<path id="Vector 1729" d="M314.55 433C314.55 457.34 311.47 483.08 319.85 506.15C327.93 528.35 338.55 553.59 342.65 576.87C343.82 583.52 347 606.13 350.71 610.91C354.14 615.34 357 630.85 357 629.96" stroke="#FFFFFF" stroke-opacity="1.000000" stroke-width="10.000000" stroke-linecap="round"/>
	<path id="Vector 1730" d="M54 439C54 463.94 55.25 487.88 57.42 512.2C60.15 542.77 72.5 577.28 78.76 607.36C84.38 634.36 90 661.13 95.9 687.89C98.56 699.95 102 736.88 102 724.49" stroke="#FFFFFF" stroke-opacity="1.000000" stroke-width="10.000000" stroke-linecap="round"/>
	<path id="Vector 1731" d="M88 393.33C122.82 393.33 156.67 398 191.57 398C204.01 398 215.39 393.96 227.18 391.13C232.75 389.79 249.64 389.09 252 384" stroke="#FFFFFF" stroke-opacity="1.000000" stroke-width="10.000000" stroke-linecap="round"/>
	<path id="Vector 1732" d="M98.45 386C98.45 416.51 97.35 447.21 98.58 477.7C100.36 521.67 113.27 567.67 123.06 610.61C130.73 644.29 138.95 678.48 144.8 712.46C146.07 719.84 145.07 728.7 148.18 735.72C150.72 741.46 150.63 741.38 147.66 735.72" stroke="#FFFFFF" stroke-opacity="1.000000" stroke-width="10.000000" stroke-linecap="round"/>
	<path id="Vector 1733" d="M264 391C264 449.99 274.91 506 288.29 563.22C295.73 595.05 310.55 629.53 312.32 662.11C312.56 666.49 317.64 691 316.93 691" stroke="#FFFFFF" stroke-opacity="1.000000" stroke-width="10.000000" stroke-linecap="round"/>
	<path id="Vector 1734" d="M180 367C180 435.86 207.1 501.75 222 568.53C231.17 609.65 237 651.41 246.5 692.63C249.82 707.04 251.76 726.85 259.33 739.93C261.34 743.4 264 757.52 264 751.53" stroke="#FFFFFF" stroke-opacity="1.000000" stroke-width="10.000000" stroke-linecap="round"/>
	<path id="Vector 1735" d="M5 500C61.95 500 117.12 513 174.05 513C211.86 513 249.68 513 287.5 513C302.98 513 319.22 511.08 334.46 508.35C341.67 507.06 367.29 507.09 370 501.85" stroke="#FFFFFF" stroke-opacity="1.000000" stroke-width="10.000000" stroke-linecap="round"/>
	<path id="Vector 1736" d="M56 430C78.68 430 101.37 430 124.06 430C155.8 430 184.44 426.3 215.43 419.73C235.67 415.44 256.29 410.17 276.3 404.8C283.19 402.95 304.71 402 297.56 402" stroke="#FFFFFF" stroke-opacity="1.000000" stroke-width="10.000000" stroke-linecap="round"/>
	<path id="Vector 1737" d="M5 583C45.23 583 85.47 583 125.71 583C140.64 583 155.57 583 170.5 583C184.73 583 196.56 579.07 210.39 576.37C239.24 570.75 269.51 568.94 298.68 565.69C306.28 564.84 336.93 566.28 339 558" stroke="#FFFFFF" stroke-opacity="1.000000" stroke-width="10.000000" stroke-linecap="round"/>
	<path id="Vector 1738" d="M51 685.99C84.79 685.99 118.9 686.51 152.11 679.57C179.99 673.75 208.53 672.11 236.85 668.68C250.27 667.05 311 668.74 311 653" stroke="#FFFFFF" stroke-opacity="1.000000" stroke-width="10.000000" stroke-linecap="round"/>
	<path id="Vector 1723" d="M212.31 564C212.31 433.64 212.31 302.95 212.31 173.52C212.31 118.06 212.31 60.28 212.31 5" stroke="#FFFFFF" stroke-opacity="1.000000" stroke-width="10.000000" stroke-linecap="round"/>
</svg>
