<svg width="1416.585938" height="2018.603516" viewBox="0 0 1416.59 2018.6" fill="none" xmlns="http://www.w3.org/2000/svg" xmlns:xlink="http://www.w3.org/1999/xlink">
	<desc>
			Created with Pixso.
	</desc>
	<defs/>
	<path id="Vector 1602" d="M1175.61 69.59C1174.18 73.78 1173.13 75.94 1176.26 80.03C1181.6 87.01 1190.21 97.62 1198.6 103.02C1203.14 105.96 1208.52 110.83 1213.65 106.24C1218.42 101.97 1223.68 101.51 1225.78 95.38C1226.94 91.94 1232.47 82.46 1228.37 79.58" stroke="#A56549" stroke-opacity="1.000000" stroke-width="2.000000" stroke-linecap="round"/>
	<path id="Vector 1604" d="M1223.36 95.67C1224.91 96.06 1226.81 97.24 1227.71 98.33C1229.18 100.11 1235.35 100.92 1237.73 102.16C1243.4 105.11 1252.06 107 1258.55 108.6C1265.86 110.42 1268.56 100.17 1270.24 95.29C1271.47 91.68 1277.57 86.99 1271.03 85.36" stroke="#A56549" stroke-opacity="1.000000" stroke-width="2.000000" stroke-linecap="round"/>
	<path id="Vector 1607" d="M1168.43 98.9C1171.92 100.39 1173.05 107.06 1175.39 109.63C1177.53 111.98 1179.37 114.69 1182.19 116.63C1187.23 120.08 1194.29 121.42 1200.57 122.97C1211.55 125.69 1219.37 115.63 1221.62 109.05" stroke="#A56549" stroke-opacity="1.000000" stroke-width="2.000000" stroke-linecap="round"/>
	<path id="Vector 1610" d="M1227.94 115.41C1234.44 117.02 1240.96 118.64 1247.47 120.25C1250.44 120.99 1253.18 120.71 1255.97 119.36C1260.93 116.95 1257.69 115.15 1254.89 112.51" stroke="#A56549" stroke-opacity="1.000000" stroke-width="2.000000" stroke-linecap="round"/>
	<path id="Vector 1611" d="M952.81 161.42C952.91 154.81 951.19 146.44 956.76 141.17C962.11 136.12 972.54 131.79 980.52 131.91C988.41 132.02 984.44 152.2 984.35 157.61" stroke="#A56549" stroke-opacity="1.000000" stroke-width="2.000000" stroke-linecap="round"/>
	<path id="Vector 1612" d="M1013.23 142.35C1011.72 142.33 1015.45 142.44 1015.97 142.33C1018.1 141.88 1020.56 139.17 1022.54 138.06C1025.97 136.15 1027.81 134.82 1031.94 134.88C1035.92 134.94 1039.56 132.78 1043.47 132.84C1046.38 132.88 1044.89 139.49 1044.97 141.71C1045.18 147.68 1050.36 159.8 1045.93 165.22C1043.91 167.7 1042.54 173.44 1041.13 176.52C1039.18 180.77 1035.97 184 1033.9 188.04C1031.19 193.29 1026.22 199.48 1020.44 201.06C1010.26 203.84 1009.48 192.78 1006.51 186.53C1003.53 180.24 999.07 176.81 997.72 169.55C996.65 163.75 994.62 153.73 997.82 148.27C1001.4 142.17 1013.59 145.95 1015.42 142.38" stroke="#A56549" stroke-opacity="1.000000" stroke-width="2.000000" stroke-linecap="round"/>
	<path id="Vector 1614" d="M938.81 167.95C938.93 160.08 939.06 152.22 939.18 144.35C939.24 140.97 938.38 135.47 933.35 139.69C926.05 145.81 920.94 152.74 914.37 159.16C907.73 165.65 915.06 174.36 917.57 180.88C921.1 190.03 924.12 190.01 932.6 186.28" stroke="#A56549" stroke-opacity="1.000000" stroke-width="2.000000" stroke-linecap="round"/>
	<path id="Vector 1617" d="M1054.07 144.5C1064.71 144.66 1075.32 144.82 1085.96 144.97C1093.56 145.09 1099.02 154.33 1100.43 161.5C1101.53 167.05 1103.35 180.15 1099.52 185.1C1091.8 195.08 1079.41 197.29 1068.32 201.57C1064.74 202.96 1039.38 211.22 1039.06 202.77C1038.74 194.11 1039.35 185.32 1039.48 176.65C1039.55 172.51 1039.79 169.01 1040.68 165.11C1041.3 162.46 1043.8 160.3 1044.12 157.85C1044.48 155.03 1047.36 151.13 1048.6 148.36C1050.04 145.13 1053.35 145.62 1056.23 145.66" stroke="#A56549" stroke-opacity="1.000000" stroke-width="2.000000" stroke-linecap="round"/>
	<path id="Vector 1993" d="M1284.98 273.27C1279.07 271.81 1279.11 266.85 1280.43 262.95C1282.11 258.06 1280.63 248.24 1286.5 245.21C1297.96 239.29 1302.06 224.98 1318.68 223.75C1322.67 223.46 1331.78 222.94 1331.6 227.45C1331.41 232.43 1339.24 239.38 1343.78 242.72C1347.46 245.43 1350.65 250.16 1349.4 253.81C1348.79 255.6 1345.72 264.59 1346.73 261.63" stroke="#A56549" stroke-opacity="1.000000" stroke-width="2.000000" stroke-linecap="round"/>
	<path id="Vector 1994" d="M1249.68 266.93C1250.84 263.51 1252.84 247.45 1258.74 246.62C1265.63 245.64 1288.06 242.6 1285.14 251.2" stroke="#A56549" stroke-opacity="1.000000" stroke-width="2.000000" stroke-linecap="round"/>
	<path id="Vector 1995" d="M1306.26 272.32C1310.42 260.13 1344.48 257.45 1359.11 266.86C1366.29 271.47 1365.09 280.61 1365.1 286.44C1365.1 289.24 1364.8 291.68 1363.88 294.39C1363.09 296.68 1355.75 297.45 1356.91 294.04" stroke="#A56549" stroke-opacity="1.000000" stroke-width="2.000000" stroke-linecap="round"/>
	<path id="Vector 1996" d="M1262.4 301.22C1264.07 296.29 1269.74 293.43 1274.36 290.17C1280.63 285.73 1286.98 281.5 1292.99 276.95C1295.43 275.11 1298.62 273.84 1301.61 272.62C1302.1 272.42 1304.42 277.84 1305.18 278.88C1309.13 284.27 1313.69 288.93 1316.78 294.62C1319.59 299.8 1318.65 302.86 1319.52 308.16" stroke="#A56549" stroke-opacity="1.000000" stroke-width="2.000000" stroke-linecap="round"/>
	<path id="Vector 1997" d="M1242.37 293.86C1245.61 284.37 1246.43 276.21 1259.55 272.18C1267.89 269.61 1276 273.57 1281.82 277.49" stroke="#A56549" stroke-opacity="1.000000" stroke-width="2.000000" stroke-linecap="round"/>
	<path id="Vector 1998" d="M1233.56 296.47C1224.9 294.32 1224.5 279.44 1226.55 273.45C1228.26 268.44 1228.93 268.98 1235 270.48C1238.81 271.42 1242.62 272.37 1246.43 273.31" stroke="#A56549" stroke-opacity="1.000000" stroke-width="2.000000" stroke-linecap="round"/>
	<path id="Vector 1999" d="M1357.53 329.58C1359.75 321.22 1352.85 313.44 1350.84 305.56C1349.61 300.76 1348.41 293.78 1341.82 292.15C1329.99 289.22 1329.65 295.5 1322.14 300.48" stroke="#A56549" stroke-opacity="1.000000" stroke-width="2.000000" stroke-linecap="round"/>
	<path id="Vector 2000" d="M1204.61 329.41C1207.56 320.78 1210.5 312.14 1213.44 303.51C1215.56 297.33 1227.52 295.35 1236.05 296.12C1242.66 296.71 1258.06 298.74 1262.69 303.2C1272.05 312.17 1271.35 322.89 1273.34 333.08C1273.99 336.39 1276.79 359.3 1267.06 357.29C1257.12 355.23 1247.27 352.39 1237.43 349.95C1232.73 348.78 1228.8 347.64 1224.6 345.87C1221.73 344.65 1219.93 342.04 1217.22 341.12C1214.1 340.07 1210.41 336.67 1207.56 334.92C1204.27 332.87 1205.68 330.3 1206.48 327.97" stroke="#A56549" stroke-opacity="1.000000" stroke-width="2.000000" stroke-linecap="round"/>
	<path id="Vector 2001" d="M1272.9 311.93C1283.41 307.99 1294.31 305.77 1306.17 305.02C1310.44 304.75 1318.52 314.96 1320.8 317.29C1326.81 323.4 1327.89 332.05 1327.88 338.98C1327.87 349.48 1317.53 360.06 1302.38 360.3C1292.25 360.45 1279.26 364.45 1272.63 356.02" stroke="#A56549" stroke-opacity="1.000000" stroke-width="2.000000" stroke-linecap="round"/>
	<path id="Vector 2002" d="M1367.97 299.01C1373.08 300.28 1381.83 300.7 1383.07 304.92C1384.51 309.88 1387.16 314.94 1388.98 319.89C1390.25 323.33 1390.19 325.84 1388.79 329.13C1387.77 331.53 1379.23 335.27 1379.23 331.1" stroke="#A56549" stroke-opacity="1.000000" stroke-width="2.000000" stroke-linecap="round"/>
	<path id="Vector 2003" d="M1329.75 336.63C1330.64 334.02 1332.59 324.91 1337.24 325.05C1342.3 325.21 1348.78 327.85 1353.68 329.07C1361.84 331.09 1377.45 332.43 1375.04 341.62C1372.91 349.73 1385.37 355.89 1382.69 363.75C1381.33 367.73 1379.97 371.72 1378.61 375.7C1377.9 377.78 1376.88 378.99 1374.9 380.49C1372.14 382.57 1370.6 379.83 1368.05 378.27" stroke="#A56549" stroke-opacity="1.000000" stroke-width="2.000000" stroke-linecap="round"/>
	<path id="Vector 2004" d="M1191.52 362.18C1191.1 363.41 1192.18 360.39 1192.21 359.94C1192.25 358.08 1189.8 355.34 1189.05 353.43C1187.77 350.12 1186.74 348.25 1187.88 344.9C1188.98 341.67 1187.47 338.11 1188.55 334.94C1189.36 332.58 1196.51 335.57 1199.06 336.1C1205.91 337.52 1221.06 336.55 1226.09 341.62C1228.38 343.93 1234.56 346.59 1237.72 348.57C1242.04 351.29 1244.89 354.78 1248.94 357.56C1254.22 361.17 1259.99 366.9 1260.28 372.04C1260.79 381.1 1247.99 378.77 1240.09 379.52C1232.16 380.27 1227.07 382.98 1218.46 382.14C1211.57 381.46 1199.63 380.42 1194.25 376.35C1188.23 371.8 1195.71 362.86 1192.12 360.4" stroke="#A56549" stroke-opacity="1.000000" stroke-width="2.000000" stroke-linecap="round"/>
	<path id="Vector 2005" d="M1372.54 343.68C1384.73 345.03 1394.26 338.35 1404.85 344.51C1410.76 347.95 1411.72 353.4 1410.16 357.97C1408.13 363.92 1405.99 369.07 1398.74 372.24C1396.01 373.43 1381.73 376.51 1380.53 372.48" stroke="#A56549" stroke-opacity="1.000000" stroke-width="2.000000" stroke-linecap="round"/>
	<path id="Vector 2006" d="M1262.85 367.09C1263.41 365.43 1263.81 360.24 1267.07 360.51C1270.79 360.81 1273.21 360.8 1276.67 359.47C1284.07 356.62 1292.9 358.38 1300.86 360.18C1307.55 361.69 1315.53 361.54 1322.25 361.15C1327.87 360.83 1329.15 359.39 1330.89 363.35C1334.78 372.24 1340.21 380.32 1337.13 389.33C1335.47 394.19 1331.7 399.65 1323.76 399.47C1318.5 399.35 1310.93 401.31 1306.12 402.79C1300.9 404.39 1294.14 403.2 1288.57 403.03C1278.26 402.72 1272.85 395.48 1267.54 389.87C1261.84 383.83 1260.91 380.51 1263.17 373.89" stroke="#A56549" stroke-opacity="1.000000" stroke-width="2.000000" stroke-linecap="round"/>
	<path id="Vector 2007" d="M1356.15 408.29C1358.96 408.98 1364.06 407.36 1366.35 406.34C1372.55 403.57 1384.96 401.22 1386.85 395.69C1387.8 392.9 1392.28 389.86 1391.13 386.49C1389.97 383.11 1385.02 378.99 1381.74 376.3" stroke="#A56549" stroke-opacity="1.000000" stroke-width="2.000000" stroke-linecap="round"/>
	<path id="Vector 2008" d="M1371.18 380.87C1365.01 379.88 1359.59 384.1 1353.5 382.88C1349.03 381.98 1344.37 383.81 1339.43 382.59" stroke="#A56549" stroke-opacity="1.000000" stroke-width="2.000000" stroke-linecap="round"/>
	<path id="Vector 2009" d="M1221.41 385.46C1215.52 384 1206.92 380.73 1204.87 386.73C1202.29 394.27 1203.61 403.97 1205.69 411.8C1207.42 418.24 1208.46 426.31 1212.09 432.4C1212.78 433.55 1228.13 429.68 1230.78 428.74C1235.97 426.9 1238.22 426.76 1240.88 422.95C1243.99 418.51 1246.63 413.76 1248.35 408.72C1250.61 402.12 1251.61 391.97 1240.27 389.16" stroke="#A56549" stroke-opacity="1.000000" stroke-width="2.000000" stroke-linecap="round"/>
	<path id="Vector 2010" d="M1197.49 416.63C1190 414.77 1180.01 413.93 1175.46 407.97C1171.09 402.25 1168.88 392.57 1171.09 386.08C1173.28 379.67 1195.23 388.33 1201.38 389.85" stroke="#A56549" stroke-opacity="1.000000" stroke-width="2.000000" stroke-linecap="round"/>
	<path id="Vector 2011" d="M1301.17 428.27C1308.3 430.36 1312.96 438.03 1320.02 439.77C1324.13 440.79 1331.77 443.84 1335.9 442.51C1345.97 439.28 1348.61 430.36 1351.26 422.6C1353.22 416.85 1356.18 408.59 1350.42 402.91C1347.8 400.34 1345.6 394.59 1340 395.12C1336.98 395.41 1326.3 398.99 1327.42 395.7" stroke="#A56549" stroke-opacity="1.000000" stroke-width="2.000000" stroke-linecap="round"/>
	<path id="Vector 2012" d="M1249.03 423.34C1258.52 425.69 1281.15 440.47 1289.19 432.77C1293.54 428.61 1304.84 413.56 1297.6 408.16" stroke="#A56549" stroke-opacity="1.000000" stroke-width="2.000000" stroke-linecap="round"/>
	<path id="Vector 2013" d="M1370.32 416.59C1375.72 414.92 1385.61 411.51 1378.39 406.61" stroke="#A56549" stroke-opacity="1.000000" stroke-width="2.000000" stroke-linecap="round"/>
	<path id="Vector 2014" d="M1335.55 443.72C1339.24 444.63 1343.33 446.07 1347.12 446.59C1351.36 447.16 1357.09 442.34 1360.21 440.9C1364.97 438.69 1371.41 433.92 1373.75 430.04C1376.76 425.05 1378.36 418.16 1367.36 415.87C1364.52 415.28 1359.32 416.12 1356.6 416.55C1351.75 417.32 1347.83 418.9 1348.19 414.89" stroke="#A56549" stroke-opacity="1.000000" stroke-width="2.000000" stroke-linecap="round"/>
	<path id="Vector 2015" d="M1201.28 429.81C1192.36 427.6 1183.43 425.39 1174.5 423.17C1170.65 422.22 1164.17 421.45 1167.67 426.69C1172.74 434.29 1179.3 440.31 1184.9 447.4C1190.56 454.56 1202.4 450.92 1210.48 450.61C1221.81 450.18 1222.59 447.71 1220.55 439.79" stroke="#A56549" stroke-opacity="1.000000" stroke-width="2.000000" stroke-linecap="round"/>
	<path id="Vector 2016" d="M1236.38 427.21C1234.94 431.39 1233.9 433.56 1237.03 437.64C1242.37 444.62 1250.99 455.24 1259.37 460.64C1263.92 463.57 1269.29 468.45 1274.42 463.86C1279.18 459.58 1284.46 459.12 1286.55 452.99C1287.72 449.56 1293.24 440.08 1289.14 437.2" stroke="#A56549" stroke-opacity="1.000000" stroke-width="2.000000" stroke-linecap="round"/>
	<path id="Vector 2017" d="M1284.13 453.29C1285.68 453.67 1287.57 454.86 1288.49 455.95C1289.96 457.72 1296.12 458.54 1298.51 459.78C1304.17 462.73 1312.83 464.61 1319.32 466.22C1326.63 468.03 1329.34 457.79 1331.01 452.91C1332.24 449.29 1338.35 444.6 1331.8 442.98" stroke="#A56549" stroke-opacity="1.000000" stroke-width="2.000000" stroke-linecap="round"/>
	<path id="Vector 2018" d="M1229.19 456.51C1232.68 458.01 1233.81 464.67 1236.16 467.25C1238.3 469.6 1240.14 472.31 1242.98 474.25C1248 477.7 1255.06 479.03 1261.35 480.59C1272.31 483.31 1280.15 473.25 1282.39 466.67" stroke="#A56549" stroke-opacity="1.000000" stroke-width="2.000000" stroke-linecap="round"/>
	<path id="Vector 2019" d="M1288.72 473.03C1295.23 474.64 1301.73 476.25 1308.24 477.86C1311.22 478.6 1313.96 478.32 1316.74 476.98C1321.71 474.57 1318.47 472.77 1315.67 470.12" stroke="#A56549" stroke-opacity="1.000000" stroke-width="2.000000" stroke-linecap="round"/>
	<path id="Vector 1621" d="M994.72 172.82C994.81 167.64 996.23 159.76 988.85 159.65C979.56 159.51 968.87 163.11 960.51 166.86C953.63 169.95 944.71 172.89 938.76 177.44C937.62 178.31 946.15 189.83 947.93 191.75C951.42 195.51 952.18 197.31 957.23 198.49C963.13 199.88 969.25 200.79 975.46 200.88C983.58 201 995.41 199.18 995.57 189.19" stroke="#A56549" stroke-opacity="1.000000" stroke-width="2.000000" stroke-linecap="round"/>
	<path id="Vector 1629" d="M1139.57 195.49C1139.66 190.29 1145.31 189.02 1150.13 189.09C1156.14 189.18 1166.93 185.42 1171.94 189.42C1181.77 197.23 1199.17 196.85 1205.03 210.1C1206.43 213.29 1209.47 220.59 1204.28 221.62C1198.56 222.76 1192.75 230.96 1190.15 235.54C1188.05 239.25 1183.52 243.09 1179.02 243.02C1176.82 242.99 1165.76 242.82 1169.4 242.88" stroke="#A56549" stroke-opacity="1.000000" stroke-width="2.000000" stroke-linecap="round"/>
	<path id="Vector 1633" d="M951.18 195.92C946.03 195.85 943.28 195.55 939.47 199.17C932.95 205.36 923.16 215.15 919.26 223.4C917.14 227.88 913.02 233.54 919.63 236.53C925.78 239.31 927.72 243.49 935.26 243.61C939.49 243.67 951.77 245.7 953.94 241.6" stroke="#A56549" stroke-opacity="1.000000" stroke-width="2.000000" stroke-linecap="round"/>
	<path id="Vector 1634" d="M915.87 197.7C915.1 200.94 907.81 203.6 905.51 206.18C903.4 208.54 900.82 210.75 899.36 213.57C896.78 218.57 897.15 224.68 897.06 230.22C896.91 239.89 910.47 243.65 918.56 243.77" stroke="#A56549" stroke-opacity="1.000000" stroke-width="2.000000" stroke-linecap="round"/>
	<path id="Vector 1637" d="M958.98 205.24C958.85 213.61 948.08 235.94 959.02 240.5C964.92 242.96 985.09 248.26 989.3 240.95" stroke="#A56549" stroke-opacity="1.000000" stroke-width="2.000000" stroke-linecap="round"/>
	<path id="Vector 1642" d="M934.27 241.71C934.25 243.07 933.41 244.93 932.41 245.96C930.79 247.63 931.51 252.87 930.74 255.14C928.89 260.53 929.07 268.09 928.98 273.81C928.87 280.25 941.27 279.79 947.28 279.88C951.73 279.95 958.71 283.71 958.8 277.94" stroke="#A56549" stroke-opacity="1.000000" stroke-width="2.000000" stroke-linecap="round"/>
	<path id="Vector 1645" d="M967.35 249.1C966.87 255.47 959.39 261.27 959.29 267.49C959.23 271.11 957.81 278.14 960.43 281.17C966.81 288.54 977.68 288.38 987.23 288.52C994.31 288.62 1004.52 288.88 1009.44 282.7C1011.67 279.89 1017.63 276.6 1015.52 272.17C1014.38 269.77 1007.44 261.99 1011.5 262.05" stroke="#A56549" stroke-opacity="1.000000" stroke-width="2.000000" stroke-linecap="round"/>
	<path id="Vector 1646" d="M913.01 250.6C912.92 256.33 912.83 262.06 912.74 267.8C912.7 270.42 913.75 272.59 916.03 274.5C920.11 277.93 921.29 274.82 923.55 271.84" stroke="#A56549" stroke-opacity="1.000000" stroke-width="2.000000" stroke-linecap="round"/>
	<path id="Vector 1579" d="M601.04 62.24C595.29 62.36 593.68 57.35 593.58 53.06C593.46 47.68 588.89 38.18 593.13 33.55C601.42 24.48 600.36 8.95 614.81 3.23C618.28 1.85 626.24 -1.13 627.58 3.47C629.05 8.54 638.34 13.42 643.5 15.57C647.68 17.31 652.1 21.21 652.19 25.23C652.23 27.2 652.46 37.09 652.39 33.84" stroke="#A56549" stroke-opacity="1.000000" stroke-width="2.000000" stroke-linecap="round"/>
	<path id="Vector 1590" d="M619.74 55.54C619.44 42.12 648.99 30.23 665.17 35.76C673.1 38.47 675.05 48.01 676.99 53.88C677.91 56.7 678.45 59.24 678.52 62.23C678.58 64.75 672.27 67.5 672.18 63.76" stroke="#A56549" stroke-opacity="1.000000" stroke-width="2.000000" stroke-linecap="round"/>
	<path id="Vector 1591" d="M567.4 65.37C567.31 61.62 563.8 44.89 568.79 42.45C574.62 39.61 593.68 30.49 593.9 39.94" stroke="#A56549" stroke-opacity="1.000000" stroke-width="2.000000" stroke-linecap="round"/>
	<path id="Vector 1597" d="M590.09 96.51C589.96 91.08 594.08 86.68 597.13 82.14C601.27 75.98 605.54 69.99 609.42 63.78C610.98 61.27 613.42 59.12 615.68 57.09C616.06 56.76 619.92 61.6 620.94 62.44C626.25 66.8 631.87 70.28 636.51 75.17C640.73 79.63 640.9 82.97 643.43 88.09" stroke="#A56549" stroke-opacity="1.000000" stroke-width="2.000000" stroke-linecap="round"/>
	<path id="Vector 1599" d="M569.76 94.5C569.52 84.06 567.57 75.61 577.96 68C584.57 63.17 593.12 64.97 599.62 67.34" stroke="#A56549" stroke-opacity="1.000000" stroke-width="2.000000" stroke-linecap="round"/>
	<path id="Vector 1600" d="M683.7 65.78C688.7 65.68 696.66 63.74 699.15 67.66C702.08 72.27 706.12 76.65 709.38 81.16C711.64 84.28 712.43 86.83 712.26 90.52C712.14 93.21 705.74 99.29 704.37 95.09" stroke="#A56549" stroke-opacity="1.000000" stroke-width="2.000000" stroke-linecap="round"/>
	<path id="Vector 1601" d="M684.47 99.41C683.7 90.38 674.96 84.4 670.56 77.01C667.88 72.5 664.5 65.79 658.07 65.92C646.53 66.16 648.3 72.59 643.23 79.64" stroke="#A56549" stroke-opacity="1.000000" stroke-width="2.000000" stroke-linecap="round"/>
	<path id="Vector 1603" d="M562.76 99.5C554.31 99.68 549.04 84.79 548.89 78.2C548.76 72.68 549.54 73.04 555.46 72.92C559.18 72.84 562.89 72.76 566.61 72.69" stroke="#A56549" stroke-opacity="1.000000" stroke-width="2.000000" stroke-linecap="round"/>
	<path id="Vector 1605" d="M603.02 104.47C611.1 97.66 620.11 92.48 630.47 88.52C634.2 87.1 644.78 95.21 647.59 96.94C654.98 101.48 658.8 109.9 661.08 116.9C664.54 127.48 658.79 140.94 645.34 145.26C636.33 148.16 626.05 155.7 617.34 148.98" stroke="#A56549" stroke-opacity="1.000000" stroke-width="2.000000" stroke-linecap="round"/>
	<path id="Vector 1606" d="M547.76 140.53C547.55 131.03 547.33 121.53 547.11 112.03C546.96 105.24 556.99 100.01 564.86 98.48C570.97 97.29 585.4 95.18 591.02 98.42C602.34 104.94 605.25 115.94 610.39 125.67C612.06 128.83 622.13 151.17 612.79 151.77C603.22 152.38 593.47 152.17 583.88 152.37C579.29 152.46 575.4 152.38 571.06 151.72C568.1 151.27 565.62 149.12 562.9 148.93C559.77 148.71 555.35 146.28 552.23 145.28C548.6 144.11 549.02 141.14 548.96 138.57" stroke="#A56549" stroke-opacity="1.000000" stroke-width="2.000000" stroke-linecap="round"/>
	<path id="Vector 1608" d="M661.98 114.02C661.91 111.15 660.64 101.44 664.84 100.33C669.42 99.12 676.08 100.04 680.86 99.94C688.82 99.77 703.22 96.91 704.1 106.82C704.87 115.57 718.04 118.42 718.24 127.06C718.34 131.44 718.44 135.83 718.54 140.21C718.59 142.51 718.08 143.99 716.81 146.04C715.03 148.89 712.75 146.53 709.96 145.65" stroke="#A56549" stroke-opacity="1.000000" stroke-width="2.000000" stroke-linecap="round"/>
	<path id="Vector 1609" d="M702.54 109.57C713.88 107.65 720.19 98.33 731.69 101.69C738.11 103.56 740.76 108.79 740.88 113.82C741.03 120.37 740.82 126.14 735.38 131.29C733.34 133.23 721.6 140.19 719.19 136.44" stroke="#A56549" stroke-opacity="1.000000" stroke-width="2.000000" stroke-linecap="round"/>
	<path id="Vector 1613" d="M731.83 164.03C737.08 163.92 742.9 164.52 745.71 159.53C747.97 155.53 749.66 152.42 749.27 147.89C749.08 145.62 746.69 138.78 744.29 137.72C740.32 135.96 735.09 138.72 731.25 138.8" stroke="#A56549" stroke-opacity="1.000000" stroke-width="2.000000" stroke-linecap="round"/>
	<path id="Vector 1615" d="M612.25 162.79C612.2 160.96 610.85 155.62 613.85 155.01C617.27 154.31 619.43 153.65 622.09 151.37C627.76 146.5 636.23 145.89 643.93 145.56C650.41 145.27 657.5 142.97 663.37 140.76C668.28 138.92 668.96 137.13 671.81 140.64C678.23 148.55 685.74 155.23 685.97 165.16C686.09 170.5 684.52 177.02 677.37 178.98C672.63 180.29 666.52 184.3 662.71 187.09C658.56 190.11 652.13 190.74 647.11 192.07C637.78 194.54 630.56 188.7 623.96 184.48C616.87 179.94 614.94 176.84 614.78 169.56" stroke="#A56549" stroke-opacity="1.000000" stroke-width="2.000000" stroke-linecap="round"/>
	<path id="Vector 1616" d="M709.23 179.12C711.97 179.07 715.99 176.05 717.7 174.4C722.33 169.94 732.64 164.22 732.5 158.14C732.43 155.06 735.43 150.8 733.29 147.7C731.14 144.61 725.35 141.8 721.53 139.97" stroke="#A56549" stroke-opacity="1.000000" stroke-width="2.000000" stroke-linecap="round"/>
	<path id="Vector 1618" d="M546.89 177.1C546.92 178.45 546.9 175.11 546.76 174.65C546.19 172.76 543.09 170.67 541.8 168.94C539.55 165.96 538.01 164.35 537.93 160.66C537.85 157.1 535.32 153.92 535.24 150.44C535.18 147.84 542.56 148.92 545.01 148.77C551.61 148.36 564.82 143.28 570.99 147.03C573.8 148.75 580.21 149.75 583.68 150.9C588.44 152.48 592.14 155.23 596.68 156.94C602.59 159.15 609.63 163.37 611.59 168.47C615.04 177.46 602.83 178.57 596.02 181.46C589.17 184.36 585.53 188.46 577.55 189.94C571.18 191.11 560.16 193.3 554 190.64C547.12 187.68 550.86 176.65 546.84 175.14" stroke="#A56549" stroke-opacity="1.000000" stroke-width="2.000000" stroke-linecap="round"/>
	<path id="Vector 1619" d="M713.6 147.43C707.77 148.1 704.32 153.81 698.46 154.22C694.18 154.53 690.62 157.63 685.8 157.73" stroke="#A56549" stroke-opacity="1.000000" stroke-width="2.000000" stroke-linecap="round"/>
	<path id="Vector 1624" d="M666.7 214.11C673.77 214.29 680.46 220.76 687.34 220.62C691.36 220.54 699.18 221.55 702.44 219.09C710.37 213.12 709.78 203.41 709.59 194.88C709.44 188.54 709.36 179.42 702.33 175.26C699.15 173.36 695.28 168.16 690.46 170.21C687.85 171.32 679.49 177.81 679.4 174.19" stroke="#A56549" stroke-opacity="1.000000" stroke-width="2.000000" stroke-linecap="round"/>
	<path id="Vector 1625" d="M724.63 183.67C728.9 180.53 736.62 174.42 728.55 171.43" stroke="#A56549" stroke-opacity="1.000000" stroke-width="2.000000" stroke-linecap="round"/>
	<path id="Vector 1627" d="M702.53 220.4C706.12 220.33 710.25 220.67 713.81 220.17C717.79 219.6 721.32 213.19 723.63 210.9C727.16 207.39 731.33 200.85 732.14 196.3C733.19 190.46 732.34 183.08 721.75 183.74C719.02 183.92 714.65 186.16 712.36 187.33C708.28 189.42 705.3 192.07 704.29 187.92" stroke="#A56549" stroke-opacity="1.000000" stroke-width="2.000000" stroke-linecap="round"/>
	<path id="Vector 1630" d="M581.28 192.5C575.54 192.61 566.77 191.64 566.92 198.24C567.11 206.54 571.49 215.95 575.95 223.28C579.61 229.31 583.2 237.17 588.46 242.32C589.45 243.3 601.89 235.25 603.95 233.59C607.98 230.33 609.94 229.58 611.07 225.03C612.38 219.71 613.17 214.21 613.04 208.66C612.88 201.4 610.42 190.9 599.36 191.13" stroke="#A56549" stroke-opacity="1.000000" stroke-width="2.000000" stroke-linecap="round"/>
	<path id="Vector 1631" d="M618.47 223.21C627.73 223.02 652.84 231.81 657.49 221.87C660 216.51 665.12 198.29 656.87 194.8" stroke="#A56549" stroke-opacity="1.000000" stroke-width="2.000000" stroke-linecap="round"/>
	<path id="Vector 1636" d="M570.21 230.37C562.89 230.52 553.69 232.37 547.66 227.59C541.87 223 536.69 213.85 536.53 206.7C536.37 199.65 558.84 202.45 564.83 202.33" stroke="#A56549" stroke-opacity="1.000000" stroke-width="2.000000" stroke-linecap="round"/>
	<path id="Vector 1639" d="M659.73 243.93C661.24 243.9 663.33 244.58 664.5 245.44C666.41 246.83 672.18 245.98 674.72 246.59C680.76 248.03 689.12 247.6 695.45 247.47C702.58 247.32 701.62 236.26 701.5 230.89C701.41 226.91 705.32 220.54 698.93 220.67" stroke="#A56549" stroke-opacity="1.000000" stroke-width="2.000000" stroke-linecap="round"/>
	<path id="Vector 1640" d="M608.45 230.54C608.55 235.14 608.33 237.6 612.47 240.88C619.56 246.47 630.76 254.85 640.03 258.03C645.06 259.75 651.47 263.22 654.54 257.2C657.4 251.61 661.95 249.72 661.8 242.98C661.71 239.2 663.51 228.15 658.89 226.36" stroke="#A56549" stroke-opacity="1.000000" stroke-width="2.000000" stroke-linecap="round"/>
	<path id="Vector 1643" d="M577.95 242.63C569.24 242.81 560.53 242.99 551.82 243.17C548.07 243.25 542.02 244.22 546.88 248.56C553.92 254.85 561.77 259.16 569.12 264.79C576.54 270.48 585.91 263.61 593.03 261.12C603.03 257.62 602.9 254.93 598.46 247.49" stroke="#A56549" stroke-opacity="1.000000" stroke-width="2.000000" stroke-linecap="round"/>
	<path id="Vector 1647" d="M670.35 262.59C676.7 262.46 683.05 262.33 689.39 262.2C692.3 262.14 694.66 261.11 696.7 259.01C700.34 255.24 696.85 254.29 693.47 252.39" stroke="#A56549" stroke-opacity="1.000000" stroke-width="2.000000" stroke-linecap="round"/>
	<path id="Vector 1648" d="M611.71 262.01C615.32 262.58 618.53 268.99 621.47 270.95C624.17 272.74 626.71 274.97 629.88 276.17C635.51 278.29 642.26 277.73 648.39 277.6C659.1 277.38 662.76 265.12 662.6 257.89" stroke="#A56549" stroke-opacity="1.000000" stroke-width="2.000000" stroke-linecap="round"/>
	<path id="Vector 1651" d="M958.96 281.2C958.91 284.45 958.37 288.16 958.8 291.39C959.28 295 966.31 298.42 968.79 300.59C972.58 303.91 979.74 307.92 984.79 308.82C991.28 309.98 999.56 309.48 999.22 299.91C999.13 297.43 996.78 293.41 995.56 291.3C993.38 287.54 990.53 284.75 995.2 284" stroke="#A56549" stroke-opacity="1.000000" stroke-width="2.000000" stroke-linecap="round"/>
	<path id="Vector 1834" d="M1317.57 566.05C1311.67 564.59 1311.7 559.63 1313.03 555.72C1314.7 550.83 1313.23 541.02 1319.09 537.99C1330.55 532.07 1334.65 517.76 1351.27 516.53C1355.27 516.23 1364.37 515.71 1364.19 520.23C1364 525.21 1371.83 532.15 1376.38 535.5C1380.05 538.21 1383.24 542.94 1381.99 546.59C1381.38 548.38 1378.31 557.37 1379.32 554.41" stroke="#A56549" stroke-opacity="1.000000" stroke-width="2.000000" stroke-linecap="round"/>
	<path id="Vector 1838" d="M1282.27 559.7C1283.43 556.28 1285.43 540.23 1291.32 539.39C1298.22 538.41 1320.67 535.38 1317.73 543.97" stroke="#A56549" stroke-opacity="1.000000" stroke-width="2.000000" stroke-linecap="round"/>
	<path id="Vector 1841" d="M1338.85 565.09C1343.01 552.9 1377.07 550.23 1391.7 559.63C1398.88 564.24 1397.68 573.39 1397.69 579.21C1397.69 582.02 1397.39 584.46 1396.47 587.17C1395.69 589.46 1388.34 590.22 1389.5 586.82" stroke="#A56549" stroke-opacity="1.000000" stroke-width="2.000000" stroke-linecap="round"/>
	<path id="Vector 1843" d="M1294.99 593.99C1296.67 589.06 1302.32 586.21 1306.94 582.95C1313.22 578.51 1319.57 574.27 1325.58 569.72C1328.02 567.88 1331.21 566.61 1334.2 565.39C1334.69 565.19 1337.01 570.62 1337.77 571.65C1341.72 577.04 1346.28 581.71 1349.37 587.39C1352.18 592.57 1351.24 595.63 1352.11 600.94" stroke="#A56549" stroke-opacity="1.000000" stroke-width="2.000000" stroke-linecap="round"/>
	<path id="Vector 1844" d="M1274.96 586.64C1278.19 577.14 1279.03 568.99 1292.15 564.95C1300.48 562.39 1308.59 566.35 1314.42 570.26" stroke="#A56549" stroke-opacity="1.000000" stroke-width="2.000000" stroke-linecap="round"/>
	<path id="Vector 1845" d="M1266.15 589.24C1257.49 587.1 1257.09 572.22 1259.14 566.23C1260.85 561.21 1261.52 561.75 1267.59 563.25C1271.4 564.2 1275.21 565.14 1279.02 566.09" stroke="#A56549" stroke-opacity="1.000000" stroke-width="2.000000" stroke-linecap="round"/>
	<path id="Vector 1848" d="M1390.12 622.35C1392.34 613.99 1385.44 606.21 1383.43 598.34C1382.2 593.53 1381 586.56 1374.41 584.92C1362.58 581.99 1362.24 588.28 1354.73 593.26" stroke="#A56549" stroke-opacity="1.000000" stroke-width="2.000000" stroke-linecap="round"/>
	<path id="Vector 1849" d="M1237.19 622.19C1240.15 613.55 1243.09 604.92 1246.04 596.28C1248.15 590.11 1260.11 588.13 1268.64 588.89C1275.25 589.49 1290.65 591.52 1295.29 595.97C1304.64 604.94 1303.93 615.66 1305.93 625.85C1306.57 629.16 1309.38 652.07 1299.66 650.07C1289.71 648.01 1279.86 645.16 1270.02 642.72C1265.31 641.56 1261.39 640.42 1257.18 638.64C1254.31 637.43 1252.52 634.81 1249.81 633.9C1246.68 632.84 1243 629.45 1240.16 627.69C1236.86 625.65 1238.28 623.08 1239.07 620.74" stroke="#A56549" stroke-opacity="1.000000" stroke-width="2.000000" stroke-linecap="round"/>
	<path id="Vector 1852" d="M1305.49 604.7C1316 600.76 1326.9 598.54 1338.76 597.8C1343.04 597.53 1351.11 607.73 1353.39 610.06C1359.4 616.18 1360.48 624.82 1360.47 631.76C1360.46 642.25 1350.12 652.84 1334.98 653.07C1324.84 653.23 1311.85 657.23 1305.22 648.79" stroke="#A56549" stroke-opacity="1.000000" stroke-width="2.000000" stroke-linecap="round"/>
	<path id="Vector 1857" d="M1362.34 629.4C1363.23 626.8 1365.18 617.68 1369.83 617.83C1374.89 617.98 1381.37 620.63 1386.27 621.84C1394.43 623.86 1410.04 625.21 1407.63 634.4C1405.5 642.5 1417.96 648.67 1415.28 656.52C1413.92 660.5 1412.56 664.49 1411.2 668.47C1410.49 670.56 1409.48 671.76 1407.49 673.26C1404.73 675.35 1403.19 672.6 1400.65 671.05" stroke="#A56549" stroke-opacity="1.000000" stroke-width="2.000000" stroke-linecap="round"/>
	<path id="Vector 1858" d="M1224.11 654.96C1223.68 656.19 1224.78 653.17 1224.8 652.72C1224.84 650.85 1222.39 648.12 1221.64 646.21C1220.36 642.9 1219.32 641.03 1220.47 637.67C1221.56 634.44 1220.06 630.89 1221.15 627.72C1221.94 625.36 1229.1 628.35 1231.65 628.88C1238.5 630.3 1253.65 629.33 1258.68 634.39C1260.97 636.71 1267.16 639.36 1270.31 641.34C1274.63 644.07 1277.48 647.56 1281.54 650.34C1286.81 653.95 1292.57 659.67 1292.87 664.82C1293.38 673.87 1280.57 671.55 1272.68 672.29C1264.75 673.04 1259.67 675.76 1251.05 674.91C1244.17 674.23 1232.22 673.2 1226.84 669.13C1220.81 664.57 1228.3 655.63 1224.71 653.18" stroke="#A56549" stroke-opacity="1.000000" stroke-width="2.000000" stroke-linecap="round"/>
	<path id="Vector 1863" d="M1295.43 659.86C1296.01 658.2 1296.4 653.01 1299.67 653.28C1303.38 653.58 1305.8 653.57 1309.27 652.24C1316.67 649.4 1325.49 651.15 1333.45 652.95C1340.14 654.46 1348.13 654.31 1354.84 653.93C1360.46 653.6 1361.75 652.17 1363.48 656.12C1367.38 665.01 1372.8 673.09 1369.72 682.11C1368.06 686.96 1364.29 692.42 1356.35 692.25C1351.09 692.13 1343.53 694.09 1338.71 695.56C1333.49 697.16 1326.73 695.97 1321.17 695.81C1310.85 695.5 1305.43 688.25 1300.13 682.64C1294.43 676.61 1293.5 673.28 1295.76 666.67" stroke="#A56549" stroke-opacity="1.000000" stroke-width="2.000000" stroke-linecap="round"/>
	<path id="Vector 1869" d="M1403.77 673.64C1397.6 672.66 1392.18 676.87 1386.09 675.65C1381.62 674.76 1376.96 676.58 1372.02 675.36" stroke="#A56549" stroke-opacity="1.000000" stroke-width="2.000000" stroke-linecap="round"/>
	<path id="Vector 1871" d="M1254 678.24C1248.11 676.78 1239.51 673.51 1237.46 679.5C1234.88 687.05 1236.19 696.74 1238.29 704.58C1240.02 711.02 1241.05 719.09 1244.68 725.17C1245.37 726.33 1260.72 722.46 1263.37 721.52C1268.56 719.67 1270.81 719.53 1273.47 715.73C1276.57 711.29 1279.22 706.54 1280.94 701.49C1283.19 694.89 1284.19 684.75 1272.86 681.94" stroke="#A56549" stroke-opacity="1.000000" stroke-width="2.000000" stroke-linecap="round"/>
	<path id="Vector 1875" d="M1333.76 721.04C1340.89 723.14 1345.55 730.8 1352.61 732.55C1356.73 733.57 1364.36 736.62 1368.49 735.29C1378.56 732.06 1381.2 723.14 1383.85 715.38C1385.82 709.62 1388.77 701.37 1383.01 695.69C1380.39 693.11 1378.19 687.36 1372.59 687.9C1369.57 688.19 1358.89 691.77 1360.02 688.47" stroke="#A56549" stroke-opacity="1.000000" stroke-width="2.000000" stroke-linecap="round"/>
	<path id="Vector 1877" d="M1281.62 716.11C1291.11 718.46 1313.75 733.25 1321.79 725.54C1326.14 721.38 1337.43 706.34 1330.2 700.93" stroke="#A56549" stroke-opacity="1.000000" stroke-width="2.000000" stroke-linecap="round"/>
	<path id="Vector 1880" d="M1368.14 736.49C1371.83 737.41 1375.92 738.84 1379.71 739.36C1383.95 739.94 1389.68 735.11 1392.8 733.67C1397.57 731.47 1404 726.7 1406.34 722.82C1409.35 717.83 1410.95 710.93 1399.95 708.65C1397.11 708.06 1391.92 708.89 1389.19 709.33C1384.34 710.09 1380.42 711.68 1380.78 707.66" stroke="#A56549" stroke-opacity="1.000000" stroke-width="2.000000" stroke-linecap="round"/>
	<path id="Vector 1881" d="M1233.87 722.58C1224.94 720.37 1216.02 718.16 1207.09 715.95C1203.25 714.99 1196.76 714.22 1200.26 719.47C1205.32 727.06 1211.89 733.09 1217.49 740.18C1223.16 747.34 1234.99 743.69 1243.06 743.39C1254.41 742.96 1255.18 740.49 1253.14 732.57" stroke="#A56549" stroke-opacity="1.000000" stroke-width="2.000000" stroke-linecap="round"/>
	<path id="Vector 1882" d="M1268.97 719.99C1267.54 724.17 1266.49 726.33 1269.62 730.42C1274.97 737.4 1283.57 748.01 1291.96 753.42C1296.51 756.35 1301.88 761.22 1307.01 756.63C1311.78 752.36 1317.05 751.9 1319.14 745.77C1320.32 742.33 1325.83 732.85 1321.73 729.97" stroke="#A56549" stroke-opacity="1.000000" stroke-width="2.000000" stroke-linecap="round"/>
	<path id="Vector 1883" d="M1316.72 746.06C1318.27 746.45 1320.17 747.63 1321.08 748.72C1322.56 750.5 1328.72 751.31 1331.1 752.55C1336.77 755.5 1345.42 757.39 1351.91 759C1359.22 760.81 1361.93 750.56 1363.6 745.68C1364.83 742.07 1370.94 737.38 1364.39 735.75" stroke="#A56549" stroke-opacity="1.000000" stroke-width="2.000000" stroke-linecap="round"/>
	<path id="Vector 1884" d="M1261.79 749.29C1265.28 750.79 1266.41 757.45 1268.75 760.02C1270.9 762.37 1272.74 765.08 1275.56 767.02C1280.59 770.47 1287.65 771.81 1293.93 773.36C1304.92 776.08 1312.74 766.02 1314.98 759.44" stroke="#A56549" stroke-opacity="1.000000" stroke-width="2.000000" stroke-linecap="round"/>
	<path id="Vector 1885" d="M1321.31 765.8C1327.82 767.42 1334.33 769.03 1340.83 770.64C1343.81 771.38 1346.55 771.1 1349.33 769.75C1354.3 767.35 1351.06 765.54 1348.26 762.9" stroke="#A56549" stroke-opacity="1.000000" stroke-width="2.000000" stroke-linecap="round"/>
	<path id="Vector 1892" d="M1230.71 815.4C1234.92 815.47 1253.75 812.92 1256.28 817.51C1259.24 822.88 1268.72 840.42 1258.14 840.26" stroke="#A56549" stroke-opacity="1.000000" stroke-width="2.000000" stroke-linecap="round"/>
	<path id="Vector 1895" d="M1232.93 845.88C1233.03 840.68 1238.68 839.41 1243.49 839.48C1249.51 839.57 1260.3 835.81 1265.31 839.81C1275.14 847.62 1292.54 847.24 1298.39 860.49C1299.8 863.68 1302.84 870.98 1297.64 872.01C1291.92 873.15 1286.11 881.35 1283.52 885.93C1281.42 889.64 1276.88 893.48 1272.39 893.41C1270.18 893.38 1259.12 893.21 1262.76 893.27" stroke="#A56549" stroke-opacity="1.000000" stroke-width="2.000000" stroke-linecap="round"/>
	<path id="Vector 1901" d="M1239.74 863.01C1254.74 863.23 1266.93 890.34 1260.13 904.74C1256.81 911.79 1246.06 913.2 1239.43 914.72C1236.24 915.46 1238.17 914.77 1234.82 914.72C1232.01 914.68 1197.32 898.18 1197.32 898.18" stroke="#A56549" stroke-opacity="1.000000" stroke-width="2.000000" stroke-linecap="round"/>
	<path id="Vector 1912" d="M209.59 425.67C205.43 420.45 209.18 415.32 213.29 412.11C218.44 408.08 224.48 396.97 231.97 397.52C246.63 398.58 261.01 386.32 276.74 395.49C280.52 397.7 289.02 402.88 285.48 407.46C281.57 412.5 283.35 424.63 284.89 430.96C286.14 436.08 285.43 442.99 281.59 446C279.7 447.47 270.23 454.87 273.35 452.43" stroke="#A56549" stroke-opacity="1.000000" stroke-width="2.000000" stroke-linecap="round"/>
	<path id="Vector 1913" d="M182.9 396.89C186.5 394.07 200.31 378.68 206.19 381.51C213.07 384.83 235.34 395.8 226.29 402.87" stroke="#A56549" stroke-opacity="1.000000" stroke-width="2.000000" stroke-linecap="round"/>
	<path id="Vector 1914" d="M146.39 417.41C140.28 409.73 151.08 394.05 157.39 389.12C162.67 384.99 162.87 385.97 167.15 391.35C169.84 394.72 172.53 398.1 175.21 401.47" stroke="#A56549" stroke-opacity="1.000000" stroke-width="2.000000" stroke-linecap="round"/>
	<path id="Vector 1916" d="M156.2 420.23C166.2 412.42 173.05 404.48 187.76 408.55C197.11 411.13 201.37 420.34 203.63 428.06" stroke="#A56549" stroke-opacity="1.000000" stroke-width="2.000000" stroke-linecap="round"/>
	<path id="Vector 1917" d="M95.91 433.38C105 426.27 114.1 419.17 123.2 412.06C129.71 406.98 141.85 412.45 148.87 418.6C154.32 423.38 166.52 435.17 167.32 442.71C168.93 457.9 160.27 468.58 154.4 480.4C152.5 484.24 137.82 509.77 130.67 501.58C123.35 493.19 116.71 484.04 109.77 475.32C106.45 471.15 103.8 467.51 101.39 463.02C99.74 459.96 100.09 456.11 98.37 453.46C96.38 450.41 95.63 444.56 94.42 440.95C93.01 436.75 96.2 434.98 98.66 433.06" stroke="#A56549" stroke-opacity="1.000000" stroke-width="2.000000" stroke-linecap="round"/>
	<path id="Vector 1918" d="M168.53 440.46C173.72 436.4 180.91 437 187.47 436.52C196.38 435.86 205.21 435.46 213.98 434.52C217.53 434.14 221.33 434.83 224.9 435.45C225.49 435.55 223.49 442.63 223.39 444.19C222.88 452.26 223.45 459.97 221.93 467.81C220.56 474.95 217.43 477.54 214.22 483.59" stroke="#A56549" stroke-opacity="1.000000" stroke-width="2.000000" stroke-linecap="round"/>
	<path id="Vector 1920" d="M229.27 438.06C242.12 428.03 274.47 446.67 280.47 465.64C283.4 474.93 275.48 483.66 271.13 489.71C269.03 492.62 266.93 494.97 264.07 497.2C261.66 499.08 254.55 495.26 258.13 492.46" stroke="#A56549" stroke-opacity="1.000000" stroke-width="2.000000" stroke-linecap="round"/>
	<path id="Vector 1921" d="M59.68 459.14C58.39 460.15 61.62 457.71 61.97 457.25C63.41 455.35 63.27 450.96 64.04 448.51C65.38 444.27 65.86 441.68 69.4 438.92C72.8 436.26 74.12 431.62 77.46 429.02C79.94 427.08 84.07 434.67 85.95 436.82C90.99 442.61 105.22 451.13 105.9 459.54C106.21 463.39 109.73 470.04 111.05 474.07C112.87 479.61 112.79 485.02 114.32 490.46C116.32 497.52 117.16 507.09 113.57 512.61C107.24 522.33 97.57 511.86 89.98 507.67C82.34 503.46 75.78 503.08 68.74 496.78C63.11 491.75 53.24 483.17 51.5 475.56C49.54 467.05 62.91 462.48 61.55 457.68" stroke="#A56549" stroke-opacity="1.000000" stroke-width="2.000000" stroke-linecap="round"/>
	<path id="Vector 1923" d="M169.87 458.18C182.18 460.7 193.56 465.25 204.69 471.94C208.7 474.35 208.24 490.01 208.54 493.86C209.31 503.98 203.78 513.63 198.58 520.82C190.71 531.7 173.56 536.18 159.89 526.9C150.74 520.69 136.17 516.68 136.58 503.75" stroke="#A56549" stroke-opacity="1.000000" stroke-width="2.000000" stroke-linecap="round"/>
	<path id="Vector 1927" d="M232.05 529.71C240.3 522.43 239.98 510.02 244.09 500.59C246.59 494.83 250.75 486.84 246.1 481C237.76 470.52 232.74 476.83 222.32 477.27" stroke="#A56549" stroke-opacity="1.000000" stroke-width="2.000000" stroke-linecap="round"/>
	<path id="Vector 1928" d="M24.21 519.38C18.92 512.74 10.65 505.59 11.06 496.54C11.46 487.87 16.73 476.43 23.57 471.09C30.33 465.82 43.4 488.6 47.73 494.04" stroke="#A56549" stroke-opacity="1.000000" stroke-width="2.000000" stroke-linecap="round"/>
	<path id="Vector 1931" d="M68.87 502.09C64.71 496.88 59.5 488.07 53.18 493C45.23 499.21 39.14 510.09 35.13 519.54C31.84 527.31 26.71 536.33 25.39 544.92C25.14 546.56 41.72 552.19 44.79 552.89C50.79 554.23 52.9 555.51 58.13 553.23C64.22 550.58 70.14 547.31 75.45 543.16C82.41 537.73 90.9 527.83 82.91 517.79" stroke="#A56549" stroke-opacity="1.000000" stroke-width="2.000000" stroke-linecap="round"/>
	<path id="Vector 1932" d="M119.56 509.09C121.31 507.72 125.56 502.59 128.27 504.91C131.35 507.57 133.51 509.08 137.6 509.87C146.33 511.58 152.87 518.95 158.62 525.82C163.45 531.59 170.67 536.46 176.94 540.28C182.2 543.47 184.42 542.8 183 547.99C179.81 559.66 178.59 571.45 169.08 578.87C163.97 582.87 156.52 586.16 149.58 580.99C144.97 577.55 136.77 574.83 131.37 573.33C125.52 571.71 120.39 566.22 115.56 562.55C106.6 555.74 107.2 544.83 106.68 535.67C106.12 525.82 107.78 521.79 114.75 516.34" stroke="#A56549" stroke-opacity="1.000000" stroke-width="2.000000" stroke-linecap="round"/>
	<path id="Vector 1935" d="M264.25 504.56C267.86 509.1 275.35 515.04 273.28 520.19C270.85 526.24 269.42 533.15 267.33 539.44C265.88 543.8 263.95 546.37 260.24 548.91C257.53 550.75 247.12 549.26 250.24 544.94" stroke="#A56549" stroke-opacity="1.000000" stroke-width="2.000000" stroke-linecap="round"/>
	<path id="Vector 1937" d="M202.02 519.56C204.76 517.41 213.33 509.19 217.36 512.26C221.75 515.6 225.55 522.42 229 526.76C234.76 533.99 247.67 545.2 238.63 553.22C230.66 560.29 237.14 574.52 228.86 580.98C224.67 584.26 220.47 587.54 216.27 590.82C214.07 592.53 212.27 593.15 209.38 593.45C205.35 593.88 206.04 590.06 204.93 586.85" stroke="#A56549" stroke-opacity="1.000000" stroke-width="2.000000" stroke-linecap="round"/>
	<path id="Vector 1940" d="M65.1 558.75C71.8 567.16 80.89 596.73 93.83 593.8C100.82 592.21 122.16 583.71 119.76 573.55" stroke="#A56549" stroke-opacity="1.000000" stroke-width="2.000000" stroke-linecap="round"/>
	<path id="Vector 1942" d="M234.86 553.78C244.7 562.85 258.21 561.91 263.03 574.96C265.72 582.25 262.49 588.5 257.68 592.26C251.4 597.16 245.64 601.16 236.8 599.89C233.47 599.41 218.44 593.63 220.4 588.68" stroke="#A56549" stroke-opacity="1.000000" stroke-width="2.000000" stroke-linecap="round"/>
	<path id="Vector 1943" d="M50.92 554.82C46.52 558.26 43.96 559.84 43.68 566.05C43.22 576.65 42.93 593.08 46.36 603.95C48.21 609.85 49.34 618.29 57.36 616.75C64.81 615.32 69.85 618.16 76.31 613.12C79.93 610.29 91.95 603.93 90.45 598.36" stroke="#A56549" stroke-opacity="1.000000" stroke-width="2.000000" stroke-linecap="round"/>
	<path id="Vector 1945" d="M107.87 596.66C112.65 603.32 111.06 614.2 116.04 620.45C118.94 624.09 123.46 632.06 128.14 633.28C139.53 636.26 148.57 628.67 156.74 622.28C162.81 617.55 171.63 610.84 170.75 601.32C170.35 597.01 172.7 589.66 167.31 586.69C164.4 585.09 152.2 582.09 155.67 579.38" stroke="#A56549" stroke-opacity="1.000000" stroke-width="2.000000" stroke-linecap="round"/>
	<path id="Vector 1946" d="M205.77 591.51C201.02 586.6 193.03 587.57 188.51 582.47C185.21 578.74 179.68 577.7 176.2 573.32" stroke="#A56549" stroke-opacity="1.000000" stroke-width="2.000000" stroke-linecap="round"/>
	<path id="Vector 1947" d="M22.57 580.7C24.55 584.45 20.56 592.07 20.72 596.21C20.87 600.01 20.48 603.97 21.55 607.77C23.44 614.51 28.73 620.33 33.17 625.9C40.91 635.62 55.42 630.1 62.35 624.69" stroke="#A56549" stroke-opacity="1.000000" stroke-width="2.000000" stroke-linecap="round"/>
	<path id="Vector 1948" d="M171.83 610.5C173.81 612.99 179.58 614.51 182.38 614.89C189.98 615.92 202.8 621.28 208.63 616.73C211.57 614.44 217.84 614.11 219.34 609.88C220.85 605.65 219.52 598.26 218.61 593.4" stroke="#A56549" stroke-opacity="1.000000" stroke-width="2.000000" stroke-linecap="round"/>
	<path id="Vector 1951" d="M73.93 611.9C75.02 613.27 75.83 615.7 75.82 617.4C75.8 620.17 80.68 624.89 81.88 627.67C84.72 634.3 91.02 641.7 95.6 647.45C100.75 653.92 110.85 645 115.99 640.98C119.8 638.01 128.76 636.98 124.14 631.18" stroke="#A56549" stroke-opacity="1.000000" stroke-width="2.000000" stroke-linecap="round"/>
	<path id="Vector 1953" d="M202.42 620.4C206.22 625.17 209.72 630.97 216.55 629.95C222.05 629.13 226.26 628.42 230.39 624.78C232.47 622.94 237.45 615.77 236.8 612.78C235.72 607.83 229.35 605.02 226.58 601.53" stroke="#A56549" stroke-opacity="1.000000" stroke-width="2.000000" stroke-linecap="round"/>
	<path id="Vector 1955" d="M126.92 634.31C129.52 637.57 132.09 641.64 135.08 644.56C138.43 647.82 147.15 646.42 151.01 646.89C156.91 647.6 166.22 646.69 171.21 644.14C177.64 640.86 184.22 634.71 176.14 625.42C174.04 623.02 168.79 620.62 166.04 619.36C161.14 617.1 156.46 616.28 159.79 612.34" stroke="#A56549" stroke-opacity="1.000000" stroke-width="2.000000" stroke-linecap="round"/>
	<path id="Vector 1957" d="M178.23 628.02C184.3 629.68 195.67 632.37 192.91 622.75" stroke="#A56549" stroke-opacity="1.000000" stroke-width="2.000000" stroke-linecap="round"/>
	<path id="Vector 1959" d="M63.22 635.27C67.81 641.03 72.41 646.79 77 652.56C79.1 655.2 81.75 656.63 85.24 656.98C91.47 657.61 89.93 653.7 89.41 649.19" stroke="#A56549" stroke-opacity="1.000000" stroke-width="2.000000" stroke-linecap="round"/>
	<path id="Vector 1967" d="M145.57 775.9C145.69 767.46 143.81 756.76 149.89 750.02C155.73 743.56 167.12 738.02 175.84 738.18C184.45 738.32 180.11 764.12 180.02 771.03" stroke="#A56549" stroke-opacity="1.000000" stroke-width="2.000000" stroke-linecap="round"/>
	<path id="Vector 1968" d="M211.55 751.53C209.89 751.5 213.97 751.64 214.53 751.5C216.86 750.93 219.55 747.45 221.71 746.04C225.45 743.6 227.48 741.9 231.98 741.98C236.32 742.05 240.3 739.29 244.56 739.36C247.73 739.42 246.11 747.87 246.2 750.71C246.43 758.34 252.08 773.83 247.25 780.76C245.04 783.93 243.55 791.27 242.01 795.21C239.88 800.63 236.37 804.77 234.11 809.93C231.16 816.64 225.73 824.56 219.41 826.58C208.3 830.13 207.45 815.99 204.21 808C200.95 799.97 196.09 795.57 194.62 786.3C193.44 778.89 191.23 766.08 194.72 759.1C198.62 751.3 211.93 756.13 213.93 751.57" stroke="#A56549" stroke-opacity="1.000000" stroke-width="2.000000" stroke-linecap="round"/>
	<path id="Vector 1969" d="M130.29 784.25C130.42 774.2 130.56 764.14 130.7 754.09C130.76 749.76 129.82 742.73 124.32 748.13C116.36 755.95 110.78 764.81 103.61 773.01C96.36 781.31 104.35 792.45 107.1 800.78C110.96 812.47 114.25 812.45 123.51 807.68" stroke="#A56549" stroke-opacity="1.000000" stroke-width="2.000000" stroke-linecap="round"/>
	<path id="Vector 1970" d="M256.14 754.28C267.74 754.48 279.35 754.68 290.95 754.88C299.25 755.02 305.21 766.84 306.76 776C307.96 783.1 309.94 799.85 305.76 806.18C297.33 818.93 283.79 821.76 271.7 827.24C267.78 829.01 240.1 839.57 239.75 828.76C239.4 817.69 240.05 806.46 240.21 795.38C240.28 790.08 240.54 785.6 241.52 780.62C242.19 777.23 244.92 774.47 245.26 771.34C245.66 767.74 248.81 762.75 250.16 759.21C251.74 755.07 255.35 755.7 258.48 755.76" stroke="#A56549" stroke-opacity="1.000000" stroke-width="2.000000" stroke-linecap="round"/>
	<path id="Vector 1972" d="M191.34 790.48C191.43 783.85 192.98 773.78 184.92 773.64C174.78 773.47 163.11 778.07 153.98 782.86C146.47 786.81 136.74 790.57 130.23 796.39C128.99 797.5 138.3 812.23 140.25 814.68C144.06 819.48 144.89 821.78 150.41 823.3C156.84 825.06 163.52 826.23 170.3 826.35C179.17 826.51 192.09 824.17 192.26 811.4" stroke="#A56549" stroke-opacity="1.000000" stroke-width="2.000000" stroke-linecap="round"/>
	<path id="Vector 1973" d="M347.06 780.5C351.65 780.58 372.21 777.32 374.98 783.19C378.21 790.06 388.56 812.47 377.01 812.27" stroke="#A56549" stroke-opacity="1.000000" stroke-width="2.000000" stroke-linecap="round"/>
	<path id="Vector 1974" d="M311.42 781.84C324.17 782.06 334.56 780.21 343.42 792.56C349.05 800.41 346.5 810.19 343.34 817.58" stroke="#A56549" stroke-opacity="1.000000" stroke-width="2.000000" stroke-linecap="round"/>
	<path id="Vector 1978" d="M143.79 820.01C138.17 819.91 135.17 819.54 131.01 824.17C123.89 832.07 113.21 844.59 108.94 855.14C106.63 860.86 102.14 868.1 109.35 871.92C116.06 875.48 118.18 880.82 126.41 880.97C131.03 881.05 144.44 883.65 146.82 878.4" stroke="#A56549" stroke-opacity="1.000000" stroke-width="2.000000" stroke-linecap="round"/>
	<path id="Vector 1979" d="M105.24 822.28C104.4 826.42 96.45 829.82 93.93 833.12C91.63 836.14 88.81 838.97 87.22 842.57C84.4 848.97 84.8 856.77 84.71 863.86C84.54 876.22 99.35 881.03 108.18 881.18" stroke="#A56549" stroke-opacity="1.000000" stroke-width="2.000000" stroke-linecap="round"/>
	<path id="Vector 1980" d="M226.33 827.61C228.56 827.65 235.13 826.33 235.75 829.83C236.46 833.81 237.18 836.33 239.85 839.5C245.56 846.28 245.96 856.08 246.05 864.98C246.13 872.47 248.65 880.75 251.1 887.63C253.15 893.38 255.31 894.25 250.9 897.38C240.99 904.4 232.52 912.76 220.4 912.55C213.88 912.43 205.98 910.32 203.88 901.97C202.48 896.44 197.83 889.2 194.59 884.67C191.07 879.74 190.57 872.3 189.15 866.44C186.52 855.56 193.94 847.5 199.37 840.1C205.2 832.13 209.06 830.05 217.96 830.21" stroke="#A56549" stroke-opacity="1.000000" stroke-width="2.000000" stroke-linecap="round"/>
	<path id="Vector 1981" d="M152.32 831.93C152.17 842.61 140.41 871.16 152.35 877C158.8 880.14 180.82 886.92 185.42 877.57" stroke="#A56549" stroke-opacity="1.000000" stroke-width="2.000000" stroke-linecap="round"/>
	<path id="Vector 1984" d="M125.34 878.54C125.31 880.28 124.39 882.66 123.3 883.97C121.53 886.11 122.32 892.81 121.48 895.71C119.46 902.61 119.65 912.27 119.55 919.58C119.44 927.81 132.98 927.23 139.54 927.34C144.39 927.43 152.02 932.24 152.12 924.86" stroke="#A56549" stroke-opacity="1.000000" stroke-width="2.000000" stroke-linecap="round"/>
	<path id="Vector 1985" d="M283.81 887.29C287.31 887.35 299.22 886.35 300.4 891.25C301.68 896.58 300.29 904.23 300.22 909.75C300.09 918.94 302.99 935.68 290.85 936.22C280.15 936.7 276.13 951.76 265.57 951.58C260.22 951.49 254.86 951.39 249.51 951.3C246.71 951.25 244.91 950.6 242.47 949.03C239.07 946.84 242.03 944.32 243.22 941.14" stroke="#A56549" stroke-opacity="1.000000" stroke-width="2.000000" stroke-linecap="round"/>
	<path id="Vector 1986" d="M161.45 887.99C160.93 896.13 152.76 903.55 152.65 911.5C152.59 916.13 151.03 925.11 153.89 928.98C160.86 938.41 172.73 938.2 183.16 938.38C190.89 938.52 202.03 938.85 207.4 930.94C209.84 927.36 216.35 923.15 214.04 917.48C212.8 914.42 205.22 904.47 209.65 904.54" stroke="#A56549" stroke-opacity="1.000000" stroke-width="2.000000" stroke-linecap="round"/>
	<path id="Vector 1987" d="M102.13 889.91C102.03 897.23 101.93 904.56 101.83 911.89C101.78 915.25 102.93 918.01 105.42 920.47C109.87 924.85 111.16 920.87 113.63 917.06" stroke="#A56549" stroke-opacity="1.000000" stroke-width="2.000000" stroke-linecap="round"/>
	<path id="Vector 1988" d="M240.91 945.27C240.32 938.5 233.5 934.25 233.23 927.48C233.04 922.53 229.4 918.27 229.47 912.7" stroke="#A56549" stroke-opacity="1.000000" stroke-width="2.000000" stroke-linecap="round"/>
	<path id="Vector 1990" d="M152.3 929.02C152.24 933.17 151.65 937.92 152.12 942.05C152.64 946.67 160.32 951.04 163.03 953.82C167.16 958.06 174.98 963.18 180.49 964.33C187.58 965.82 196.62 965.18 196.24 952.94C196.15 949.78 193.59 944.64 192.25 941.94C189.88 937.13 186.76 933.57 191.86 932.6" stroke="#A56549" stroke-opacity="1.000000" stroke-width="2.000000" stroke-linecap="round"/>
	<path id="Vector 1991" d="M287.56 934.31C289.45 947.47 300.55 955.2 295.99 968.31C293.44 975.62 286.95 978.43 280.81 978.32C272.8 978.19 265.77 977.67 259.7 971.16C257.42 968.71 249.41 954.83 254.08 952.23" stroke="#A56549" stroke-opacity="1.000000" stroke-width="2.000000" stroke-linecap="round"/>
	<path id="Vector 1992" d="M202.4 938.72C202.36 941.88 205.87 946.67 207.81 948.71C213.07 954.26 219.63 966.43 227.06 966.56C230.81 966.62 235.89 970.29 239.76 967.96C243.62 965.63 247.3 959.09 249.68 954.77" stroke="#A56549" stroke-opacity="1.000000" stroke-width="2.000000" stroke-linecap="round"/>
	<path id="Vector 1803" d="M314.68 83.71C318.17 85.21 319.3 91.87 321.64 94.44C323.79 96.8 325.63 99.5 328.46 101.45C333.48 104.9 340.54 106.23 346.83 107.79C357.81 110.51 365.63 100.44 367.87 93.87" stroke="#A56549" stroke-opacity="1.000000" stroke-width="2.000000" stroke-linecap="round"/>
	<path id="Vector 1804" d="M374.2 100.23C380.71 101.84 387.22 103.45 393.72 105.06C396.7 105.8 399.44 105.52 402.22 104.18C407.19 101.77 403.95 99.96 401.15 97.32" stroke="#A56549" stroke-opacity="1.000000" stroke-width="2.000000" stroke-linecap="round"/>
	<path id="Vector 1805" d="M99.07 146.23C99.17 139.63 97.45 131.26 103.02 125.99C108.36 120.93 118.8 116.6 126.78 116.72C134.67 116.84 130.7 137.01 130.61 142.42" stroke="#A56549" stroke-opacity="1.000000" stroke-width="2.000000" stroke-linecap="round"/>
	<path id="Vector 1806" d="M159.49 127.17C157.97 127.14 161.7 127.25 162.22 127.14C164.36 126.7 166.82 123.98 168.79 122.88C172.22 120.96 174.08 119.63 178.2 119.69C182.18 119.75 185.83 117.59 189.72 117.65C192.63 117.69 191.14 124.31 191.22 126.53C191.44 132.49 196.61 144.61 192.18 150.03C190.16 152.51 188.8 158.25 187.38 161.34C185.44 165.58 182.23 168.81 180.15 172.85C177.45 178.1 172.47 184.3 166.69 185.88C156.52 188.66 155.73 177.59 152.77 171.34C149.78 165.06 145.33 161.62 143.98 154.36C142.9 148.57 140.88 138.55 144.08 133.09C147.65 126.99 159.84 130.77 161.67 127.2" stroke="#A56549" stroke-opacity="1.000000" stroke-width="2.000000" stroke-linecap="round"/>
	<path id="Vector 1808" d="M200.33 129.32C210.96 129.47 221.59 129.63 232.21 129.79C239.81 129.9 245.28 139.14 246.69 146.31C247.79 151.86 249.6 164.96 245.77 169.92C238.06 179.89 225.66 182.11 214.58 186.39C210.99 187.78 185.64 196.04 185.32 187.58C185 178.92 185.6 170.14 185.74 161.47C185.8 157.32 186.05 153.82 186.94 149.93C187.56 147.27 190.05 145.12 190.37 142.67C190.73 139.85 193.61 135.95 194.85 133.17C196.3 129.94 199.6 130.43 202.48 130.47" stroke="#A56549" stroke-opacity="1.000000" stroke-width="2.000000" stroke-linecap="round"/>
	<path id="Vector 1809" d="M245.62 144.37C245.74 136.74 262.59 132.54 269.96 132.65C276.13 132.74 275.7 133.42 275.62 138.77C275.56 142.13 275.51 145.48 275.45 148.84" stroke="#A56549" stroke-opacity="1.000000" stroke-width="2.000000" stroke-linecap="round"/>
	<path id="Vector 1810" d="M140.98 157.63C141.06 152.45 142.48 144.57 135.1 144.46C125.82 144.33 115.13 147.93 106.77 151.68C99.89 154.76 90.97 157.71 85.01 162.26C83.88 163.12 92.41 174.65 94.19 176.57C97.68 180.32 98.44 182.12 103.49 183.31C109.39 184.69 115.51 185.61 121.72 185.7C129.84 185.82 141.67 183.99 141.83 174" stroke="#A56549" stroke-opacity="1.000000" stroke-width="2.000000" stroke-linecap="round"/>
	<path id="Vector 1811" d="M283.6 149.83C287.81 149.89 306.64 147.34 309.17 151.93C312.13 157.3 321.6 174.84 311.03 174.68" stroke="#A56549" stroke-opacity="1.000000" stroke-width="2.000000" stroke-linecap="round"/>
	<path id="Vector 1812" d="M250.96 150.88C262.64 151.05 272.16 149.6 280.27 159.26C285.42 165.4 283.09 173.05 280.19 178.83" stroke="#A56549" stroke-opacity="1.000000" stroke-width="2.000000" stroke-linecap="round"/>
	<path id="Vector 1813" d="M247.95 169.15C254.02 169.24 258.78 173.12 263.74 176.03C270.47 180 277.01 184.08 283.8 187.8C286.55 189.31 288.85 191.59 291.04 193.71C291.4 194.06 285.84 197.36 284.87 198.26C279.79 202.89 275.69 207.83 270.05 211.83C264.9 215.47 261.16 215.51 255.35 217.59" stroke="#A56549" stroke-opacity="1.000000" stroke-width="2.000000" stroke-linecap="round"/>
	<path id="Vector 1814" d="M285.83 180.3C285.92 175.11 291.58 173.84 296.38 173.91C302.4 174 313.19 170.23 318.21 174.23C328.03 182.05 345.43 181.67 351.28 194.92C352.69 198.1 355.73 205.4 350.53 206.43C344.81 207.57 339 215.78 336.41 220.36C334.31 224.06 329.77 227.9 325.28 227.83C323.08 227.8 312.01 227.64 315.65 227.69" stroke="#A56549" stroke-opacity="1.000000" stroke-width="2.000000" stroke-linecap="round"/>
	<path id="Vector 1815" d="M238.56 180.52C245.87 188.07 251.32 196.39 255.35 205.88C256.81 209.31 247.34 218.55 245.3 221.02C239.95 227.52 230.38 230.65 222.48 232.46C210.53 235.18 195.69 229.5 191.37 217.19C188.47 208.96 180.43 199.4 188.26 191.79" stroke="#A56549" stroke-opacity="1.000000" stroke-width="2.000000" stroke-linecap="round"/>
	<path id="Vector 1816" d="M97.43 180.74C92.29 180.66 89.54 180.37 85.72 183.99C79.21 190.17 69.42 199.97 65.52 208.22C63.4 212.69 59.28 218.35 65.89 221.34C72.04 224.13 73.98 228.31 81.52 228.42C85.75 228.48 98.02 230.52 100.2 226.41" stroke="#A56549" stroke-opacity="1.000000" stroke-width="2.000000" stroke-linecap="round"/>
	<path id="Vector 1818" d="M173.02 186.68C175.07 186.71 181.09 185.68 181.66 188.42C182.31 191.53 182.97 193.5 185.41 195.98C190.64 201.29 191.01 208.95 191.09 215.92C191.16 221.77 193.47 228.25 195.72 233.63C197.59 238.13 199.57 238.81 195.53 241.26C186.45 246.76 178.7 253.29 167.6 253.12C161.63 253.04 154.39 251.38 152.47 244.85C151.19 240.52 146.93 234.86 143.96 231.32C140.74 227.46 140.28 221.64 138.98 217.06C136.56 208.55 143.36 202.24 148.33 196.45C153.68 190.22 157.22 188.59 165.36 188.71" stroke="#A56549" stroke-opacity="1.000000" stroke-width="2.000000" stroke-linecap="round"/>
	<path id="Vector 1819" d="M105.24 190.06C105.11 198.42 94.33 220.75 105.27 225.31C111.17 227.78 131.34 233.08 135.56 225.76" stroke="#A56549" stroke-opacity="1.000000" stroke-width="2.000000" stroke-linecap="round"/>
	<path id="Vector 1822" d="M80.53 226.52C80.51 227.89 79.67 229.75 78.67 230.77C77.04 232.44 77.77 237.68 76.99 239.95C75.15 245.35 75.33 252.91 75.23 258.62C75.13 265.06 87.53 264.61 93.54 264.7C97.98 264.76 104.97 268.53 105.06 262.76" stroke="#A56549" stroke-opacity="1.000000" stroke-width="2.000000" stroke-linecap="round"/>
	<path id="Vector 1823" d="M225.67 233.37C228.88 233.42 239.78 232.64 240.86 236.46C242.04 240.64 240.77 246.62 240.7 250.94C240.58 258.12 243.24 271.22 232.12 271.65C222.32 272.02 218.64 283.8 208.97 283.66C204.07 283.59 199.16 283.51 194.26 283.44C191.69 283.4 190.05 282.89 187.81 281.66C184.69 279.95 187.41 277.98 188.5 275.49" stroke="#A56549" stroke-opacity="1.000000" stroke-width="2.000000" stroke-linecap="round"/>
	<path id="Vector 1824" d="M113.61 233.91C113.13 240.28 105.65 246.08 105.55 252.3C105.49 255.93 104.07 262.95 106.69 265.98C113.07 273.36 123.94 273.19 133.49 273.33C140.57 273.44 150.77 273.7 155.69 267.51C157.93 264.71 163.89 261.42 161.78 256.98C160.64 254.59 153.69 246.8 157.75 246.86" stroke="#A56549" stroke-opacity="1.000000" stroke-width="2.000000" stroke-linecap="round"/>
	<path id="Vector 1826" d="M186.38 278.72C185.85 273.43 179.59 270.1 179.35 264.81C179.17 260.93 175.84 257.6 175.91 253.25" stroke="#A56549" stroke-opacity="1.000000" stroke-width="2.000000" stroke-linecap="round"/>
	<path id="Vector 1828" d="M105.22 266.01C105.17 269.26 104.63 272.97 105.06 276.2C105.54 279.82 112.57 283.24 115.05 285.41C118.84 288.72 126 292.73 131.04 293.63C137.54 294.79 145.82 294.3 145.47 284.72C145.38 282.25 143.04 278.23 141.82 276.12C139.64 272.35 136.78 269.57 141.46 268.81" stroke="#A56549" stroke-opacity="1.000000" stroke-width="2.000000" stroke-linecap="round"/>
	<path id="Vector 1829" d="M229.11 270.15C230.84 280.44 241.01 286.49 236.83 296.74C234.49 302.46 228.54 304.66 222.92 304.58C215.59 304.47 209.15 304.07 203.59 298.97C201.5 297.06 194.17 286.2 198.44 284.17" stroke="#A56549" stroke-opacity="1.000000" stroke-width="2.000000" stroke-linecap="round"/>
	<path id="Vector 1830" d="M151.11 273.6C151.07 276.07 154.29 279.81 156.07 281.41C160.88 285.75 166.89 295.27 173.69 295.37C177.13 295.43 181.79 298.29 185.33 296.47C188.87 294.65 192.23 289.53 194.41 286.15" stroke="#A56549" stroke-opacity="1.000000" stroke-width="2.000000" stroke-linecap="round"/>
	<path id="Vector 3354" d="M263.97 1148.43C270.44 1149.85 279.41 1150.25 280.57 1157.8C281.05 1160.94 279.76 1164.59 279.22 1167.59C278.31 1172.55 277.44 1176.91 273.19 1180.18C264.07 1187.19 247.66 1181.41 242.61 1171.19C239.69 1165.3 238.39 1159.26 239.7 1153.12C240.75 1148.21 244.45 1147.62 248.78 1146.17C252.5 1144.93 259.64 1147.03 263.1 1148.96" stroke="#A56549" stroke-opacity="1.000000" stroke-width="3.000000" stroke-linecap="round"/>
	<path id="Vector 3355" d="M278.29 1153.68C284.77 1155.1 291.69 1155.85 297.48 1159.28C306.45 1164.59 310.94 1176.19 316.32 1184.27C322.03 1192.85 330.72 1210.73 315.4 1212.18C304.2 1213.26 290.1 1213.79 280.52 1205.62C277.06 1202.67 259.27 1190 272.2 1187.1" stroke="#A56549" stroke-opacity="1.000000" stroke-width="3.000000" stroke-linecap="round"/>
	<path id="Vector 3356" d="M244.44 1179.63C233.12 1183.46 221.34 1188.35 212.76 1196.35C207.6 1201.16 202.65 1203.03 209.81 1208.36C215.38 1212.5 224.78 1220.02 231.52 1221.5C238.38 1223.01 246.31 1226.32 252.48 1222.61C259.39 1218.43 263.34 1210.68 267.18 1204.18" stroke="#A56549" stroke-opacity="1.000000" stroke-width="3.000000" stroke-linecap="round"/>
	<path id="Vector 3357" d="M264.42 1211.06C263.15 1218.04 256.36 1236.1 265.73 1240.85C271.14 1243.6 277.4 1244.74 283.8 1246.14C300.81 1249.88 304.04 1226.57 305.97 1215.98" stroke="#A56549" stroke-opacity="1.000000" stroke-width="3.000000" stroke-linecap="round"/>
	<path id="Vector 3358" d="M237.9 1159.15C220.7 1155.38 198.89 1169.62 218.2 1183.78" stroke="#A56549" stroke-opacity="1.000000" stroke-width="3.000000" stroke-linecap="round"/>
	<path id="Vector 3359" d="M328.8 1216.42C329.06 1221.18 334.72 1228.19 336.03 1233.48C336.57 1235.65 328.28 1241.64 326.21 1243.19C318.77 1248.79 309.75 1248.8 300.38 1246.75" stroke="#A56549" stroke-opacity="1.000000" stroke-width="3.000000" stroke-linecap="round"/>
	<path id="Vector 3360" d="M234.73 1235.39C233.14 1244.11 228.05 1252.32 229.61 1261.68C230.59 1267.6 237.05 1267.78 242.17 1268.9C262.14 1273.28 276.59 1266.84 289.95 1254.43" stroke="#A56549" stroke-opacity="1.000000" stroke-width="3.000000" stroke-linecap="round"/>
	<path id="Vector 3361" d="M211.16 1206.61C208.12 1205.93 201.43 1211.68 200.23 1214.36C199.35 1216.35 199.85 1218.25 200.27 1220.3C200.96 1223.75 200.93 1228.3 202.36 1231.55C204.25 1235.84 205.5 1239.42 209.45 1242.23C215.18 1246.31 219.63 1247.31 226.42 1248.8" stroke="#A56549" stroke-opacity="1.000000" stroke-width="3.000000" stroke-linecap="round"/>
	<path id="Vector 3362" d="M320.82 1249.71C319.04 1259.48 319.13 1269.57 317.37 1279.23C316.59 1283.48 309.49 1286.54 306.04 1288.66C301.95 1291.17 297.74 1293.16 293.5 1295.38C292.03 1296.14 283.62 1299.16 281.77 1298.23C280.28 1297.48 279.38 1293.28 278.55 1291.86C277.13 1289.41 275.8 1286.65 274.16 1284.3C273.49 1283.34 269.57 1278.02 270.47 1278.22" stroke="#A56549" stroke-opacity="1.000000" stroke-width="3.000000" stroke-linecap="round"/>
	<path id="Vector 3363" d="M202.97 1251.27C200.78 1252.77 199.99 1257.5 198.77 1259.8C196.69 1263.74 194.97 1269.02 194.17 1273.44C192.52 1282.49 207.32 1285.93 213.91 1290C217.84 1292.43 228.06 1296.28 232.41 1293.67C239.3 1289.54 243.89 1283.38 249.54 1278.14" stroke="#A56549" stroke-opacity="1.000000" stroke-width="3.000000" stroke-linecap="round"/>
	<path id="Vector 3364" d="M192.31 1219.99C178.8 1217.03 172.3 1202.57 180.33 1192.68C185.98 1185.72 192.92 1179.25 201.99 1177.17" stroke="#A56549" stroke-opacity="1.000000" stroke-width="3.000000" stroke-linecap="round"/>
	<path id="Vector 3365" d="M266.74 1294.21C265.82 1299.28 264.89 1304.34 263.97 1309.41C263.22 1313.54 258.87 1313.55 254.74 1313.61C250.04 1313.69 236.29 1311.47 235.43 1306.02" stroke="#A56549" stroke-opacity="1.000000" stroke-width="3.000000" stroke-linecap="round"/>
	<path id="Vector 3366" d="M183.84 1222.69C182.56 1229.73 181.29 1237.59 176.21 1242.99C172.94 1246.46 172.35 1248.15 173.71 1253.14C175.81 1260.91 189.47 1267.38 195.99 1271.06" stroke="#A56549" stroke-opacity="1.000000" stroke-width="3.000000" stroke-linecap="round"/>
	<path id="Vector 3367" d="M305.17 1291.22C307.84 1291.49 304.41 1302.66 303.86 1305.68C302.64 1312.37 301.92 1315.02 294.25 1315.14C285.56 1315.28 270.89 1329.12 263.72 1322.23" stroke="#A56549" stroke-opacity="1.000000" stroke-width="3.000000" stroke-linecap="round"/>
	<path id="Vector 3368" d="M204.56 1307.84C205.66 1301.81 204.63 1320.25 205.19 1326.46C205.88 1334.04 209.38 1331.52 215.04 1329.71C220.82 1327.85 227.89 1327.62 231.64 1322.89C235.13 1318.48 237.99 1315.25 243.91 1312.81" stroke="#A56549" stroke-opacity="1.000000" stroke-width="3.000000" stroke-linecap="round"/>
	<path id="Vector 3369" d="M233.9 1322.04C232.23 1331.21 240.85 1332.42 248.14 1337.24C252.93 1340.41 253.41 1344.16 257.9 1339.65C260.59 1336.95 262.68 1330.03 266.61 1329.22" stroke="#A56549" stroke-opacity="1.000000" stroke-width="3.000000" stroke-linecap="round"/>
	<path id="Vector 3370" d="M204.53 1315.6C198.71 1314.32 192.38 1312.62 187.65 1308.79C185.13 1306.74 172.52 1300.98 172.93 1297.48C173.55 1292.24 175.81 1264.17 180.54 1263.11" stroke="#A56549" stroke-opacity="1.000000" stroke-width="3.000000" stroke-linecap="round"/>
	<path id="Vector 3371" d="M275.58 1449.27C284.42 1453.2 297.17 1456.62 296.62 1466.84C296.39 1471.12 293.47 1475.46 291.81 1479.21C289.06 1485.39 286.54 1490.8 279.48 1493.71C264.35 1499.94 242.52 1487.09 238.28 1472.14C235.82 1463.49 235.73 1455.18 239.41 1447.58C242.36 1441.51 247.83 1441.92 254.46 1441.43C260.15 1441 269.77 1446.05 274.17 1449.67" stroke="#A56549" stroke-opacity="1.000000" stroke-width="3.000000" stroke-linecap="round"/>
	<path id="Vector 3372" d="M294.56 1460.73C303.43 1464.67 313.13 1467.88 320.43 1474.22C331.72 1484.04 334.75 1500.65 340.09 1512.93C345.77 1525.98 352.97 1552.13 330.6 1549.11C314.22 1546.9 293.86 1543.06 282.52 1529.29C278.43 1524.34 256.64 1502.06 276.02 1502.43" stroke="#A56549" stroke-opacity="1.000000" stroke-width="3.000000" stroke-linecap="round"/>
	<path id="Vector 3373" d="M238.43 1483.74C221.07 1485.1 202.76 1487.7 188.1 1495.39C179.31 1500 171.66 1500.85 180.36 1510.12C187.12 1517.32 198.4 1530.18 207.63 1534.28C217.02 1538.45 227.41 1545.35 237.35 1542.47C248.47 1539.25 256.41 1530.4 263.82 1523.13" stroke="#A56549" stroke-opacity="1.000000" stroke-width="3.000000" stroke-linecap="round"/>
	<path id="Vector 3374" d="M257.84 1531.24C253.98 1539.93 238.95 1561.34 250.98 1570.57C257.93 1575.9 266.57 1579.4 275.34 1583.29C298.62 1593.64 310.09 1564.25 315.97 1551.03" stroke="#A56549" stroke-opacity="1.000000" stroke-width="3.000000" stroke-linecap="round"/>
	<path id="Vector 3375" d="M235.06 1454.89C211.51 1444.42 176.07 1456 199.6 1480.71" stroke="#A56549" stroke-opacity="1.000000" stroke-width="3.000000" stroke-linecap="round"/>
	<path id="Vector 3376" d="M348.55 1558.95C347.54 1565.27 353.58 1576.24 353.92 1583.56C354.06 1586.57 340.42 1591.72 336.99 1593.09C324.69 1598.01 311.75 1595.12 298.92 1589.42" stroke="#A56549" stroke-opacity="1.000000" stroke-width="3.000000" stroke-linecap="round"/>
	<path id="Vector 3377" d="M208.16 1553.46C203.32 1564.33 193.61 1573.43 193.1 1586.15C192.78 1594.2 201.97 1596.51 208.99 1599.62C236.33 1611.77 258.93 1608.01 281.72 1596.11" stroke="#A56549" stroke-opacity="1.000000" stroke-width="3.000000" stroke-linecap="round"/>
	<path id="Vector 3378" d="M182.81 1508.27C178.65 1506.42 167.37 1511.78 164.88 1514.88C163.02 1517.2 163.19 1519.84 163.18 1522.66C163.16 1527.38 161.78 1533.32 162.88 1538.03C164.33 1544.23 165.08 1549.31 169.91 1554.26C176.92 1561.44 183.01 1564.16 192.31 1568.3" stroke="#A56549" stroke-opacity="1.000000" stroke-width="3.000000" stroke-linecap="round"/>
	<path id="Vector 3379" d="M327.36 1599.87C321.94 1612.06 319.1 1625.28 313.75 1637.32C311.39 1642.62 300.31 1644.33 294.74 1645.99C288.15 1647.96 281.53 1649.2 274.79 1650.73C272.47 1651.26 259.53 1652.5 257.14 1650.68C255.24 1649.22 255.17 1643.44 254.4 1641.32C253.09 1637.67 251.98 1633.64 250.33 1630.04C249.65 1628.56 245.59 1620.36 246.81 1620.9" stroke="#A56549" stroke-opacity="1.000000" stroke-width="3.000000" stroke-linecap="round"/>
	<path id="Vector 3380" d="M157.97 1563.98C154.39 1565.24 151.87 1571.15 149.45 1573.77C145.31 1578.24 141.3 1584.59 138.84 1590.11C133.83 1601.4 154.03 1610.65 162.3 1618.1C167.22 1622.53 180.73 1630.85 187.73 1628.84C198.82 1625.66 207.21 1619.09 216.84 1614.07" stroke="#A56549" stroke-opacity="1.000000" stroke-width="3.000000" stroke-linecap="round"/>
	<path id="Vector 3381" d="M151.86 1519.68C133.37 1511.46 128.28 1490.5 142.7 1480.16C152.85 1472.88 164.69 1466.66 178.3 1466.87" stroke="#A56549" stroke-opacity="1.000000" stroke-width="3.000000" stroke-linecap="round"/>
	<path id="Vector 3382" d="M236.78 1640.59C233.97 1646.92 231.16 1653.24 228.35 1659.56C226.07 1664.71 219.83 1663.32 213.89 1662.08C207.13 1660.67 188.08 1653.34 188.44 1645.94" stroke="#A56549" stroke-opacity="1.000000" stroke-width="3.000000" stroke-linecap="round"/>
	<path id="Vector 3383" d="M138.93 1520.5C135.03 1529.27 130.9 1539.13 122.05 1544.54C116.34 1548.03 115 1550.05 115.48 1557C116.22 1567.83 133.9 1580.68 142.15 1587.59" stroke="#A56549" stroke-opacity="1.000000" stroke-width="3.000000" stroke-linecap="round"/>
	<path id="Vector 3384" d="M292.74 1649.06C296.5 1650.26 288.3 1663.75 286.62 1667.54C282.92 1675.87 281.11 1679.1 270.08 1676.8C257.58 1674.18 232.5 1687.53 224.23 1676.22" stroke="#A56549" stroke-opacity="1.000000" stroke-width="3.000000" stroke-linecap="round"/>
	<path id="Vector 3385" d="M143.65 1638.39C147 1630.86 140.11 1654.62 139.1 1662.91C137.86 1673.03 143.61 1670.87 152.26 1670.33C161.1 1669.76 171.3 1671.73 178.06 1666.76C184.36 1662.13 189.41 1658.83 198.61 1657.55" stroke="#A56549" stroke-opacity="1.000000" stroke-width="3.000000" stroke-linecap="round"/>
	<path id="Vector 3386" d="M181.55 1666.38C176.47 1677.82 188.47 1682.18 197.5 1690.82C203.43 1696.49 203.03 1701.56 210.79 1697.11C215.43 1694.45 220.45 1686.08 226.33 1686.28" stroke="#A56549" stroke-opacity="1.000000" stroke-width="3.000000" stroke-linecap="round"/>
	<path id="Vector 3387" d="M141.34 1648.51C133.38 1644.97 124.8 1640.71 119.14 1634.18C116.12 1630.7 99.75 1619.11 101.36 1614.68C103.78 1608.02 115.26 1572.09 122.35 1572.22" stroke="#A56549" stroke-opacity="1.000000" stroke-width="3.000000" stroke-linecap="round"/>
	<path id="Vector 3388" d="M1106.86 1095.35C1113.53 1098.18 1123.14 1100.65 1122.72 1108.03C1122.55 1111.12 1120.35 1114.25 1119.1 1116.94C1117.03 1121.41 1115.12 1125.31 1109.81 1127.41C1098.4 1131.91 1081.93 1122.64 1078.74 1111.85C1076.89 1105.61 1076.81 1099.62 1079.6 1094.13C1081.81 1089.75 1085.93 1090.05 1090.93 1089.68C1095.23 1089.38 1102.49 1093.02 1105.8 1095.64" stroke="#A56549" stroke-opacity="1.000000" stroke-width="3.000000" stroke-linecap="round"/>
	<path id="Vector 3389" d="M1121.17 1103.62C1127.86 1106.46 1135.17 1108.78 1140.67 1113.35C1149.18 1120.43 1151.48 1132.43 1155.5 1141.28C1159.78 1150.69 1165.21 1169.56 1148.34 1167.39C1136 1165.79 1120.65 1163.02 1112.09 1153.09C1109.01 1149.51 1092.59 1133.43 1107.19 1133.71" stroke="#A56549" stroke-opacity="1.000000" stroke-width="3.000000" stroke-linecap="round"/>
	<path id="Vector 3390" d="M1078.85 1120.22C1065.76 1121.19 1051.96 1123.07 1040.91 1128.62C1034.28 1131.96 1028.51 1132.56 1035.07 1139.26C1040.17 1144.44 1048.67 1153.73 1055.63 1156.68C1062.71 1159.69 1070.55 1164.68 1078.04 1162.6C1086.42 1160.28 1092.41 1153.89 1098 1148.64" stroke="#A56549" stroke-opacity="1.000000" stroke-width="3.000000" stroke-linecap="round"/>
	<path id="Vector 3391" d="M1093.49 1154.5C1090.57 1160.77 1079.25 1176.21 1088.31 1182.88C1093.56 1186.72 1100.06 1189.25 1106.68 1192.06C1124.24 1199.53 1132.88 1178.31 1137.31 1168.78" stroke="#A56549" stroke-opacity="1.000000" stroke-width="3.000000" stroke-linecap="round"/>
	<path id="Vector 3392" d="M1076.31 1099.4C1058.56 1091.85 1031.84 1100.21 1049.57 1118.04" stroke="#A56549" stroke-opacity="1.000000" stroke-width="3.000000" stroke-linecap="round"/>
	<path id="Vector 3393" d="M1161.88 1174.49C1161.11 1179.05 1165.67 1186.97 1165.93 1192.25C1166.04 1194.42 1155.75 1198.14 1153.16 1199.13C1143.89 1202.67 1134.13 1200.59 1124.46 1196.48" stroke="#A56549" stroke-opacity="1.000000" stroke-width="3.000000" stroke-linecap="round"/>
	<path id="Vector 3394" d="M1056.03 1170.53C1052.39 1178.37 1045.06 1184.93 1044.68 1194.12C1044.43 1199.93 1051.37 1201.59 1056.66 1203.84C1077.27 1212.61 1094.31 1209.89 1111.5 1201.3" stroke="#A56549" stroke-opacity="1.000000" stroke-width="3.000000" stroke-linecap="round"/>
	<path id="Vector 3395" d="M1036.92 1137.92C1033.78 1136.59 1025.28 1140.46 1023.4 1142.68C1022 1144.36 1022.13 1146.27 1022.12 1148.3C1022.11 1151.71 1021.07 1156 1021.89 1159.39C1022.99 1163.87 1023.55 1167.53 1027.18 1171.1C1032.48 1176.29 1037.06 1178.25 1044.07 1181.24" stroke="#A56549" stroke-opacity="1.000000" stroke-width="3.000000" stroke-linecap="round"/>
	<path id="Vector 3396" d="M1145.9 1204.02C1141.81 1212.81 1139.67 1222.35 1135.64 1231.04C1133.86 1234.87 1125.51 1236.1 1121.31 1237.3C1116.34 1238.72 1111.35 1239.62 1106.27 1240.72C1104.52 1241.1 1094.76 1241.99 1092.96 1240.68C1091.53 1239.63 1091.47 1235.46 1090.9 1233.93C1089.9 1231.3 1089.06 1228.38 1087.81 1225.79C1087.31 1224.72 1084.25 1218.8 1085.18 1219.18" stroke="#A56549" stroke-opacity="1.000000" stroke-width="3.000000" stroke-linecap="round"/>
	<path id="Vector 3397" d="M1018.19 1178.12C1015.49 1179.03 1013.59 1183.3 1011.77 1185.18C1008.64 1188.41 1005.62 1192.99 1003.77 1196.98C999.98 1205.12 1015.22 1211.8 1021.45 1217.17C1025.17 1220.37 1035.35 1226.37 1040.63 1224.92C1048.99 1222.63 1055.31 1217.89 1062.56 1214.26" stroke="#A56549" stroke-opacity="1.000000" stroke-width="3.000000" stroke-linecap="round"/>
	<path id="Vector 3398" d="M1013.58 1146.15C999.64 1140.23 995.81 1125.1 1006.68 1117.64C1014.33 1112.39 1023.26 1107.9 1033.52 1108.05" stroke="#A56549" stroke-opacity="1.000000" stroke-width="3.000000" stroke-linecap="round"/>
	<path id="Vector 3399" d="M1077.61 1233.4C1075.49 1237.96 1073.38 1242.53 1071.26 1247.09C1069.53 1250.8 1064.82 1249.8 1060.35 1248.91C1055.26 1247.89 1040.89 1242.6 1041.17 1237.26" stroke="#A56549" stroke-opacity="1.000000" stroke-width="3.000000" stroke-linecap="round"/>
	<path id="Vector 3400" d="M1003.83 1146.75C1000.9 1153.06 997.78 1160.18 991.1 1164.1C986.8 1166.61 985.79 1168.06 986.15 1173.09C986.71 1180.9 1000.04 1190.17 1006.27 1195.16" stroke="#A56549" stroke-opacity="1.000000" stroke-width="3.000000" stroke-linecap="round"/>
	<path id="Vector 3401" d="M1119.8 1239.51C1122.63 1240.38 1116.46 1250.12 1115.18 1252.85C1112.4 1258.86 1111.04 1261.18 1102.72 1259.53C1093.29 1257.64 1074.38 1267.27 1068.15 1259.11" stroke="#A56549" stroke-opacity="1.000000" stroke-width="3.000000" stroke-linecap="round"/>
	<path id="Vector 3402" d="M1007.39 1231.81C1009.92 1226.38 1004.73 1243.53 1003.96 1249.51C1003.03 1256.81 1007.37 1255.25 1013.89 1254.86C1020.55 1254.44 1028.24 1255.87 1033.34 1252.29C1038.09 1248.93 1041.89 1246.56 1048.82 1245.64" stroke="#A56549" stroke-opacity="1.000000" stroke-width="3.000000" stroke-linecap="round"/>
	<path id="Vector 3403" d="M1035.97 1252.01C1032.14 1260.27 1041.18 1263.41 1048 1269.64C1052.47 1273.74 1052.16 1277.39 1058.01 1274.18C1061.51 1272.27 1065.3 1266.23 1069.73 1266.37" stroke="#A56549" stroke-opacity="1.000000" stroke-width="3.000000" stroke-linecap="round"/>
	<path id="Vector 3404" d="M1005.65 1239.12C999.64 1236.56 993.18 1233.48 988.91 1228.78C986.64 1226.26 974.29 1217.9 975.51 1214.69C977.33 1209.9 985.98 1183.97 991.33 1184.06" stroke="#A56549" stroke-opacity="1.000000" stroke-width="3.000000" stroke-linecap="round"/>
	<path id="Vector 3422" d="M1242.21 1334.94C1251.87 1339.62 1265.78 1343.67 1265.18 1355.84C1264.93 1360.93 1261.74 1366.09 1259.93 1370.54C1256.93 1377.89 1254.17 1384.33 1246.48 1387.79C1229.96 1395.2 1206.13 1379.92 1201.5 1362.13C1198.81 1351.85 1198.72 1341.97 1202.74 1332.93C1205.96 1325.71 1211.92 1326.2 1219.16 1325.61C1225.38 1325.1 1235.88 1331.1 1240.68 1335.42" stroke="#A56549" stroke-opacity="1.000000" stroke-width="3.000000" stroke-linecap="round"/>
	<path id="Vector 3423" d="M1262.93 1348.56C1272.61 1353.25 1283.19 1357.07 1291.17 1364.61C1303.5 1376.29 1306.8 1396.05 1312.63 1410.65C1318.83 1426.17 1326.69 1457.28 1302.27 1453.68C1284.39 1451.05 1262.17 1446.48 1249.79 1430.11C1245.32 1424.22 1221.55 1397.72 1242.69 1398.17" stroke="#A56549" stroke-opacity="1.000000" stroke-width="3.000000" stroke-linecap="round"/>
	<path id="Vector 3424" d="M1201.66 1375.93C1182.72 1377.55 1162.73 1380.64 1146.74 1389.78C1137.13 1395.27 1128.79 1396.29 1138.29 1407.31C1145.67 1415.87 1157.97 1431.17 1168.04 1436.04C1178.29 1441.01 1189.64 1449.21 1200.49 1445.79C1212.63 1441.96 1221.29 1431.43 1229.38 1422.78" stroke="#A56549" stroke-opacity="1.000000" stroke-width="3.000000" stroke-linecap="round"/>
	<path id="Vector 3425" d="M1222.86 1432.42C1218.64 1442.76 1202.23 1468.22 1215.37 1479.2C1222.96 1485.54 1232.38 1489.7 1241.94 1494.33C1267.37 1506.64 1279.89 1471.69 1286.3 1455.96" stroke="#A56549" stroke-opacity="1.000000" stroke-width="3.000000" stroke-linecap="round"/>
	<path id="Vector 3426" d="M1197.98 1341.61C1172.28 1329.17 1133.6 1342.94 1159.28 1372.33" stroke="#A56549" stroke-opacity="1.000000" stroke-width="3.000000" stroke-linecap="round"/>
	<path id="Vector 3427" d="M1321.87 1465.38C1320.76 1472.9 1327.35 1485.95 1327.73 1494.65C1327.88 1498.22 1312.99 1504.36 1309.24 1505.99C1295.81 1511.83 1281.68 1508.4 1267.69 1501.62" stroke="#A56549" stroke-opacity="1.000000" stroke-width="3.000000" stroke-linecap="round"/>
	<path id="Vector 3428" d="M1168.62 1458.85C1163.35 1471.78 1152.75 1482.6 1152.18 1497.73C1151.84 1507.3 1161.88 1510.05 1169.53 1513.76C1199.37 1528.21 1224.04 1523.73 1248.92 1509.57" stroke="#A56549" stroke-opacity="1.000000" stroke-width="3.000000" stroke-linecap="round"/>
	<path id="Vector 3429" d="M1140.96 1405.1C1136.42 1402.9 1124.1 1409.28 1121.38 1412.97C1119.35 1415.72 1119.54 1418.86 1119.53 1422.22C1119.51 1427.84 1118.01 1434.9 1119.21 1440.5C1120.79 1447.88 1121.6 1453.92 1126.88 1459.8C1134.53 1468.34 1141.17 1471.58 1151.32 1476.5" stroke="#A56549" stroke-opacity="1.000000" stroke-width="3.000000" stroke-linecap="round"/>
	<path id="Vector 3430" d="M1298.73 1514.05C1292.81 1528.55 1289.71 1544.27 1283.88 1558.59C1281.3 1564.9 1269.21 1566.92 1263.13 1568.9C1255.93 1571.24 1248.71 1572.72 1241.36 1574.54C1238.82 1575.17 1224.68 1576.64 1222.09 1574.48C1220.01 1572.75 1219.93 1565.87 1219.1 1563.35C1217.66 1559.01 1216.46 1554.21 1214.65 1549.93C1213.91 1548.17 1209.48 1538.42 1210.81 1539.06" stroke="#A56549" stroke-opacity="1.000000" stroke-width="3.000000" stroke-linecap="round"/>
	<path id="Vector 3431" d="M1113.84 1471.37C1109.93 1472.86 1107.18 1479.9 1104.54 1483C1100.02 1488.33 1095.65 1495.88 1092.97 1502.45C1087.49 1515.87 1109.55 1526.88 1118.56 1535.73C1123.93 1541 1138.68 1550.9 1146.32 1548.51C1158.43 1544.73 1167.59 1536.91 1178.1 1530.94" stroke="#A56549" stroke-opacity="1.000000" stroke-width="3.000000" stroke-linecap="round"/>
	<path id="Vector 3432" d="M1107.17 1418.68C1087 1408.91 1081.43 1383.98 1097.18 1371.68C1108.25 1363.02 1121.18 1355.62 1136.03 1355.86" stroke="#A56549" stroke-opacity="1.000000" stroke-width="3.000000" stroke-linecap="round"/>
	<path id="Vector 3433" d="M1199.87 1562.48C1196.8 1570 1193.74 1577.52 1190.67 1585.04C1188.17 1591.16 1181.37 1589.51 1174.88 1588.04C1167.51 1586.36 1146.71 1577.64 1147.11 1568.85" stroke="#A56549" stroke-opacity="1.000000" stroke-width="3.000000" stroke-linecap="round"/>
	<path id="Vector 3434" d="M1093.06 1419.65C1088.81 1430.08 1084.3 1441.81 1074.63 1448.25C1068.41 1452.4 1066.93 1454.8 1067.46 1463.07C1068.27 1475.95 1087.56 1491.23 1096.57 1499.45" stroke="#A56549" stroke-opacity="1.000000" stroke-width="3.000000" stroke-linecap="round"/>
	<path id="Vector 3435" d="M1260.94 1572.55C1265.05 1573.98 1256.1 1590.03 1254.27 1594.53C1250.23 1604.44 1248.26 1608.28 1236.21 1605.54C1222.56 1602.43 1195.18 1618.31 1186.17 1604.86" stroke="#A56549" stroke-opacity="1.000000" stroke-width="3.000000" stroke-linecap="round"/>
	<path id="Vector 3436" d="M1098.21 1559.87C1101.87 1550.91 1094.35 1579.17 1093.25 1589.03C1091.9 1601.06 1098.17 1598.5 1107.61 1597.84C1117.26 1597.18 1128.39 1599.52 1135.77 1593.61C1142.65 1588.09 1148.16 1584.18 1158.19 1582.65" stroke="#A56549" stroke-opacity="1.000000" stroke-width="3.000000" stroke-linecap="round"/>
	<path id="Vector 3437" d="M1139.57 1593.16C1134.03 1606.76 1147.14 1611.95 1156.99 1622.22C1163.47 1628.97 1163.02 1634.99 1171.5 1629.7C1176.56 1626.54 1182.04 1616.59 1188.46 1616.82" stroke="#A56549" stroke-opacity="1.000000" stroke-width="3.000000" stroke-linecap="round"/>
	<path id="Vector 3438" d="M1095.68 1571.9C1087 1567.69 1077.64 1562.62 1071.46 1554.86C1068.17 1550.71 1050.3 1536.94 1052.06 1531.66C1054.69 1523.75 1067.23 1481.01 1074.96 1481.17" stroke="#A56549" stroke-opacity="1.000000" stroke-width="3.000000" stroke-linecap="round"/>
	<path id="Vector 3405" d="M740.84 1875.29C747.99 1878.39 758.3 1881.08 757.85 1889.15C757.67 1892.52 755.31 1895.94 753.96 1898.89C751.74 1903.77 749.7 1908.03 743.99 1910.32C731.75 1915.24 714.09 1905.11 710.66 1893.32C708.68 1886.5 708.6 1879.95 711.58 1873.96C713.97 1869.17 718.39 1869.5 723.75 1869.11C728.36 1868.77 736.14 1872.75 739.7 1875.61" stroke="#A56549" stroke-opacity="1.000000" stroke-width="3.000000" stroke-linecap="round"/>
	<path id="Vector 3406" d="M756.19 1884.32C763.36 1887.43 771.21 1889.96 777.11 1894.96C786.25 1902.71 788.7 1915.8 793.02 1925.48C797.61 1935.77 803.43 1956.39 785.34 1954C772.09 1952.26 755.63 1949.23 746.45 1938.38C743.14 1934.47 725.52 1916.91 741.19 1917.21" stroke="#A56549" stroke-opacity="1.000000" stroke-width="3.000000" stroke-linecap="round"/>
	<path id="Vector 3407" d="M710.79 1902.47C696.75 1903.54 681.94 1905.59 670.08 1911.65C662.97 1915.29 656.78 1915.96 663.82 1923.26C669.29 1928.94 678.41 1939.08 685.87 1942.31C693.47 1945.6 701.88 1951.04 709.91 1948.77C718.91 1946.23 725.33 1939.25 731.32 1933.52" stroke="#A56549" stroke-opacity="1.000000" stroke-width="3.000000" stroke-linecap="round"/>
	<path id="Vector 3408" d="M726.49 1939.91C723.36 1946.77 711.21 1963.64 720.94 1970.92C726.56 1975.13 733.55 1977.88 740.64 1980.96C759.47 1989.11 768.75 1965.94 773.5 1955.52" stroke="#A56549" stroke-opacity="1.000000" stroke-width="3.000000" stroke-linecap="round"/>
	<path id="Vector 3409" d="M708.06 1879.72C689.01 1871.47 660.35 1880.6 679.38 1900.08" stroke="#A56549" stroke-opacity="1.000000" stroke-width="3.000000" stroke-linecap="round"/>
	<path id="Vector 3410" d="M799.86 1961.76C799.04 1966.74 803.93 1975.39 804.2 1981.16C804.32 1983.53 793.28 1987.6 790.51 1988.68C780.56 1992.55 770.09 1990.28 759.72 1985.78" stroke="#A56549" stroke-opacity="1.000000" stroke-width="3.000000" stroke-linecap="round"/>
	<path id="Vector 3411" d="M686.3 1957.43C682.39 1966 674.54 1973.17 674.12 1983.2C673.86 1989.55 681.3 1991.37 686.98 1993.83C709.09 2003.41 727.37 2000.44 745.81 1991.06" stroke="#A56549" stroke-opacity="1.000000" stroke-width="3.000000" stroke-linecap="round"/>
	<path id="Vector 3412" d="M665.8 1921.8C662.43 1920.34 653.31 1924.57 651.29 1927.02C649.79 1928.84 649.93 1930.93 649.92 1933.15C649.91 1936.87 648.79 1941.55 649.68 1945.26C650.85 1950.16 651.46 1954.16 655.36 1958.06C661.04 1963.72 665.96 1965.87 673.48 1969.13" stroke="#A56549" stroke-opacity="1.000000" stroke-width="3.000000" stroke-linecap="round"/>
	<path id="Vector 3414" d="M645.71 1965.73C642.81 1966.72 640.77 1971.38 638.81 1973.44C635.46 1976.97 632.22 1981.98 630.24 1986.33C626.18 1995.23 642.53 2002.53 649.21 2008.39C653.19 2011.89 664.12 2018.45 669.78 2016.87C678.75 2014.36 685.54 2009.18 693.32 2005.22" stroke="#A56549" stroke-opacity="1.000000" stroke-width="3.000000" stroke-linecap="round"/>
	<path id="Vector 3415" d="M640.77 1930.8C625.81 1924.32 621.7 1907.8 633.36 1899.65C641.56 1893.91 651.14 1889 662.15 1889.16" stroke="#A56549" stroke-opacity="1.000000" stroke-width="3.000000" stroke-linecap="round"/>
	<path id="Vector 3417" d="M630.31 1931.45C627.15 1938.36 623.81 1946.14 616.65 1950.4C612.03 1953.16 610.95 1954.75 611.34 1960.23C611.94 1968.76 626.24 1978.89 632.92 1984.34" stroke="#A56549" stroke-opacity="1.000000" stroke-width="3.000000" stroke-linecap="round"/>
</svg>
