<svg width="239" height="284" viewBox="0 0 239 284" fill="none" xmlns="http://www.w3.org/2000/svg">
<path d="M23.1414 122.503C8.94361 182.491 -17.2998 238.011 20.312 269.916C57.9238 301.822 90.2322 271.681 160.146 232.257C199.321 182.749 199.787 122.536 162.175 90.63C124.563 58.7244 62.3158 72.9945 23.1414 122.503Z" fill="url(#paint0_radial_661_2)"/>
<path d="M238.231 112.547L176.582 107.593L194.401 159.589L238.231 112.547Z" fill="#61D157"/>
<path d="M204.862 41.4718L145.625 84.0171L186.641 113.854L204.862 41.4718Z" fill="#61D157"/>
<path d="M156.089 15.2309L108.109 70.7928L154.452 90.3334L156.089 15.2309Z" fill="#61D157"/>
<ellipse cx="5.31821" cy="4.78566" rx="5.31821" ry="4.78566" transform="matrix(-0.965039 -0.262105 -0.230316 0.973116 113.646 127.08)" fill="white"/>
<ellipse cx="5.36437" cy="4.22159" rx="5.36437" ry="4.22159" transform="matrix(-0.921823 -0.38761 -0.335748 0.941952 140.395 173.346)" fill="white"/>
<ellipse cx="5.80169" cy="4.25392" rx="5.80169" ry="4.25392" transform="matrix(-0.965039 -0.262105 -0.230316 0.973116 78.0605 151.559)" fill="white"/>
<ellipse cx="5.85204" cy="4.22159" rx="5.85204" ry="4.22159" transform="matrix(-0.921823 -0.38761 -0.335748 0.941952 75.4014 247.947)" fill="white"/>
<ellipse cx="5.36437" cy="4.74929" rx="5.36437" ry="4.74929" transform="matrix(-0.921823 -0.38761 -0.335748 0.941952 104.835 206.404)" fill="white"/>
<ellipse cx="5.36437" cy="4.74929" rx="5.36437" ry="4.74929" transform="matrix(-0.921823 -0.38761 -0.335748 0.941952 58.4863 208.578)" fill="white"/>
<ellipse cx="5.31821" cy="5.3174" rx="5.31821" ry="5.3174" transform="matrix(-0.965039 -0.262105 -0.230316 0.973116 36.127 188.684)" fill="white"/>
<defs>
<radialGradient id="paint0_radial_661_2" cx="0" cy="0" r="1" gradientUnits="userSpaceOnUse" gradientTransform="translate(90.1132 179.314) rotate(128.353) scale(114.312 87.7712)">
<stop stop-color="#FF1212"/>
<stop offset="1" stop-color="#FF00C3"/>
</radialGradient>
</defs>
</svg>
