<svg width="377" height="352" viewBox="0 0 377 352" fill="none" xmlns="http://www.w3.org/2000/svg">
<path d="M133.532 255.533C200.75 281.072 261.205 319.917 303.014 281.082C344.823 242.247 314.426 200.196 278.376 113.097C226.583 60.1517 157.263 50.5158 115.454 89.3505C73.6449 128.185 81.7384 202.588 133.532 255.533Z" fill="url(#paint0_radial_2002_445)"/>
<path d="M143.019 12.8606L129.041 83.6641L196.405 62.8469L143.019 12.8606Z" fill="#61D157"/>
<path d="M59.0902 42.1239L100.168 117.303L140.051 74.2052L59.0902 42.1239Z" fill="#61D157"/>
<path d="M22.3116 94.7676L79.8988 158.847L108.631 108.011L22.3116 94.7676Z" fill="#61D157"/>
<ellipse cx="5.34099" cy="5.43976" rx="5.34099" ry="5.43976" transform="matrix(-0.370854 0.928691 0.934801 0.355171 175.995 122.641)" fill="white"/>
<ellipse cx="7.62998" cy="5.43976" rx="7.62998" ry="5.43976" transform="matrix(-0.370854 0.928691 0.934801 0.355171 161.112 172.481)" fill="white"/>
<ellipse cx="6.10398" cy="4.66265" rx="6.10398" ry="4.66265" transform="matrix(-0.370854 0.928691 0.934801 0.355171 212.714 148.018)" fill="white"/>
<ellipse cx="6.10398" cy="4.66265" rx="6.10398" ry="4.66265" transform="matrix(-0.370854 0.928691 0.934801 0.355171 183.853 220.294)" fill="white"/>
<ellipse cx="5.34099" cy="6.21687" rx="5.34099" ry="6.21687" transform="matrix(-0.370854 0.928691 0.934801 0.355171 250.474 191.743)" fill="white"/>
<ellipse cx="6.86698" cy="6.21687" rx="6.86698" ry="6.21687" transform="matrix(-0.370854 0.928691 0.934801 0.355171 224.446 101.877)" fill="white"/>
<ellipse cx="6.10398" cy="6.21687" rx="6.10398" ry="6.21687" transform="matrix(-0.370854 0.928691 0.934801 0.355171 240.667 258.202)" fill="white"/>
<ellipse cx="5.34099" cy="6.21687" rx="5.34099" ry="6.21687" transform="matrix(-0.370854 0.928691 0.934801 0.355171 119.714 142.062)" fill="white"/>
<defs>
<radialGradient id="paint0_radial_2002_445" cx="0" cy="0" r="1" gradientUnits="userSpaceOnUse" gradientTransform="translate(207.977 186.383) rotate(45.6302) scale(134.108 101.572)">
<stop stop-color="#FF1212"/>
<stop offset="1" stop-color="#FF00C3"/>
</radialGradient>
</defs>
</svg>
